<svg width="24" height="24" viewBox="0 0 24 24" fill="none" xmlns="http://www.w3.org/2000/svg">
<path d="M7.72279 14.2532C7.67279 14.8032 8.07814 15.2897 8.62815 15.3397C9.17817 15.3897 9.66458 14.9843 9.71458 14.4343L7.72279 14.2532ZM9.18744 9.18748L9.09691 8.19159C8.61615 8.23529 8.23525 8.61619 8.19155 9.09694L9.18744 9.18748ZM14.4343 9.71462C14.9843 9.66462 15.3896 9.17821 15.3396 8.62819C15.2896 8.07818 14.8032 7.67283 14.2532 7.72283L14.4343 9.71462ZM14.1054 15.5196C14.4959 15.9102 15.1291 15.9102 15.5196 15.5196C15.9101 15.1291 15.9101 14.4959 15.5196 14.1054L14.1054 15.5196ZM9.71458 14.4343L10.1833 9.27802L8.19155 9.09694L7.72279 14.2532L9.71458 14.4343ZM9.27798 10.1834L14.4343 9.71462L14.2532 7.72283L9.09691 8.19159L9.27798 10.1834ZM8.48033 9.89459L14.1054 15.5196L15.5196 14.1054L9.89455 8.48037L8.48033 9.89459ZM12 4C16.4183 4 20 7.58172 20 12H22C22 6.47715 17.5228 2 12 2V4ZM20 12C20 16.4183 16.4183 20 12 20V22C17.5228 22 22 17.5228 22 12H20ZM12 20C7.58172 20 4 16.4183 4 12H2C2 17.5228 6.47715 22 12 22V20ZM4 12C4 7.58172 7.58172 4 12 4V2C6.47715 2 2 6.47715 2 12H4Z" fill="black"/>
</svg>
