<svg width="24" height="24" viewBox="0 0 24 24" fill="none" xmlns="http://www.w3.org/2000/svg">
<path d="M13.4312 7.38228C13.0776 6.95801 12.447 6.90068 12.0228 7.25425C11.5985 7.60781 11.5412 8.23838 11.8947 8.66265L13.4312 7.38228ZM15.9775 12L16.7458 12.6402C17.0548 12.2693 17.0548 11.7306 16.7458 11.3598L15.9775 12ZM11.8947 15.3373C11.5412 15.7616 11.5985 16.3921 12.0228 16.7457C12.447 17.0993 13.0776 17.0419 13.4312 16.6177L11.8947 15.3373ZM8.02253 11C7.47024 11 7.02253 11.4477 7.02253 12C7.02253 12.5523 7.47024 13 8.02253 13V11ZM11.8947 8.66265L15.2093 12.6402L16.7458 11.3598L13.4312 7.38228L11.8947 8.66265ZM15.2093 11.3598L11.8947 15.3373L13.4312 16.6177L16.7458 12.6402L15.2093 11.3598ZM15.9775 11H8.02253V13H15.9775V11ZM17.6569 17.6569C14.5327 20.781 9.46734 20.781 6.34315 17.6569L4.92893 19.0711C8.83418 22.9763 15.1658 22.9763 19.0711 19.0711L17.6569 17.6569ZM6.34315 17.6569C3.21895 14.5327 3.21895 9.46734 6.34315 6.34315L4.92893 4.92893C1.02369 8.83418 1.02369 15.1658 4.92893 19.0711L6.34315 17.6569ZM6.34315 6.34315C9.46734 3.21895 14.5327 3.21895 17.6569 6.34315L19.0711 4.92893C15.1658 1.02369 8.83418 1.02369 4.92893 4.92893L6.34315 6.34315ZM17.6569 6.34315C20.781 9.46734 20.781 14.5327 17.6569 17.6569L19.0711 19.0711C22.9763 15.1658 22.9763 8.83418 19.0711 4.92893L17.6569 6.34315Z" stroke="black" stroke-width="2" stroke-linecap="round" stroke-linejoin="round"/>
</svg>
