<svg width="24" height="24" viewBox="0 0 24 24" fill="none" xmlns="http://www.w3.org/2000/svg">
<path d="M10.5688 16.6177C10.9224 17.042 11.553 17.0993 11.9772 16.7457C12.4015 16.3922 12.4588 15.7616 12.1053 15.3373L10.5688 16.6177ZM8.02247 12L7.25425 11.3598C6.94521 11.7307 6.94521 12.2693 7.25425 12.6402L8.02247 12ZM12.1053 8.66265C12.4588 8.23838 12.4015 7.60781 11.9772 7.25425C11.553 6.90068 10.9224 6.95801 10.5688 7.38228L12.1053 8.66265ZM15.9775 13C16.5298 13 16.9775 12.5523 16.9775 12C16.9775 11.4477 16.5298 11 15.9775 11V13ZM12.1053 15.3373L8.79069 11.3598L7.25425 12.6402L10.5688 16.6177L12.1053 15.3373ZM8.79069 12.6402L12.1053 8.66265L10.5688 7.38228L7.25425 11.3598L8.79069 12.6402ZM8.02247 13H15.9775V11H8.02247V13ZM6.34315 6.34315C9.46734 3.21895 14.5327 3.21895 17.6569 6.34315L19.0711 4.92893C15.1658 1.02369 8.83418 1.02369 4.92893 4.92893L6.34315 6.34315ZM17.6569 6.34315C20.781 9.46734 20.781 14.5327 17.6569 17.6569L19.0711 19.0711C22.9763 15.1658 22.9763 8.83418 19.0711 4.92893L17.6569 6.34315ZM17.6569 17.6569C14.5327 20.781 9.46734 20.781 6.34315 17.6569L4.92893 19.0711C8.83418 22.9763 15.1658 22.9763 19.0711 19.0711L17.6569 17.6569ZM6.34315 17.6569C3.21895 14.5327 3.21895 9.46734 6.34315 6.34315L4.92893 4.92893C1.02369 8.83418 1.02369 15.1658 4.92893 19.0711L6.34315 17.6569Z" stroke="black" stroke-width="2" stroke-linecap="round" stroke-linejoin="round"/>
</svg>
