<svg width="24" height="24" viewBox="0 0 24 24" fill="none" xmlns="http://www.w3.org/2000/svg">
<path d="M7.08901 20.2376H6.58208C5.18223 20.2376 4.04743 19.1028 4.04743 17.703V12.6337C4.04743 11.8528 2.3999 11.4931 2.3999 11.4931C2.3999 11.4931 4.04743 11.1924 4.04743 10.3525V6.29704C4.04743 4.89719 5.18223 3.76239 6.58208 3.76239H7.08901M16.9108 3.76239H17.4177C18.8176 3.76239 19.9524 4.89719 19.9524 6.29704V11.3664C19.9524 12.1472 21.5999 12.5069 21.5999 12.5069C21.5999 12.5069 19.9524 12.8076 19.9524 13.6475L19.9524 17.703C19.9524 19.1028 18.8176 20.2376 17.4177 20.2376H16.9108" stroke="black" stroke-width="2" stroke-linecap="round" stroke-linejoin="round"/>
</svg>
