<svg width="24" height="24" viewBox="0 0 24 24" fill="none" xmlns="http://www.w3.org/2000/svg">
<path d="M17.85 13.7998H13.8" stroke="black" stroke-width="2" stroke-linecap="round" stroke-linejoin="round"/>
<path d="M15.6001 12.0001L13.8001 13.8001L15.6001 15.6001M12.9001 21.0001H19.2001C20.1942 21.0001 21.0001 20.1942 21.0001 19.2001V8.4001C21.0001 7.40598 20.1942 6.6001 19.2001 6.6001H12.9001C11.906 6.6001 11.1001 7.40598 11.1001 8.4001V19.2001C11.1001 20.1942 11.906 21.0001 12.9001 21.0001Z" stroke="black" stroke-width="2" stroke-linecap="round" stroke-linejoin="round"/>
<path d="M5.69995 10.2002H9.74995" stroke="black" stroke-width="2" stroke-linecap="round" stroke-linejoin="round"/>
<path d="M7.94995 11.9999L9.74995 10.1999L7.94995 8.3999" stroke="black" stroke-width="2" stroke-linecap="round" stroke-linejoin="round"/>
<path d="M10.5 17.4H4.8C3.80589 17.4 3 16.5941 3 15.6V4.8C3 3.80589 3.80589 3 4.8 3H11.1C12.0941 3 12.9 3.80589 12.9 4.8V6" stroke="black" stroke-width="2" stroke-linejoin="round"/>
</svg>
