<svg width="24" height="24" viewBox="0 0 24 24" fill="none" xmlns="http://www.w3.org/2000/svg">
<path d="M5.7 9.2C5.14772 9.2 4.7 9.64772 4.7 10.2C4.7 10.7523 5.14772 11.2 5.7 11.2V9.2ZM9.75 10.2L10.4571 10.9071C10.8476 10.5166 10.8476 9.88342 10.4571 9.49289L9.75 10.2ZM7.24289 11.2929C6.85237 11.6834 6.85237 12.3166 7.24289 12.7071C7.63342 13.0976 8.26658 13.0976 8.65711 12.7071L7.24289 11.2929ZM8.65711 7.69289C8.26658 7.30237 7.63342 7.30237 7.24289 7.69289C6.85237 8.08342 6.85237 8.71658 7.24289 9.10711L8.65711 7.69289ZM17.85 14.8C18.4023 14.8 18.85 14.3523 18.85 13.8C18.85 13.2477 18.4023 12.8 17.85 12.8V14.8ZM13.8 13.8L13.0929 13.0929C12.7024 13.4834 12.7024 14.1166 13.0929 14.5071L13.8 13.8ZM16.3071 12.7071C16.6976 12.3166 16.6976 11.6834 16.3071 11.2929C15.9166 10.9024 15.2834 10.9024 14.8929 11.2929L16.3071 12.7071ZM14.8929 16.3071C15.2834 16.6976 15.9166 16.6976 16.3071 16.3071C16.6976 15.9166 16.6976 15.2834 16.3071 14.8929L14.8929 16.3071ZM4.8 4H11.1V2H4.8V4ZM11.55 16.4H4.8V18.4H11.55V16.4ZM4 15.6V4.8H2V15.6H4ZM11.9 4.8V7.5H13.9V4.8H11.9ZM4.8 16.4C4.35817 16.4 4 16.0418 4 15.6H2C2 17.1464 3.2536 18.4 4.8 18.4V16.4ZM11.1 4C11.5418 4 11.9 4.35817 11.9 4.8H13.9C13.9 3.2536 12.6464 2 11.1 2V4ZM4.8 2C3.2536 2 2 3.2536 2 4.8H4C4 4.35817 4.35817 4 4.8 4V2ZM12.9 7.6H19.2V5.6H12.9V7.6ZM20 8.4V19.2H22V8.4H20ZM19.2 20H12.9V22H19.2V20ZM12.1 19.2V8.4H10.1V19.2H12.1ZM12.9 20C12.4582 20 12.1 19.6418 12.1 19.2H10.1C10.1 20.7464 11.3536 22 12.9 22V20ZM20 19.2C20 19.6418 19.6418 20 19.2 20V22C20.7464 22 22 20.7464 22 19.2H20ZM19.2 7.6C19.6418 7.6 20 7.95817 20 8.4H22C22 6.8536 20.7464 5.6 19.2 5.6V7.6ZM12.9 5.6C11.3536 5.6 10.1 6.8536 10.1 8.4H12.1C12.1 7.95817 12.4582 7.6 12.9 7.6V5.6ZM5.7 11.2H9.75V9.2H5.7V11.2ZM8.65711 12.7071L10.4571 10.9071L9.04289 9.49289L7.24289 11.2929L8.65711 12.7071ZM10.4571 9.49289L8.65711 7.69289L7.24289 9.10711L9.04289 10.9071L10.4571 9.49289ZM17.85 12.8H13.8V14.8H17.85V12.8ZM14.8929 11.2929L13.0929 13.0929L14.5071 14.5071L16.3071 12.7071L14.8929 11.2929ZM13.0929 14.5071L14.8929 16.3071L16.3071 14.8929L14.5071 13.0929L13.0929 14.5071Z" fill="black"/>
</svg>
