<svg width="24" height="24" viewBox="0 0 24 24" fill="none" xmlns="http://www.w3.org/2000/svg">
<path d="M7.20002 12.0001C7.20002 13.3256 6.12551 14.4001 4.80002 14.4001C3.47454 14.4001 2.40002 13.3256 2.40002 12.0001C2.40002 10.6746 3.47454 9.6001 4.80002 9.6001C6.12551 9.6001 7.20002 10.6746 7.20002 12.0001Z" stroke="black" stroke-width="2"/>
<path d="M14.4 12.0001C14.4 13.3256 13.3255 14.4001 12 14.4001C10.6745 14.4001 9.60002 13.3256 9.60002 12.0001C9.60002 10.6746 10.6745 9.6001 12 9.6001C13.3255 9.6001 14.4 10.6746 14.4 12.0001Z" stroke="black" stroke-width="2"/>
<path d="M21.6 12.0001C21.6 13.3256 20.5255 14.4001 19.2 14.4001C17.8745 14.4001 16.8 13.3256 16.8 12.0001C16.8 10.6746 17.8745 9.6001 19.2 9.6001C20.5255 9.6001 21.6 10.6746 21.6 12.0001Z" stroke="black" stroke-width="2"/>
</svg>
