<svg width="24" height="24" viewBox="0 0 24 24" fill="none" xmlns="http://www.w3.org/2000/svg">
<path d="M12 7.1999C10.6745 7.1999 9.59998 6.12539 9.59998 4.7999C9.59998 3.47442 10.6745 2.3999 12 2.3999C13.3255 2.3999 14.4 3.47442 14.4 4.7999C14.4 6.12539 13.3255 7.1999 12 7.1999Z" stroke="black" stroke-width="2"/>
<path d="M12 14.3999C10.6745 14.3999 9.59998 13.3254 9.59998 11.9999C9.59998 10.6744 10.6745 9.5999 12 9.5999C13.3255 9.5999 14.4 10.6744 14.4 11.9999C14.4 13.3254 13.3255 14.3999 12 14.3999Z" stroke="black" stroke-width="2"/>
<path d="M12 21.5999C10.6745 21.5999 9.59998 20.5254 9.59998 19.1999C9.59998 17.8744 10.6745 16.7999 12 16.7999C13.3255 16.7999 14.4 17.8744 14.4 19.1999C14.4 20.5254 13.3255 21.5999 12 21.5999Z" stroke="black" stroke-width="2"/>
</svg>
