<svg width="24" height="24" viewBox="0 0 24 24" fill="none" xmlns="http://www.w3.org/2000/svg">
<path d="M6.375 21C4.51104 21 3 19.489 3 17.625V6.375C3 4.51104 4.51104 3 6.375 3H17.625C19.489 3 21 4.51104 21 6.375V17.625C21 19.489 19.489 21 17.625 21H6.375Z" stroke="black" stroke-width="2" stroke-linecap="round" stroke-linejoin="round"/>
<path d="M16.3713 6.9375H16.0496V7.20996H16.3713V6.9375Z" stroke="black" stroke-width="2" stroke-linecap="round" stroke-linejoin="round"/>
<path fill-rule="evenodd" clip-rule="evenodd" d="M8.73722 12.7802C8.7212 12.7965 8.70514 12.8129 8.68771 12.8276L6.65437 14.5505C6.61306 14.5855 6.5739 14.6233 6.54298 14.6678C6.43399 14.8244 6.375 15.0112 6.375 15.2033V17.1566C6.375 17.4155 6.58487 17.6254 6.84375 17.6254H17.1562C17.4151 17.6254 17.625 17.4155 17.625 17.1566V13.5759C17.625 13.3206 17.5209 13.0764 17.3367 12.8996L15.6013 11.2336C15.4218 11.0613 15.1388 11.0593 14.9569 11.2291L11.7424 14.2502C11.555 14.4251 11.2642 14.4158 11.0881 14.2359L11.0796 14.2272C11.0647 14.2119 11.0498 14.1966 11.0337 14.1826L9.46776 12.8263C9.45157 12.8123 9.4366 12.7969 9.42164 12.7815L9.41339 12.773C9.23094 12.5865 8.92935 12.5859 8.74612 12.7712L8.73722 12.7802Z" stroke="black" stroke-width="2" stroke-linecap="round"/>
</svg>
