<svg width="24" height="24" viewBox="0 0 24 24" fill="none" xmlns="http://www.w3.org/2000/svg">
<path d="M7.47112 10.2831L5.23766 12.5166C4.40353 13.3507 3.92385 14.4857 3.93261 15.6785C3.94138 16.8713 4.41056 18.0132 5.28428 18.8599C6.13096 19.7337 7.27309 20.2028 8.46571 20.2116C9.68554 20.2206 10.7936 19.7679 11.6278 18.9338L13.8613 16.7003M16.7141 13.9021L18.9475 11.6686C19.7817 10.8345 20.2614 9.69951 20.2526 8.5067C20.2438 7.31389 19.7746 6.172 18.9009 5.32527C18.0544 4.47878 16.9125 4.00957 15.7197 4.00081C14.5269 3.99204 13.3918 4.44449 12.5576 5.27865L10.3241 7.5121M8.70571 15.4198L15.4061 8.71941M5.33627 5.2171L4.22996 4.11079M9.17777 3.26835L9.35876 1.44482M1.72184 9.08141L3.6125 8.89376M18.9409 18.5057L20.0472 19.612M15.0994 20.4545L14.9184 22.278M22.5553 14.6414L20.6647 14.8291" stroke="black" stroke-width="2" stroke-linecap="round" stroke-linejoin="round"/>
</svg>
