<svg width="24" height="24" viewBox="0 0 24 24" fill="none" xmlns="http://www.w3.org/2000/svg">
<path d="M10.0116 7.45264L6.85302 7.45264C5.67337 7.45264 4.53165 7.91599 3.6944 8.76564C2.85715 9.61528 2.38148 10.7545 2.40056 11.971C2.38143 13.1875 2.85729 14.3269 3.6944 15.1764C4.55061 16.0453 5.65423 16.5088 6.83392 16.5088H9.9925M13.9884 16.5474H17.147C18.3266 16.5474 19.4684 16.084 20.3056 15.2344C21.1429 14.3847 21.6185 13.2455 21.5994 12.029C21.5994 10.8319 21.1238 9.69263 20.2865 8.84298C19.4493 7.99333 18.3267 7.51062 17.147 7.5106H13.9884M7.25244 11.9578L16.7282 11.9578" stroke="black" stroke-width="2" stroke-linecap="round" stroke-linejoin="round"/>
</svg>
