<svg width="24" height="24" viewBox="0 0 24 24" fill="none" xmlns="http://www.w3.org/2000/svg">
<path d="M20.1016 12.5292C20.1016 17.2074 16.2733 20.9998 11.5508 20.9998C6.82832 20.9998 3 17.2074 3 12.5292C3 7.85101 6.82832 4.05859 11.5508 4.05859" stroke="black" stroke-width="2" stroke-linecap="round"/>
<path d="M17.5988 9.36396L20.9999 5.99481L18.3546 5.62045L17.9767 3L14.5757 6.36916L15.3315 8.61526L17.5988 9.36396Z" stroke="black" stroke-width="2" stroke-linecap="round" stroke-linejoin="round"/>
<path d="M15.3297 8.61523L11.5508 12.3587" stroke="black" stroke-width="2" stroke-linecap="round" stroke-linejoin="round"/>
<path d="M15.8262 12.5292C15.8262 14.8683 13.912 16.7645 11.5508 16.7645C9.18955 16.7645 7.27539 14.8683 7.27539 12.5292C7.27539 10.1902 9.18955 8.29395 11.5508 8.29395" stroke="black" stroke-width="2" stroke-linecap="round"/>
</svg>
