<svg width="24" height="24" viewBox="0 0 24 24" fill="none" xmlns="http://www.w3.org/2000/svg">
<path d="M20.9814 7.37503C20.9676 7.2148 20.6099 6.90708 20.4586 6.85219C20.3069 6.79697 20.137 6.83456 20.0229 6.94809L17.7333 9.23769L14.7593 6.26374L17.0947 3.93712C17.209 3.82337 17.2463 3.65413 17.1913 3.50324C17.1356 3.35205 16.769 3.03175 16.6078 3.01787C15.1895 2.89613 13.7998 3.40061 12.795 4.40174C11.4189 5.77278 11.0545 7.77488 11.6998 9.48143C11.6293 9.54063 11.5597 9.60336 11.491 9.671L3.69542 16.9993C3.69267 17.002 3.68996 17.0049 3.68698 17.0075C2.77019 17.9209 2.77019 19.407 3.68698 20.3206C4.60392 21.2339 6.08476 21.2228 7.0014 20.3094C7.00535 20.3057 7.00897 20.302 7.01258 20.2979L14.3044 12.4712C14.3709 12.4047 14.4326 12.3351 14.4908 12.2637C16.2042 12.9077 18.2152 12.5455 19.5925 11.1736C20.597 10.1724 21.1038 8.78782 20.9814 7.37503Z" stroke="black" stroke-width="2" stroke-linejoin="round"/>
</svg>
