<svg width="24" height="24" viewBox="0 0 24 24" fill="none" xmlns="http://www.w3.org/2000/svg">
<path d="M15 2.39995V5.99995C15 6.66269 15.5372 7.19995 16.2 7.19995H19.7999M15 2.39995H15.6694C16.0073 2.39995 16.329 2.54229 16.5618 2.78723C16.9117 3.15533 17.4659 3.72209 18 4.19995C18.4186 4.57447 19.0762 5.2466 19.47 5.65508C19.6829 5.87599 19.8 6.17094 19.8 6.47778L19.7999 7.19995M15 2.39995H5.9996M19.7999 7.19995L19.7997 20.9999M4.1996 8.39995V19.1999C4.19959 20.5254 5.27411 21.5999 6.59959 21.5999H14.3996M20.4 22.7999L3.59998 1.19995" stroke="black" stroke-width="2" stroke-linecap="round" stroke-linejoin="round"/>
</svg>
