<svg width="24" height="24" viewBox="0 0 24 24" fill="none" xmlns="http://www.w3.org/2000/svg">
<path d="M2.3999 15H21.5" stroke="black" stroke-width="2" stroke-linecap="round"/>
<path d="M4.2002 19.2V21.6M12.6002 19.2V21.6M21.0002 19.2V21.6M8.40019 19.2V20.4M16.8002 19.2V20.4" stroke="black" stroke-width="2" stroke-linecap="round"/>
<path d="M15.0002 2.3999V5.9999C15.0002 6.66264 15.5375 7.1999 16.2002 7.1999H19.8002" stroke="black" stroke-width="2" stroke-linecap="round"/>
<path d="M16.5621 2.78718L15.8373 3.47611L15.8373 3.47611L16.5621 2.78718ZM18.0002 4.1999L18.667 3.45466L18.667 3.45466L18.0002 4.1999ZM19.4702 5.65503L18.7503 6.34908L18.7503 6.34908L19.4702 5.65503ZM19.8002 6.47773L18.8002 6.47771V6.47773H19.8002ZM4.19995 4.79989L3.19995 4.79988V4.79989H4.19995ZM3.19995 10.1999C3.19995 10.7522 3.64767 11.1999 4.19995 11.1999C4.75224 11.1999 5.19995 10.7522 5.19995 10.1999H3.19995ZM18.8002 10.1999C18.8002 10.7522 19.2479 11.1999 19.8002 11.1999C20.3525 11.1999 20.8002 10.7522 20.8002 10.1999H18.8002ZM6.59995 3.3999H15.0002V1.3999H6.59995V3.3999ZM15.0002 3.3999H15.6697V1.3999H15.0002V3.3999ZM15.8373 3.47611C16.1932 3.85066 16.7692 4.44033 17.3334 4.94514L18.667 3.45466C18.1631 3.00376 17.6306 2.4599 17.2869 2.09825L15.8373 3.47611ZM17.3334 4.94514C17.7199 5.29091 18.3521 5.93606 18.7503 6.34908L20.1901 4.96099C19.8007 4.55704 19.1177 3.85793 18.667 3.45466L17.3334 4.94514ZM20.8002 6.47776C20.8002 5.91641 20.5858 5.3714 20.1901 4.96099L18.7503 6.34908C18.7805 6.38048 18.8002 6.42538 18.8002 6.47771L20.8002 6.47776ZM15.6697 3.3999C15.725 3.3999 15.7872 3.42349 15.8373 3.47611L17.2869 2.09825C16.8713 1.66098 16.2902 1.3999 15.6697 1.3999V3.3999ZM6.59995 1.3999C4.72219 1.3999 3.19996 2.92212 3.19995 4.79988L5.19995 4.7999C5.19996 4.0267 5.82676 3.3999 6.59995 3.3999V1.3999ZM3.19995 4.79989V10.1999H5.19995V4.79989H3.19995ZM18.8002 6.47773V7.1999H20.8002V6.47773H18.8002ZM18.8002 7.1999V10.1999H20.8002V7.1999H18.8002Z" fill="black"/>
</svg>
