<svg width="24" height="24" viewBox="0 0 24 24" fill="none" xmlns="http://www.w3.org/2000/svg">
<path d="M8.70089 9.91755V13.6058C8.70089 15.4283 10.1784 16.9058 12.0009 16.9058C13.8234 16.9058 15.3009 15.4283 15.3009 13.6058V8.94696C15.3009 7.98209 14.5187 7.1999 13.5538 7.1999C12.589 7.1999 11.8068 7.98209 11.8068 8.94696V13.4117M6.59992 2.3999H17.4001C18.7256 2.3999 19.8002 3.47445 19.8001 4.79995L19.7999 19.2C19.7998 20.5254 18.7253 21.5999 17.3999 21.5999L6.59982 21.5998C5.27433 21.5998 4.19982 20.5253 4.19983 19.1998L4.19992 4.79989C4.19993 3.47441 5.27444 2.3999 6.59992 2.3999Z" stroke="black" stroke-width="2" stroke-linecap="round"/>
</svg>
