<svg width="24" height="24" viewBox="0 0 24 24" fill="none" xmlns="http://www.w3.org/2000/svg">
<path d="M11.4 21.6001H5.39999C4.0745 21.6001 2.99999 20.5256 3 19.2001L3.00009 4.80013C3.0001 3.47466 4.07462 2.40015 5.40009 2.40015H16.2004C17.5258 2.40015 18.6004 3.47466 18.6004 4.80015V9.60015M19.8 19.8001L21 21.0001M7.20037 7.20015H14.4004M7.20037 10.8001H14.4004M7.20037 14.4001H10.8004M20.4 17.4001C20.4 19.057 19.0569 20.4001 17.4 20.4001C15.7431 20.4001 14.4 19.057 14.4 17.4001C14.4 15.7433 15.7431 14.4001 17.4 14.4001C19.0569 14.4001 20.4 15.7433 20.4 17.4001Z" stroke="black" stroke-width="2" stroke-linecap="round" stroke-linejoin="round"/>
</svg>
