<svg width="24" height="24" viewBox="0 0 24 24" fill="none" xmlns="http://www.w3.org/2000/svg">
<path d="M10.4998 21.6001H4.49981C3.17433 21.6001 2.09981 20.5256 2.09982 19.2001L2.09992 4.80013C2.09992 3.47466 3.17444 2.40015 4.49992 2.40015H15.3002C16.6257 2.40015 17.7002 3.47466 17.7002 4.80015V9.60015M6.3002 7.20015H13.5002M6.3002 10.8001H13.5002M6.3002 14.4001H9.9002M15.3428 20.4001L12.9002 17.9459M12.9002 17.9459L15.2324 15.6001M12.9002 17.9459H20.1273C21.1065 17.9459 21.9002 17.1521 21.9002 16.173C21.9002 15.1939 21.1065 14.4001 20.1273 14.4001H17.7002" stroke="black" stroke-width="2" stroke-linecap="round" stroke-linejoin="round"/>
</svg>
