<svg width="24" height="24" viewBox="0 0 24 24" fill="none" xmlns="http://www.w3.org/2000/svg">
<path d="M10.8 21.6001H4.80001C3.47453 21.6001 2.40002 20.5256 2.40002 19.2001L2.40012 4.80013C2.40013 3.47466 3.47464 2.40015 4.80012 2.40015H15.6004C16.9259 2.40015 18.0004 3.47466 18.0004 4.80015V9.60015M17.4 17.3491V17.286M6.6004 7.20015H13.8004M6.6004 10.8001H13.8004M6.6004 14.4001H10.2004M21.6 17.4001C21.6 17.4001 20.6039 20.3398 17.4 20.2885C14.1962 20.2371 13.2 17.4001 13.2 17.4001C13.2 17.4001 14.1558 14.4091 17.4 14.4091C20.6443 14.4091 21.6 17.4001 21.6 17.4001Z" stroke="black" stroke-width="2" stroke-linecap="round" stroke-linejoin="round"/>
</svg>
