<svg width="24" height="24" viewBox="0 0 24 24" fill="none" xmlns="http://www.w3.org/2000/svg">
<path d="M13.8667 9.86655L18.6667 9.86657C19.2558 9.86657 19.7334 9.38902 19.7334 8.79993L19.7335 2.3999H15.2001L12.8001 4.53324L12.8 8.79987C12.8 9.38898 13.2776 9.86655 13.8667 9.86655Z" stroke="black" stroke-width="2" stroke-linecap="round" stroke-linejoin="round"/>
<path d="M13.8667 21.5999L18.6667 21.5999C19.2558 21.5999 19.7334 21.1224 19.7334 20.5333L19.7335 14.1332H15.2001L12.8001 16.2666L12.8 20.5332C12.8 21.1223 13.2776 21.5999 13.8667 21.5999Z" stroke="black" stroke-width="2" stroke-linecap="round" stroke-linejoin="round"/>
<path d="M9.0666 19.1699H7.46718C5.69993 19.1699 4.26726 17.7373 4.26718 15.9701L4.26681 7.31677M4.26681 7.31677L4.2666 2.3999M4.26681 7.31677H9.0666" stroke="black" stroke-width="2" stroke-linecap="round"/>
</svg>
