<svg width="24" height="24" viewBox="0 0 24 24" fill="none" xmlns="http://www.w3.org/2000/svg">
<path d="M16.5176 10.4999H20.5333C21.1224 10.4999 21.6 10.9775 21.6 11.5666V17.7979V18.0999C21.6 19.2045 20.7046 20.0999 19.6 20.0999H4.8M2.4 4.96657V17.9999C2.4 19.1597 3.3402 20.0999 4.5 20.0999V20.0999C5.6598 20.0999 6.6 19.1597 6.6 17.9999V11.5666C6.6 10.9775 7.07756 10.4999 7.66667 10.4999H19.4667V7.97833C19.4667 7.38923 18.9891 6.91167 18.4 6.91167H11.3725L9.7426 4.38788C9.54612 4.08365 9.20871 3.8999 8.84656 3.8999H3.46667C2.87756 3.8999 2.4 4.37747 2.4 4.96657Z" stroke="black" stroke-width="2" stroke-linecap="round" stroke-linejoin="round"/>
</svg>
