<svg width="24" height="24" viewBox="0 0 24 24" fill="none" xmlns="http://www.w3.org/2000/svg">
<path d="M5.9999 5.9999V10.1999M17.9999 5.9999V10.1999M17.3999 14.3999H19.7999C20.794 14.3999 21.5999 13.594 21.5999 12.5999V4.1999C21.5999 3.20579 20.794 2.3999 19.7999 2.3999H4.1999C3.20579 2.3999 2.3999 3.20579 2.3999 4.1999V12.5999C2.3999 13.594 3.20579 14.3999 4.1999 14.3999H6.5999M8.60484 18.2056L11.9989 21.5997M11.9989 21.5997L15.1644 18.4342M11.9989 21.5997L11.9991 14.6574M14.3999 8.3999C14.3999 9.72539 13.3254 10.7999 11.9999 10.7999C10.6744 10.7999 9.5999 9.72539 9.5999 8.3999C9.5999 7.07442 10.6744 5.9999 11.9999 5.9999C13.3254 5.9999 14.3999 7.07442 14.3999 8.3999Z" stroke="black" stroke-width="2" stroke-linecap="round" stroke-linejoin="round"/>
</svg>
