<svg width="24" height="24" viewBox="0 0 24 24" fill="none" xmlns="http://www.w3.org/2000/svg">
<path d="M2.10034 8.45996H20.1003" stroke="black" stroke-width="2" stroke-linecap="round" stroke-linejoin="round"/>
<path d="M11.7007 18.0603L3.90095 18.0601C2.57551 18.0601 1.50103 16.9856 1.50099 15.6602L1.50073 6.66032C1.50069 5.33481 2.57522 4.26025 3.90073 4.26025H18.3C19.6256 4.26025 20.7002 5.33351 20.7002 6.6591L20.7003 10.0603" stroke="black" stroke-width="2" stroke-linecap="round" stroke-linejoin="round"/>
<path d="M20.8099 12.7927C19.7964 12.2859 18.6035 12.2859 17.59 12.7927L16.2 13.4877V16.8327C16.2 17.7377 17.2676 18.7673 19.2 19.9877C21.1323 18.7673 22.2 17.9877 22.2 16.8327C22.2 15.6777 22.2 13.4877 22.2 13.4877L20.8099 12.7927Z" stroke="black" stroke-width="2" stroke-linejoin="round"/>
</svg>
