<svg width="24" height="24" viewBox="0 0 24 24" fill="none" xmlns="http://www.w3.org/2000/svg">
<path d="M1.50099 15.6602L0.500989 15.6602L1.50099 15.6602ZM1.50073 6.66032L2.50073 6.66029L1.50073 6.66032ZM11.7006 19.0603C12.2529 19.0603 12.7007 18.6126 12.7007 18.0603C12.7007 17.508 12.253 17.0603 11.7007 17.0603L11.7006 19.0603ZM3.90095 18.0601L3.90097 17.0601L3.90096 17.0601L3.90095 18.0601ZM20.7002 6.6591L19.7002 6.6591L19.7002 6.65912L20.7002 6.6591ZM2.10027 7.46011C1.54799 7.46011 1.10027 7.90782 1.10027 8.46011C1.10027 9.01239 1.54799 9.46011 2.10027 9.46011V7.46011ZM20.1003 9.46011C20.6526 9.46011 21.1003 9.01239 21.1003 8.46011C21.1003 7.90782 20.6526 7.46011 20.1003 7.46011V9.46011ZM15.2993 16.8601L14.5922 16.153C14.4047 16.3405 14.2993 16.5949 14.2993 16.8601H15.2993ZM19.6193 12.5401L20.3264 11.833C19.9359 11.4425 19.3027 11.4425 18.9122 11.833L19.6193 12.5401ZM22.4993 15.4201L23.2064 16.1272C23.394 15.9397 23.4993 15.6853 23.4993 15.4201C23.4993 15.1549 23.394 14.9005 23.2064 14.713L22.4993 15.4201ZM18.1793 19.7401V20.7401C18.4445 20.7401 18.6989 20.6347 18.8864 20.4472L18.1793 19.7401ZM15.2993 19.7401H14.2993C14.2993 20.2924 14.747 20.7401 15.2993 20.7401V19.7401ZM3.90073 5.26025H18.3V3.26025H3.90073V5.26025ZM2.50099 15.6601L2.50073 6.66029L0.500732 6.66035L0.500989 15.6602L2.50099 15.6601ZM11.7007 17.0603L3.90097 17.0601L3.90093 19.0601L11.7006 19.0603L11.7007 17.0603ZM19.7002 6.65912L19.7003 9.06027L21.7003 9.06023L21.7002 6.65908L19.7002 6.65912ZM3.90073 3.26025C2.02293 3.26025 0.500679 4.78254 0.500732 6.66035L2.50073 6.66029C2.50071 5.88708 3.12752 5.26025 3.90073 5.26025V3.26025ZM18.3 5.26025C19.074 5.26025 19.7002 5.88653 19.7002 6.6591L21.7002 6.65909C21.7002 4.7805 20.1772 3.26025 18.3 3.26025V5.26025ZM0.500989 15.6602C0.501043 17.5379 2.02322 19.0601 3.90093 19.0601L3.90096 17.0601C3.12779 17.0601 2.50101 16.4333 2.50099 15.6601L0.500989 15.6602ZM2.10027 9.46011H20.1003V7.46011H2.10027V9.46011ZM16.0064 17.5672L20.3264 13.2472L18.9122 11.833L14.5922 16.153L16.0064 17.5672ZM18.9122 13.2472L21.7922 16.1272L23.2064 14.713L20.3264 11.833L18.9122 13.2472ZM21.7922 14.713L17.4722 19.033L18.8864 20.4472L23.2064 16.1272L21.7922 14.713ZM18.1793 18.7401H15.2993V20.7401H18.1793V18.7401ZM16.2993 19.7401V16.8601H14.2993V19.7401H16.2993Z" fill="black"/>
</svg>
