<svg width="24" height="24" viewBox="0 0 24 24" fill="none" xmlns="http://www.w3.org/2000/svg">
<path d="M14.6381 5.07692C12.9241 5.07692 11.5346 6.45451 11.5346 8.15385C9.82063 8.15385 8.43115 6.77626 8.43115 5.07692C8.43115 3.37759 9.82063 2 11.5346 2C13.2486 2 14.6381 3.37759 14.6381 5.07692Z" stroke="black" stroke-width="2"/>
<path d="M17.7416 8.15407C17.7416 9.85341 16.3522 11.231 14.6381 11.231C12.9241 11.231 11.5347 9.85341 11.5347 8.15407C11.5347 6.45473 12.9241 5.07715 14.6381 5.07715C16.3522 5.07715 17.7416 6.45473 17.7416 8.15407Z" stroke="black" stroke-width="2"/>
<path d="M9.22407 14.4913L9.66822 15.3873L9.66822 15.3873L9.22407 14.4913ZM13.4001 14.1126L13.1391 15.0779L13.1391 15.0779L13.4001 14.1126ZM15.0309 14.5535L15.292 13.5882L15.292 13.5882L15.0309 14.5535ZM15.5477 16.4826L14.8436 15.7725L14.8436 15.7725L15.5477 16.4826ZM13.934 16.6743C13.5419 17.0631 13.5391 17.6963 13.928 18.0885C14.3168 18.4807 14.95 18.4834 15.3422 18.0945L13.934 16.6743ZM8.48736 15.9727L9.66822 15.3873L8.77993 13.5954L7.59907 14.1807L8.48736 15.9727ZM11.6529 14.9229H11.9711V12.9229H11.6529V14.9229ZM13.1391 15.0779L14.7699 15.5189L15.292 13.5882L13.6611 13.1473L13.1391 15.0779ZM14.8436 15.7725L13.934 16.6743L15.3422 18.0945L16.2517 17.1928L14.8436 15.7725ZM14.7699 15.5189C14.8963 15.5531 14.9221 15.6947 14.8436 15.7725L16.2517 17.1928C17.437 16.0177 16.8898 14.0203 15.292 13.5882L14.7699 15.5189ZM11.9711 14.9229C12.3657 14.9229 12.7585 14.975 13.1391 15.0779L13.6611 13.1473C13.1103 12.9983 12.5419 12.9229 11.9711 12.9229V14.9229ZM9.66822 15.3873C10.2841 15.082 10.9636 14.9229 11.6529 14.9229V12.9229C10.656 12.9229 9.67236 13.153 8.77993 13.5954L9.66822 15.3873Z" fill="black"/>
<path d="M8.04321 20.4613C9.20702 20.0767 11.9226 21.0211 13.8622 20.8459C15.4009 20.707 15.9652 20.7485 17.3537 20.0767C18.5623 19.4919 19.8491 18.0969 20.6898 17.0679C21.2251 16.4126 21.0427 15.4638 20.335 14.996C19.7293 14.5957 18.9228 14.6748 18.4081 15.1852L16.8716 16.7085C16.4351 17.1413 15.843 17.3844 15.2257 17.3844H12.6984" stroke="black" stroke-width="2" stroke-linecap="round"/>
<path d="M3 14.3078C3 13.883 3.34737 13.5386 3.77587 13.5386H6.87935C7.30785 13.5386 7.65522 13.883 7.65522 14.3078V21.2309C7.65522 21.6557 7.30785 22.0001 6.87935 22.0001H3.77587C3.34737 22.0001 3 21.6557 3 21.2309V14.3078Z" stroke="black" stroke-width="2"/>
</svg>
