<svg width="24" height="24" viewBox="0 0 24 24" fill="none" xmlns="http://www.w3.org/2000/svg">
<path d="M13.875 9.98247C14.0556 10.5044 14.6251 10.7811 15.147 10.6005C15.669 10.4199 15.9456 9.85037 15.765 9.32845L13.875 9.98247ZM13.2 8.43323L13.244 7.4342C13.2293 7.43356 13.2147 7.43323 13.2 7.43323L13.2 8.43323ZM10.8 12.0999V13.0999V12.0999ZM13.2 15.7666L13.2 16.7666L13.2 15.7666ZM10.8 15.7666L10.7561 16.7656C10.7707 16.7662 10.7854 16.7666 10.8 16.7666L10.8 15.7666ZM10.125 14.2173C9.94444 13.6954 9.37493 13.4187 8.85301 13.5993C8.33109 13.7799 8.0544 14.3494 8.235 14.8714L10.125 14.2173ZM13 6.5999C13 6.04762 12.5523 5.5999 12 5.5999C11.4477 5.5999 11 6.04762 11 6.5999H13ZM11 8.43323C11 8.98552 11.4477 9.43323 12 9.43323C12.5523 9.43323 13 8.98552 13 8.43323H11ZM13 15.7666C13 15.2143 12.5523 14.7666 12 14.7666C11.4477 14.7666 11 15.2143 11 15.7666H13ZM11 17.5999C11 18.1522 11.4477 18.5999 12 18.5999C12.5523 18.5999 13 18.1522 13 17.5999H11ZM15.765 9.32845C15.5814 8.79764 15.2449 8.33203 14.7961 7.99338L13.5915 9.58996C13.7201 9.68695 13.8198 9.823 13.875 9.98247L15.765 9.32845ZM14.7961 7.99338C14.347 7.65456 13.8065 7.45894 13.244 7.4342L13.1561 9.43227C13.3115 9.4391 13.4632 9.49315 13.5915 9.58996L14.7961 7.99338ZM13.2 7.43323H10.8V9.43323H13.2V7.43323ZM10.8 7.43323C10.0514 7.43323 9.3373 7.73629 8.81367 8.26961L10.2408 9.67079C10.3923 9.51649 10.5938 9.43323 10.8 9.43323V7.43323ZM8.81367 8.26961C8.29065 8.80232 8.00002 9.52098 8.00002 10.2666H10C10 10.0397 10.0887 9.82572 10.2408 9.67079L8.81367 8.26961ZM8.00002 10.2666C8.00002 11.0122 8.29065 11.7308 8.81367 12.2635L10.2408 10.8623C10.0887 10.7074 10 10.4934 10 10.2666H8.00002ZM8.81367 12.2635C9.3373 12.7968 10.0514 13.0999 10.8 13.0999L10.8 11.0999C10.5938 11.0999 10.3923 11.0166 10.2408 10.8623L8.81367 12.2635ZM10.8 13.0999H13.2V11.0999H10.8V13.0999ZM13.2 13.0999C13.4062 13.0999 13.6077 13.1832 13.7593 13.3375L15.1864 11.9363C14.6627 11.403 13.9486 11.0999 13.2 11.0999V13.0999ZM13.7593 13.3375C13.9114 13.4924 14 13.7064 14 13.9332H16C16 13.1876 15.7094 12.469 15.1864 11.9363L13.7593 13.3375ZM14 13.9332C14 14.1601 13.9114 14.3741 13.7593 14.529L15.1864 15.9302C15.7094 15.3975 16 14.6788 16 13.9332H14ZM13.7593 14.529C13.6077 14.6833 13.4062 14.7666 13.2 14.7666L13.2 16.7666C13.9486 16.7666 14.6628 16.4635 15.1864 15.9302L13.7593 14.529ZM13.2 14.7666H10.8V16.7666H13.2V14.7666ZM10.844 14.7675C10.6886 14.7607 10.5369 14.7067 10.4085 14.6098L9.20399 16.2064C9.65308 16.5452 10.1936 16.7409 10.7561 16.7656L10.844 14.7675ZM10.4085 14.6098C10.28 14.5129 10.1802 14.3768 10.125 14.2173L8.235 14.8714C8.41868 15.4022 8.75512 15.8678 9.20399 16.2064L10.4085 14.6098ZM11 6.5999V8.43323H13V6.5999H11ZM11 15.7666V17.5999H13V15.7666H11ZM20.6 11.9999C20.6 16.7495 16.7497 20.5999 12 20.5999V22.5999C17.8542 22.5999 22.6 17.8541 22.6 11.9999H20.6ZM12 20.5999C7.25037 20.5999 3.40002 16.7495 3.40002 11.9999H1.40002C1.40002 17.8541 6.14581 22.5999 12 22.5999V20.5999ZM3.40002 11.9999C3.40002 7.25025 7.25037 3.3999 12 3.3999V1.3999C6.14581 1.3999 1.40002 6.14568 1.40002 11.9999H3.40002ZM12 3.3999C16.7497 3.3999 20.6 7.25025 20.6 11.9999H22.6C22.6 6.14568 17.8542 1.3999 12 1.3999V3.3999Z" fill="black"/>
</svg>
