<svg width="24" height="24" viewBox="0 0 24 24" fill="none" xmlns="http://www.w3.org/2000/svg">
<path d="M15.6 7.7999H8.40002H10.3637C11.058 7.7999 11.724 8.08888 12.215 8.60327C12.706 9.11765 12.9818 9.81531 12.9818 10.5428C12.9818 11.2702 12.706 11.9679 12.215 12.4823C11.724 12.9966 11.058 13.2856 10.3637 13.2856H8.40002L12.3273 17.3999M8.40002 10.5428H15.6M21.6 11.9999C21.6 17.3018 17.302 21.5999 12 21.5999C6.69809 21.5999 2.40002 17.3018 2.40002 11.9999C2.40002 6.69797 6.69809 2.3999 12 2.3999C17.302 2.3999 21.6 6.69797 21.6 11.9999Z" stroke="black" stroke-width="2" stroke-linecap="round" stroke-linejoin="round"/>
</svg>
