<svg width="24" height="24" viewBox="0 0 24 24" fill="none" xmlns="http://www.w3.org/2000/svg">
<path d="M9.3273 16.7999V7.19991H13.9091C14.5167 7.19991 15.0994 7.41664 15.529 7.80243C15.9587 8.18822 16.2 8.71146 16.2 9.25705C16.2 9.80264 15.9587 10.3259 15.529 10.7117C15.0994 11.0975 14.5167 11.3142 13.9091 11.3142H7.80002M13.9091 14.057H7.80002M21.6 11.9999C21.6 17.3018 17.302 21.5999 12 21.5999C6.69809 21.5999 2.40002 17.3018 2.40002 11.9999C2.40002 6.69797 6.69809 2.3999 12 2.3999C17.302 2.3999 21.6 6.69797 21.6 11.9999Z" stroke="black" stroke-width="2" stroke-linecap="round" stroke-linejoin="round"/>
</svg>
