<svg width="24" height="24" viewBox="0 0 24 24" fill="none" xmlns="http://www.w3.org/2000/svg">
<path d="M21.5999 11.9999C21.5999 17.3018 17.3018 21.5999 11.9999 21.5999C6.69797 21.5999 2.3999 17.3018 2.3999 11.9999C2.3999 6.69797 6.69797 2.3999 11.9999 2.3999C17.3018 2.3999 21.5999 6.69797 21.5999 11.9999Z" stroke="black" stroke-width="2"/>
<path d="M14.82 9.65533C14.7006 9.3102 14.4825 9.00936 14.1938 8.79154C13.9051 8.57373 13.559 8.44889 13.2 8.43311H10.8C10.3226 8.43311 9.86477 8.62626 9.52721 8.97008C9.18964 9.31389 9 9.78021 9 10.2664C9 10.7527 9.18964 11.219 9.52721 11.5628C9.86477 11.9066 10.3226 12.0998 10.8 12.0998H13.2C13.6774 12.0998 14.1352 12.2929 14.4728 12.6367C14.8104 12.9806 15 13.4469 15 13.9331C15 14.4193 14.8104 14.8856 14.4728 15.2295C14.1352 15.5733 13.6774 15.7664 13.2 15.7664H10.8C10.441 15.7507 10.0949 15.6258 9.80624 15.408C9.51753 15.1902 9.29943 14.8893 9.18 14.5442" stroke="black" stroke-width="2" stroke-linecap="round" stroke-linejoin="round"/>
<path d="M12 6.6001V8.43343M12 15.7668V17.6001" stroke="black" stroke-width="2" stroke-linecap="round"/>
</svg>
