<svg width="24" height="24" viewBox="0 0 24 24" fill="none" xmlns="http://www.w3.org/2000/svg">
<path d="M15.0001 8.68889C14.1657 7.93457 13.0805 7.51761 11.9556 7.5191M11.9556 7.5191C11.3575 7.5195 10.7653 7.6377 10.2129 7.86696C9.66049 8.09622 9.15862 8.43204 8.73597 8.85525C8.31332 9.27846 7.97817 9.78078 7.74965 10.3335C7.52113 10.8863 7.40372 11.4786 7.40412 12.0767C7.40412 14.594 9.44137 16.6343 11.9556 16.6343M11.9556 7.5191L11.9564 5.9999M11.9556 16.6343C13.079 16.6359 14.163 16.2201 14.9971 15.4676M11.9556 16.6343L11.9564 18.1535M21.6 11.9999C21.6 17.3018 17.302 21.5999 12 21.5999C6.69809 21.5999 2.40002 17.3018 2.40002 11.9999C2.40002 6.69797 6.69809 2.3999 12 2.3999C17.302 2.3999 21.6 6.69797 21.6 11.9999Z" stroke="black" stroke-width="2" stroke-linecap="round" stroke-linejoin="round"/>
</svg>
