<svg width="24" height="24" viewBox="0 0 24 24" fill="none" xmlns="http://www.w3.org/2000/svg">
<path d="M21.5999 11.9999C21.5999 17.3018 17.3018 21.5999 11.9999 21.5999C6.69797 21.5999 2.3999 17.3018 2.3999 11.9999C2.3999 6.69797 6.69797 2.3999 11.9999 2.3999C17.3018 2.3999 21.5999 6.69797 21.5999 11.9999Z" stroke="black" stroke-width="2" stroke-linecap="round" stroke-linejoin="round"/>
<path d="M11.7012 6.19189V7.59289M11.7012 15.9989V17.3999" stroke="black" stroke-width="2" stroke-linecap="round" stroke-linejoin="round"/>
<path d="M13.1021 11.7959C13.6595 11.7959 14.194 12.0173 14.5881 12.4114C14.9822 12.8055 15.2036 13.34 15.2036 13.8974V13.9976C15.2036 14.5284 14.9928 15.0374 14.6174 15.4127C14.2421 15.788 13.7331 15.9989 13.2023 15.9989H9.59961V11.7959H13.1021ZM13.1021 11.7959H13.2023" stroke="black" stroke-width="2" stroke-linecap="round" stroke-linejoin="round"/>
<path d="M13.1021 7.58984C13.6595 7.58984 14.194 7.81125 14.5881 8.20536C14.9822 8.59946 15.2036 9.13399 15.2036 9.69134V9.79151C15.2036 10.3223 14.9928 10.8313 14.6174 11.2067C14.2421 11.582 13.7331 11.7928 13.2023 11.7928H9.59961V7.58984H13.1021ZM13.1021 7.58984H13.2023" stroke="black" stroke-width="2" stroke-linecap="round" stroke-linejoin="round"/>
</svg>
