<svg width="24" height="24" viewBox="0 0 24 24" fill="none" xmlns="http://www.w3.org/2000/svg">
<path d="M12.1746 21.6535V7.68988M10.5496 6.85219C10.7224 6.89098 10.9046 6.84344 11.0291 6.71898C11.1535 6.59452 11.201 6.41229 11.1623 6.23948C11.0071 5.6057 10.4356 3.48346 9.84873 2.89659C9.11757 2.16543 7.92757 2.16239 7.20002 2.88993C6.47253 3.61742 6.47547 4.80742 7.20669 5.53863C7.80316 6.1351 9.91581 6.69705 10.5496 6.85219ZM12.3242 6.23943C12.2854 6.4123 12.3329 6.59447 12.4574 6.71893C12.5818 6.84339 12.7641 6.89086 12.9369 6.85214C13.5706 6.69699 15.6929 6.12545 16.2797 5.53858C17.0109 4.80742 17.014 3.61742 16.2864 2.88988C15.5589 2.16239 14.3689 2.16533 13.6377 2.89654C13.0412 3.49301 12.4793 5.60567 12.3242 6.23943ZM3.09821 12.5772H20.9018C21.2874 12.5772 21.6 12.2646 21.6 11.879V8.38806C21.6 8.00247 21.2874 7.68988 20.9018 7.68988H3.09821C2.71261 7.68988 2.40002 8.00247 2.40002 8.38806V11.879C2.40002 12.2646 2.71261 12.5772 3.09821 12.5772ZM19.8546 12.5772V20.9553C19.8546 21.3409 19.542 21.6535 19.1564 21.6535H4.84366C4.45807 21.6535 4.14548 21.3409 4.14548 20.9553V12.5772H19.8546Z" stroke="black" stroke-width="2" stroke-linecap="round" stroke-linejoin="round"/>
</svg>
