<svg width="24" height="24" viewBox="0 0 24 24" fill="none" xmlns="http://www.w3.org/2000/svg">
<path d="M21.6 16.5601V17.5601C22.1523 17.5601 22.6 17.1124 22.6 16.5601H21.6ZM21.6 11.2801H22.6C22.6 10.7279 22.1523 10.2801 21.6 10.2801V11.2801ZM7.13927 6.11896C6.6747 6.41761 6.54019 7.03633 6.83885 7.5009C7.1375 7.96547 7.75621 8.09997 8.22078 7.80132L7.13927 6.11896ZM14.4 2.64014L15.1894 2.0262C14.8716 1.61765 14.2946 1.51908 13.8593 1.79896L14.4 2.64014ZM16.9707 7.57408C17.3097 8.01003 17.938 8.08856 18.374 7.74949C18.8099 7.41042 18.8884 6.78214 18.5494 6.3462L16.9707 7.57408ZM21.6 15.5601H18.48V17.5601H21.6V15.5601ZM18.48 12.2801H21.6V10.2801H18.48V12.2801ZM20.6 11.2801V16.5601H22.6V11.2801H20.6ZM16.84 13.9201C16.84 13.0144 17.5743 12.2801 18.48 12.2801V10.2801C16.4697 10.2801 14.84 11.9098 14.84 13.9201H16.84ZM18.48 15.5601C17.5743 15.5601 16.84 14.8259 16.84 13.9201H14.84C14.84 15.9305 16.4697 17.5601 18.48 17.5601V15.5601ZM8.22078 7.80132L14.9408 3.48132L13.8593 1.79896L7.13927 6.11896L8.22078 7.80132ZM13.6107 3.25408L16.9707 7.57408L18.5494 6.3462L15.1894 2.0262L13.6107 3.25408ZM3.36002 7.96014H19.68V5.96014H3.36002V7.96014ZM19.68 20.3601H3.36002V22.3601H19.68V20.3601ZM3.40002 20.4001V7.92014H1.40002V20.4001H3.40002ZM3.36002 20.3601C3.38212 20.3601 3.40002 20.378 3.40002 20.4001H1.40002C1.40002 21.4826 2.27754 22.3601 3.36002 22.3601V20.3601ZM19.64 20.4001C19.64 20.378 19.6579 20.3601 19.68 20.3601V22.3601C20.7625 22.3601 21.64 21.4826 21.64 20.4001H19.64ZM19.68 7.96014C19.6579 7.96014 19.64 7.94223 19.64 7.92014H21.64C21.64 6.83766 20.7625 5.96014 19.68 5.96014V7.96014ZM3.36002 5.96014C2.27755 5.96014 1.40002 6.83766 1.40002 7.92014H3.40002C3.40002 7.94223 3.38212 7.96014 3.36002 7.96014V5.96014ZM19.64 17.2801V20.4001H21.64V17.2801H19.64ZM19.64 7.92014V10.4401H21.64V7.92014H19.64Z" fill="black"/>
</svg>
