<svg width="24" height="24" viewBox="0 0 24 24" fill="none" xmlns="http://www.w3.org/2000/svg">
<path d="M8.1199 12C8.1199 13.3034 7.06329 14.36 5.7599 14.36V16.36C8.16786 16.36 10.1199 14.408 10.1199 12H8.1199ZM5.7599 14.36C4.45651 14.36 3.3999 13.3034 3.3999 12H1.3999C1.3999 14.408 3.35194 16.36 5.7599 16.36V14.36ZM3.3999 12C3.3999 10.6966 4.45651 9.64001 5.7599 9.64001V7.64001C3.35194 7.64001 1.3999 9.59205 1.3999 12H3.3999ZM5.7599 9.64001C7.06329 9.64001 8.1199 10.6966 8.1199 12H10.1199C10.1199 9.59205 8.16786 7.64001 5.7599 7.64001V9.64001ZM9.95504 11.7807C10.3646 11.0727 11.1276 10.6 11.9999 10.6V8.60001C10.3848 8.60001 8.97618 9.47869 8.22383 10.7793L9.95504 11.7807ZM11.9999 10.6C12.8722 10.6 13.6352 11.0727 14.0448 11.7807L15.776 10.7793C15.0237 9.47869 13.615 8.60001 11.9999 8.60001V10.6ZM20.5999 12C20.5999 13.3034 19.5433 14.36 18.2399 14.36V16.36C20.6479 16.36 22.5999 14.408 22.5999 12H20.5999ZM18.2399 14.36C16.9365 14.36 15.8799 13.3034 15.8799 12H13.8799C13.8799 14.408 15.8319 16.36 18.2399 16.36V14.36ZM15.8799 12C15.8799 10.6966 16.9365 9.64001 18.2399 9.64001V7.64001C15.8319 7.64001 13.8799 9.59205 13.8799 12H15.8799ZM18.2399 9.64001C19.5433 9.64001 20.5999 10.6966 20.5999 12H22.5999C22.5999 9.59205 20.6479 7.64001 18.2399 7.64001V9.64001Z" fill="black"/>
</svg>
