<svg width="24" height="24" viewBox="0 0 24 24" fill="none" xmlns="http://www.w3.org/2000/svg">
<path d="M9.70709 11.8929C9.31657 11.5024 8.68341 11.5024 8.29288 11.8929C7.90236 12.2834 7.90236 12.9166 8.29288 13.3071L9.70709 11.8929ZM10.8 14.4L10.0929 15.1071C10.4834 15.4977 11.1166 15.4977 11.5071 15.1071L10.8 14.4ZM15.7071 10.9071C16.0976 10.5166 16.0976 9.88344 15.7071 9.49292C15.3166 9.10239 14.6834 9.10239 14.2929 9.49292L15.7071 10.9071ZM6.56309 19.6191C6.95362 19.2286 6.95362 18.5954 6.56309 18.2049C6.17257 17.8144 5.53941 17.8144 5.14888 18.2049L6.56309 19.6191ZM2.46088 20.8929C2.07036 21.2834 2.07036 21.9166 2.46088 22.3071C2.85141 22.6977 3.48457 22.6977 3.8751 22.3071L2.46088 20.8929ZM20.1249 22.3071C20.5154 22.6977 21.1486 22.6977 21.5391 22.3071C21.9296 21.9166 21.9296 21.2834 21.5391 20.8929L20.1249 22.3071ZM18.8511 18.2049C18.4606 17.8144 17.8274 17.8144 17.4369 18.2049C17.0464 18.5954 17.0464 19.2286 17.4369 19.6191L18.8511 18.2049ZM5.5071 3.10713C5.89762 2.71661 5.89762 2.08344 5.5071 1.69292C5.11657 1.30239 4.48341 1.30239 4.09288 1.69292L5.5071 3.10713ZM1.09288 4.69292C0.702357 5.08344 0.702357 5.71661 1.09288 6.10713C1.48341 6.49765 2.11657 6.49765 2.50709 6.10713L1.09288 4.69292ZM21.4929 6.10713C21.8834 6.49766 22.5166 6.49765 22.9071 6.10713C23.2976 5.71661 23.2976 5.08344 22.9071 4.69292L21.4929 6.10713ZM19.9071 1.69292C19.5166 1.30239 18.8834 1.30239 18.4929 1.69292C18.1024 2.08344 18.1024 2.71661 18.4929 3.10713L19.9071 1.69292ZM8.29288 13.3071L10.0929 15.1071L11.5071 13.6929L9.70709 11.8929L8.29288 13.3071ZM11.5071 15.1071L15.7071 10.9071L14.2929 9.49292L10.0929 13.6929L11.5071 15.1071ZM5.14888 18.2049L2.46088 20.8929L3.8751 22.3071L6.56309 19.6191L5.14888 18.2049ZM21.5391 20.8929L18.8511 18.2049L17.4369 19.6191L20.1249 22.3071L21.5391 20.8929ZM19.448 12.768C19.448 16.8814 16.1134 20.216 12 20.216V22.216C17.218 22.216 21.448 17.986 21.448 12.768H19.448ZM12 20.216C7.88657 20.216 4.55199 16.8814 4.55199 12.768H2.55199C2.55199 17.986 6.782 22.216 12 22.216V20.216ZM4.55199 12.768C4.55199 8.65461 7.88657 5.32002 12 5.32002V3.32002C6.782 3.32002 2.55199 7.55004 2.55199 12.768H4.55199ZM12 5.32002C16.1134 5.32002 19.448 8.65461 19.448 12.768H21.448C21.448 7.55004 17.218 3.32002 12 3.32002V5.32002ZM4.09288 1.69292L1.09288 4.69292L2.50709 6.10713L5.5071 3.10713L4.09288 1.69292ZM22.9071 4.69292L19.9071 1.69292L18.4929 3.10713L21.4929 6.10713L22.9071 4.69292Z" fill="black"/>
</svg>
