<svg width="25" height="24" viewBox="0 0 25 24" fill="none" xmlns="http://www.w3.org/2000/svg">
<path d="M2.65002 7.00802V6.24002C2.65002 5.37539 2.93579 4.5775 3.41802 3.93565M17.242 2.40002L18.01 2.40002C20.1308 2.40002 21.85 4.11925 21.85 6.24002V7.00802M6.10602 18.912L3.41802 21.6M21.082 21.6L3.80202 3.49771M9.85002 4.6658C10.6108 4.4408 11.4163 4.32002 12.25 4.32002C16.9157 4.32002 20.698 8.10232 20.698 12.768C20.698 14.105 20.3875 15.3694 19.8345 16.4931M18.01 18.948C16.501 20.3551 14.4761 21.216 12.25 21.216C7.58432 21.216 3.80202 17.4337 3.80202 12.768C3.80202 10.542 4.66299 8.51705 6.07008 7.00802" stroke="black" stroke-width="2" stroke-linecap="round" stroke-linejoin="round"/>
</svg>
