<svg width="25" height="24" viewBox="0 0 25 24" fill="none" xmlns="http://www.w3.org/2000/svg">
<path d="M1.65002 7.00802C1.65002 7.56031 2.09774 8.00802 2.65002 8.00802C3.20231 8.00802 3.65002 7.56031 3.65002 7.00802H1.65002ZM7.25802 3.40002C7.81031 3.40002 8.25802 2.95231 8.25802 2.40002C8.25802 1.84774 7.81031 1.40002 7.25802 1.40002V3.40002ZM17.242 1.40002C16.6897 1.40002 16.242 1.84774 16.242 2.40002C16.242 2.95231 16.6897 3.40002 17.242 3.40002L17.242 1.40002ZM18.01 2.40002L18.01 1.40002L18.01 2.40002ZM21.85 6.24002L20.85 6.24002V6.24002H21.85ZM20.85 7.00802C20.85 7.56031 21.2977 8.00802 21.85 8.00802C22.4023 8.00802 22.85 7.56031 22.85 7.00802H20.85ZM6.81313 19.6191C7.20365 19.2286 7.20365 18.5954 6.81313 18.2049C6.42261 17.8144 5.78944 17.8144 5.39892 18.2049L6.81313 19.6191ZM2.71092 20.8929C2.32039 21.2834 2.32039 21.9166 2.71092 22.3071C3.10144 22.6977 3.73461 22.6977 4.12513 22.3071L2.71092 20.8929ZM20.3749 22.3071C20.7654 22.6977 21.3986 22.6977 21.7891 22.3071C22.1797 21.9166 22.1797 21.2834 21.7891 20.8929L20.3749 22.3071ZM19.1011 18.2049C18.7106 17.8144 18.0774 17.8144 17.6869 18.2049C17.2964 18.5954 17.2964 19.2286 17.6869 19.6191L19.1011 18.2049ZM13.25 9.60002C13.25 9.04774 12.8023 8.60002 12.25 8.60002C11.6977 8.60002 11.25 9.04774 11.25 9.60002H13.25ZM11.25 15.6C11.25 16.1523 11.6977 16.6 12.25 16.6C12.8023 16.6 13.25 16.1523 13.25 15.6H11.25ZM15.25 13.6C15.8023 13.6 16.25 13.1523 16.25 12.6C16.25 12.0477 15.8023 11.6 15.25 11.6V13.6ZM9.25002 11.6C8.69774 11.6 8.25002 12.0477 8.25002 12.6C8.25002 13.1523 8.69774 13.6 9.25002 13.6V11.6ZM3.65002 7.00802V6.24002H1.65002V7.00802H3.65002ZM6.49002 3.40002H7.25802V1.40002H6.49002V3.40002ZM3.65002 6.24002C3.65002 4.67154 4.92154 3.40002 6.49002 3.40002V1.40002C3.81697 1.40002 1.65002 3.56697 1.65002 6.24002H3.65002ZM17.242 3.40002L18.01 3.40002L18.01 1.40002L17.242 1.40002L17.242 3.40002ZM20.85 6.24002V7.00802H22.85V6.24002H20.85ZM18.01 3.40002C19.5785 3.40002 20.85 4.67154 20.85 6.24002L22.85 6.24002C22.85 3.56697 20.6831 1.40002 18.01 1.40002L18.01 3.40002ZM5.39892 18.2049L2.71092 20.8929L4.12513 22.3071L6.81313 19.6191L5.39892 18.2049ZM21.7891 20.8929L19.1011 18.2049L17.6869 19.6191L20.3749 22.3071L21.7891 20.8929ZM19.698 12.768C19.698 16.8814 16.3634 20.216 12.25 20.216V22.216C17.468 22.216 21.698 17.986 21.698 12.768H19.698ZM12.25 20.216C8.13661 20.216 4.80202 16.8814 4.80202 12.768H2.80202C2.80202 17.986 7.03204 22.216 12.25 22.216V20.216ZM4.80202 12.768C4.80202 8.65461 8.13661 5.32002 12.25 5.32002V3.32002C7.03204 3.32002 2.80202 7.55004 2.80202 12.768H4.80202ZM12.25 5.32002C16.3634 5.32002 19.698 8.65461 19.698 12.768H21.698C21.698 7.55004 17.468 3.32002 12.25 3.32002V5.32002ZM11.25 9.60002V12.6H13.25V9.60002H11.25ZM11.25 12.6V15.6H13.25V12.6H11.25ZM15.25 11.6H12.25V13.6H15.25V11.6ZM12.25 11.6H9.25002V13.6H12.25V11.6Z" fill="black"/>
</svg>
