<svg width="24" height="24" viewBox="0 0 24 24" fill="none" xmlns="http://www.w3.org/2000/svg">
<path d="M1.40002 7.0079C1.40002 7.56019 1.84774 8.0079 2.40002 8.0079C2.95231 8.0079 3.40002 7.56019 3.40002 7.0079H1.40002ZM7.00802 3.3999C7.56031 3.3999 8.00802 2.95219 8.00802 2.3999C8.00802 1.84762 7.56031 1.3999 7.00802 1.3999V3.3999ZM16.992 1.3999C16.4397 1.3999 15.992 1.84762 15.992 2.3999C15.992 2.95219 16.4397 3.3999 16.992 3.3999L16.992 1.3999ZM17.76 2.3999L17.76 1.3999L17.76 2.3999ZM21.6 6.2399L20.6 6.2399V6.2399H21.6ZM20.6 7.0079C20.6 7.56019 21.0477 8.0079 21.6 8.0079C22.1523 8.0079 22.6 7.56019 22.6 7.0079H20.6ZM6.56313 19.619C6.95365 19.2285 6.95365 18.5953 6.56313 18.2048C6.17261 17.8143 5.53944 17.8143 5.14892 18.2048L6.56313 19.619ZM2.46092 20.8928C2.07039 21.2833 2.07039 21.9165 2.46092 22.307C2.85144 22.6975 3.48461 22.6975 3.87513 22.307L2.46092 20.8928ZM20.1249 22.307C20.5154 22.6975 21.1486 22.6975 21.5391 22.307C21.9297 21.9165 21.9297 21.2833 21.5391 20.8928L20.1249 22.307ZM18.8511 18.2048C18.4606 17.8143 17.8274 17.8143 17.4369 18.2048C17.0464 18.5953 17.0464 19.2285 17.4369 19.619L18.8511 18.2048ZM9.70713 11.8928C9.31661 11.5023 8.68344 11.5023 8.29292 11.8928C7.90239 12.2833 7.90239 12.9165 8.29292 13.307L9.70713 11.8928ZM10.8 14.3999L10.0929 15.107C10.4834 15.4975 11.1166 15.4975 11.5071 15.107L10.8 14.3999ZM15.7071 10.907C16.0977 10.5165 16.0977 9.88332 15.7071 9.49279C15.3166 9.10227 14.6834 9.10227 14.2929 9.49279L15.7071 10.907ZM3.40002 7.0079V6.2399H1.40002V7.0079H3.40002ZM6.24002 3.3999H7.00802V1.3999H6.24002V3.3999ZM3.40002 6.2399C3.40002 4.67141 4.67154 3.3999 6.24002 3.3999V1.3999C3.56697 1.3999 1.40002 3.56684 1.40002 6.2399H3.40002ZM16.992 3.3999L17.76 3.3999L17.76 1.3999L16.992 1.3999L16.992 3.3999ZM20.6 6.2399V7.0079H22.6V6.2399H20.6ZM17.76 3.3999C19.3285 3.3999 20.6 4.67141 20.6 6.2399L22.6 6.2399C22.6 3.56684 20.4331 1.3999 17.76 1.3999L17.76 3.3999ZM5.14892 18.2048L2.46092 20.8928L3.87513 22.307L6.56313 19.619L5.14892 18.2048ZM21.5391 20.8928L18.8511 18.2048L17.4369 19.619L20.1249 22.307L21.5391 20.8928ZM19.448 12.7679C19.448 16.8813 16.1134 20.2159 12 20.2159V22.2159C17.218 22.2159 21.448 17.9859 21.448 12.7679H19.448ZM12 20.2159C7.88661 20.2159 4.55202 16.8813 4.55202 12.7679H2.55202C2.55202 17.9859 6.78204 22.2159 12 22.2159V20.2159ZM4.55202 12.7679C4.55202 8.65448 7.88661 5.3199 12 5.3199V3.3199C6.78204 3.3199 2.55202 7.54991 2.55202 12.7679H4.55202ZM12 5.3199C16.1134 5.3199 19.448 8.65448 19.448 12.7679H21.448C21.448 7.54991 17.218 3.3199 12 3.3199V5.3199ZM8.29292 13.307L10.0929 15.107L11.5071 13.6928L9.70713 11.8928L8.29292 13.307ZM11.5071 15.107L15.7071 10.907L14.2929 9.49279L10.0929 13.6928L11.5071 15.107Z" fill="black"/>
</svg>
