<svg width="24" height="24" viewBox="0 0 24 24" fill="none" xmlns="http://www.w3.org/2000/svg">
<path d="M2.40002 3.68696L21 22.287M18.2609 6.85217L20.3478 4.76522M20.3478 4.76522L19.0957 3.51304M20.3478 4.76522L21.6 6.01739M9.50002 2H14.5M5.42172 8C4.22071 9.47819 3.50002 11.3685 3.50002 13.4286C3.50002 18.1624 7.3056 22 12 22C14.0975 22 16.0176 21.2339 17.5 19.964M20 16.3319C20.3237 15.4252 20.5 14.4477 20.5 13.4286C20.5 8.6947 16.6944 4.85714 12 4.85714C10.944 4.85714 9.93291 5.05135 9.00002 5.40627" stroke="black" stroke-width="2" stroke-linecap="round" stroke-linejoin="round"/>
</svg>
