<svg width="25" height="24" viewBox="0 0 25 24" fill="none" xmlns="http://www.w3.org/2000/svg">
<path d="M13.8701 14.2565C13.8701 14.9737 13.2887 15.5552 12.5714 15.5552C11.8542 15.5552 11.2727 14.9737 11.2727 14.2565C11.2727 13.5392 11.8542 12.9578 12.5714 12.9578C13.2887 12.9578 13.8701 13.5392 13.8701 14.2565Z" fill="#D9D9D9"/>
<path d="M20.2915 3.37082C19.901 2.98029 19.2678 2.98029 18.8773 3.37082C18.4868 3.76134 18.4868 4.3945 18.8773 4.78503L20.2915 3.37082ZM21.215 7.12269C21.6055 7.51322 22.2387 7.51322 22.6292 7.12269C23.0197 6.73217 23.0197 6.099 22.6292 5.70848L21.215 7.12269ZM13.5714 9.84091C13.5714 9.28862 13.1237 8.84091 12.5714 8.84091C12.0191 8.84091 11.5714 9.28862 11.5714 9.84091H13.5714ZM11.5714 13.2175C11.5714 13.7698 12.0191 14.2175 12.5714 14.2175C13.1237 14.2175 13.5714 13.7698 13.5714 13.2175H11.5714ZM9.97403 1C9.42174 1 8.97403 1.44772 8.97403 2C8.97403 2.55228 9.42174 3 9.97403 3V1ZM14.9091 3C15.4614 3 15.9091 2.55228 15.9091 2C15.9091 1.44772 15.4614 1 14.9091 1V3ZM18.0981 6.4877C17.7076 6.87822 17.7076 7.51139 18.0981 7.90191C18.4886 8.29244 19.1218 8.29244 19.5123 7.90191L18.0981 6.4877ZM20.7532 5.24675L21.4604 4.53965L21.4604 4.53965L20.7532 5.24675ZM11.5714 9.84091V13.2175H13.5714V9.84091H11.5714ZM9.97403 3H14.9091V1H9.97403V3ZM19.5123 7.90191L21.4604 5.95386L20.0461 4.53965L18.0981 6.4877L19.5123 7.90191ZM20.1429 13.4286C20.1429 17.6102 16.753 21 12.5714 21V23C17.8576 23 22.1429 18.7147 22.1429 13.4286H20.1429ZM12.5714 21C8.38984 21 5 17.6102 5 13.4286H3C3 18.7147 7.28527 23 12.5714 23V21ZM5 13.4286C5 9.24699 8.38984 5.85714 12.5714 5.85714V3.85714C7.28527 3.85714 3 8.14242 3 13.4286H5ZM12.5714 5.85714C16.753 5.85714 20.1429 9.24699 20.1429 13.4286H22.1429C22.1429 8.14242 17.8576 3.85714 12.5714 3.85714V5.85714ZM12.8701 14.2565C12.8701 14.4215 12.7364 14.5552 12.5714 14.5552V16.5552C13.841 16.5552 14.8701 15.526 14.8701 14.2565H12.8701ZM12.5714 14.5552C12.4065 14.5552 12.2727 14.4215 12.2727 14.2565H10.2727C10.2727 15.526 11.3019 16.5552 12.5714 16.5552V14.5552ZM12.2727 14.2565C12.2727 14.0915 12.4065 13.9578 12.5714 13.9578V11.9578C11.3019 11.9578 10.2727 12.987 10.2727 14.2565H12.2727ZM12.5714 13.9578C12.7364 13.9578 12.8701 14.0915 12.8701 14.2565H14.8701C14.8701 12.987 13.841 11.9578 12.5714 11.9578V13.9578ZM18.8773 4.78503L20.0461 5.95386L21.4604 4.53965L20.2915 3.37082L18.8773 4.78503ZM20.0461 5.95386L21.215 7.12269L22.6292 5.70848L21.4604 4.53965L20.0461 5.95386Z" fill="black"/>
</svg>
