<svg width="24" height="24" viewBox="0 0 24 24" fill="none" xmlns="http://www.w3.org/2000/svg">
<path d="M15.8632 18.0411L14.9893 20.6628C14.9222 20.8642 14.7337 21 14.5215 21H9.31453C9.10226 21 8.91381 20.8642 8.84669 20.6628L7.97279 18.0411M7.97279 5.9589L8.84669 3.3372C8.91381 3.13583 9.10226 3 9.31453 3H14.5215C14.7337 3 14.9222 3.13583 14.9893 3.3372L15.8632 5.9589M7.47964 18.0411H16.3563C17.1734 18.0411 17.8358 17.3787 17.8358 16.5616V7.68493C17.8358 6.86785 17.1734 6.20548 16.3563 6.20548H7.47964C6.66256 6.20548 6.00018 6.86785 6.00018 7.68493V16.5616C6.00018 17.3787 6.66256 18.0411 7.47964 18.0411Z" stroke="black" stroke-width="2" stroke-linecap="round"/>
</svg>
