<svg width="24" height="24" viewBox="0 0 24 24" fill="none" xmlns="http://www.w3.org/2000/svg">
<path d="M22.5992 12.6C22.5992 12.0478 22.1515 11.6 21.5992 11.6C21.0469 11.6 20.5992 12.0478 20.5992 12.6H22.5992ZM20.7837 16.478L19.8691 16.0737C19.7934 16.2449 19.7672 16.434 19.7937 16.6194L20.7837 16.478ZM16.6981 20.9734L16.9406 20.0033C16.6927 19.9413 16.4306 19.9766 16.2079 20.1018L16.6981 20.9734ZM21.601 22.1991L21.3585 23.1693C21.6815 23.25 22.0235 23.1647 22.2707 22.9417C22.518 22.7187 22.638 22.3873 22.5909 22.0577L21.601 22.1991ZM10.3855 4.151C10.9281 4.04807 11.2846 3.52476 11.1816 2.98215C11.0787 2.43955 10.5554 2.08311 10.0128 2.18604L10.3855 4.151ZM20.5992 12.6C20.5992 13.8382 20.3381 15.0127 19.8691 16.0737L21.6983 16.8824C22.2778 15.5715 22.5992 14.122 22.5992 12.6H20.5992ZM11.9992 21.2C7.24952 21.2 3.39917 17.3497 3.39917 12.6H1.39917C1.39917 18.4543 6.14495 23.2 11.9992 23.2V21.2ZM16.2079 20.1018C14.9647 20.8009 13.5301 21.2 11.9992 21.2V23.2C13.8823 23.2 15.6535 22.7081 17.1882 21.845L16.2079 20.1018ZM21.8435 21.229L16.9406 20.0033L16.4555 21.9436L21.3585 23.1693L21.8435 21.229ZM19.7937 16.6194L20.611 22.3406L22.5909 22.0577L21.7736 16.3366L19.7937 16.6194ZM3.39917 12.6C3.39917 8.40265 6.40721 4.90567 10.3855 4.151L10.0128 2.18604C5.10803 3.11645 1.39917 7.42405 1.39917 12.6H3.39917ZM20.5992 5.40005C20.5992 6.83599 19.4351 8.00005 17.9992 8.00005V10C20.5397 10 22.5992 7.94056 22.5992 5.40005H20.5992ZM17.9992 8.00005C16.5632 8.00005 15.3992 6.83599 15.3992 5.40005H13.3992C13.3992 7.94056 15.4587 10 17.9992 10V8.00005ZM15.3992 5.40005C15.3992 3.96411 16.5632 2.80005 17.9992 2.80005V0.800049C15.4587 0.800049 13.3992 2.85954 13.3992 5.40005H15.3992ZM17.9992 2.80005C19.4351 2.80005 20.5992 3.96411 20.5992 5.40005H22.5992C22.5992 2.85954 20.5397 0.800049 17.9992 0.800049V2.80005Z" fill="black"/>
</svg>
