<svg width="24" height="24" viewBox="0 0 24 24" fill="none" xmlns="http://www.w3.org/2000/svg">
<path d="M11.6869 17.1914V16.1914C11.4216 16.1914 11.1673 16.2967 10.9798 16.4842L11.6869 17.1914ZM6.67816 22.2H5.67816C5.67816 22.6045 5.9218 22.9691 6.29548 23.1239C6.66915 23.2787 7.09927 23.1932 7.38527 22.9072L6.67816 22.2ZM6.67816 17.1914H7.67816C7.67816 16.6391 7.23045 16.1914 6.67816 16.1914V17.1914ZM10.7999 4.00005C11.3522 4.00005 11.7999 3.55233 11.7999 3.00005C11.7999 2.44776 11.3522 2.00005 10.7999 2.00005V4.00005ZM22.5999 12C22.5999 11.4478 22.1522 11 21.5999 11C21.0476 11 20.5999 11.4478 20.5999 12H22.5999ZM10.9798 16.4842L5.97106 21.4929L7.38527 22.9072L12.394 17.8985L10.9798 16.4842ZM7.67816 22.2V17.1914H5.67816V22.2H7.67816ZM6.67816 16.1914H4.7999V18.1914H6.67816V16.1914ZM3.3999 14.7914V5.40005H1.3999V14.7914H3.3999ZM19.1999 16.1914H11.6869V18.1914H19.1999V16.1914ZM4.7999 4.00005H10.7999V2.00005H4.7999V4.00005ZM20.5999 12V14.7914H22.5999V12H20.5999ZM19.1999 18.1914C21.0777 18.1914 22.5999 16.6691 22.5999 14.7914H20.5999C20.5999 15.5646 19.9731 16.1914 19.1999 16.1914V18.1914ZM3.3999 5.40005C3.3999 4.62685 4.0267 4.00005 4.7999 4.00005V2.00005C2.92213 2.00005 1.3999 3.52228 1.3999 5.40005H3.3999ZM4.7999 16.1914C4.0267 16.1914 3.3999 15.5646 3.3999 14.7914H1.3999C1.3999 16.6691 2.92214 18.1914 4.7999 18.1914V16.1914ZM20.5999 5.40005C20.5999 6.83599 19.4358 8.00005 17.9999 8.00005V10C20.5404 10 22.5999 7.94056 22.5999 5.40005H20.5999ZM17.9999 8.00005C16.564 8.00005 15.3999 6.83599 15.3999 5.40005H13.3999C13.3999 7.94056 15.4594 10 17.9999 10V8.00005ZM15.3999 5.40005C15.3999 3.96411 16.564 2.80005 17.9999 2.80005V0.800049C15.4594 0.800049 13.3999 2.85954 13.3999 5.40005H15.3999ZM17.9999 2.80005C19.4358 2.80005 20.5999 3.96411 20.5999 5.40005H22.5999C22.5999 2.85954 20.5404 0.800049 17.9999 0.800049V2.80005Z" fill="black"/>
</svg>
