<svg width="26" height="24" viewBox="0 0 26 24" fill="none" xmlns="http://www.w3.org/2000/svg">
<path d="M9.31837 16.3569L12.9184 12.7569M12.9184 12.7569L16.3592 16.1942M12.9184 12.7569L12.9184 21.6001M1.83291 9.51115C1.83302 8.72829 1.82865 7.80975 1.8089 7.56431C1.78632 6.86879 2.0132 6.30282 2.53289 5.78313C3.58546 4.85688 6.06583 3.81271 6.06583 3.81271C6.06583 3.81271 9.31998 2.40007 12.7621 2.40015C16.1461 2.40022 19.3513 3.47298 21.2107 4.32636C22.3484 4.84435 23.1066 5.37605 23.665 6.03441C24.0207 6.45669 24.1932 6.92908 24.1927 7.48152L24.1732 9.59295C24.1671 10.2585 23.6204 10.7919 22.9549 10.7817L19.9437 10.7357C19.2882 10.7257 18.7621 10.1915 18.7621 9.53588V8.30175C18.7621 8.01142 18.5553 7.76336 18.2687 7.71678C17.1987 7.54286 14.6124 7.16075 12.7608 7.20015C11.1183 7.2351 8.85171 7.56392 7.86016 7.71943C7.57136 7.76472 7.36206 8.01394 7.36206 8.30627V9.51768C7.36206 10.1804 6.8248 10.7177 6.16206 10.7177L3.0365 10.7177C2.37109 10.7177 1.83282 10.1766 1.83291 9.51115Z" stroke="black" stroke-width="2" stroke-linecap="round" stroke-linejoin="round"/>
</svg>
