<svg width="24" height="24" viewBox="0 0 24 24" fill="none" xmlns="http://www.w3.org/2000/svg">
<path d="M8.39196 10.9583L8.14301 11.9268C8.62689 12.0511 9.12833 11.7993 9.3175 11.3369L8.39196 10.9583ZM3.91997 10.9688C4.13688 11.4767 4.72447 11.7126 5.23237 11.4957C5.74027 11.2788 5.97616 10.6912 5.75924 10.1833L3.91997 10.9688ZM6.73635 5.85138L6.34359 4.93174L6.73635 5.85138ZM5.58106 5.69236C5.79797 6.20026 6.38556 6.43615 6.89346 6.21923C7.40136 6.00232 7.63725 5.41473 7.42034 4.90683L5.58106 5.69236ZM6.71336 3.25148C6.49644 2.74358 5.90886 2.50769 5.40096 2.72461C4.89305 2.94152 4.65716 3.52911 4.87408 4.03701L6.71336 3.25148ZM9.01655 4.88917C8.81079 5.40169 9.05947 5.98398 9.572 6.18974C10.0845 6.39549 10.6668 6.14681 10.8726 5.63428L9.01655 4.88917ZM11.5432 3.96387C11.7489 3.45134 11.5002 2.86906 10.9877 2.6633C10.4752 2.45754 9.8929 2.70623 9.68715 3.21875L11.5432 3.96387ZM2.79415 6.16265C2.28162 5.95689 1.69934 6.20558 1.49358 6.7181C1.28782 7.23063 1.53651 7.81291 2.04903 8.01867L2.79415 6.16265ZM3.71945 8.68927C4.23198 8.89503 4.81426 8.64634 5.02002 8.13382C5.22577 7.62129 4.97709 7.03901 4.46456 6.83325L3.71945 8.68927ZM10.0651 7.4018C10.4389 7.80838 11.0715 7.83498 11.4781 7.4612C11.8847 7.08743 11.9113 6.45482 11.5375 6.04824L10.0651 7.4018ZM20.6 13.5518C20.6 16.7864 17.978 19.4089 14.7429 19.4089V21.4089C19.0827 21.4089 22.6 17.8908 22.6 13.5518H20.6ZM14.7429 7.69464C17.978 7.69464 20.6 10.3172 20.6 13.5518H22.6C22.6 9.21273 19.0827 5.69464 14.7429 5.69464V7.69464ZM9.3175 11.3369C10.1923 9.1986 12.294 7.69464 14.7429 7.69464V5.69464C11.4542 5.69464 8.63806 7.71567 7.46642 10.5796L9.3175 11.3369ZM7.19999 11.8089C7.52879 11.8089 7.84424 11.85 8.14301 11.9268L8.64091 9.98974C8.17896 9.871 7.6962 9.80892 7.19999 9.80892V11.8089ZM3.39999 15.6089C3.39999 13.51 5.10058 11.8089 7.19999 11.8089V9.80892C3.99583 9.80892 1.39999 12.4056 1.39999 15.6089H3.39999ZM7.19999 19.4089C5.10058 19.4089 3.39999 17.7078 3.39999 15.6089H1.39999C1.39999 18.8122 3.99583 21.4089 7.19999 21.4089V19.4089ZM14.7429 19.4089H7.19999V21.4089H14.7429V19.4089ZM5.75924 10.1833C5.19526 8.86272 5.80857 7.335 7.12912 6.77102L6.34359 4.93174C4.00724 5.92956 2.92214 8.63244 3.91997 10.9688L5.75924 10.1833ZM7.42034 4.90683L6.71336 3.25148L4.87408 4.03701L5.58106 5.69236L7.42034 4.90683ZM10.8726 5.63428L11.5432 3.96387L9.68715 3.21875L9.01655 4.88917L10.8726 5.63428ZM2.04903 8.01867L3.71945 8.68927L4.46456 6.83325L2.79415 6.16265L2.04903 8.01867ZM7.12912 6.77102C8.16877 6.327 9.33928 6.61225 10.0651 7.4018L11.5375 6.04824C10.256 4.65426 8.18694 4.14447 6.34359 4.93174L7.12912 6.77102Z" fill="black"/>
</svg>
