<svg width="24" height="24" viewBox="0 0 24 24" fill="none" xmlns="http://www.w3.org/2000/svg">
<path d="M8.91667 19.3636C8.91667 18.8114 8.46895 18.3636 7.91667 18.3636C7.36438 18.3636 6.91667 18.8114 6.91667 19.3636H8.91667ZM6.91667 21C6.91667 21.5523 7.36438 22 7.91667 22C8.46895 22 8.91667 21.5523 8.91667 21H6.91667ZM15.6667 21C15.6667 21.5523 16.1144 22 16.6667 22C17.219 22 17.6667 21.5523 17.6667 21H15.6667ZM10.6667 6.27273C10.6667 5.72044 10.219 5.27273 9.66667 5.27273C9.11438 5.27273 8.66667 5.72044 8.66667 6.27273L10.6667 6.27273ZM8.66667 16.0909C8.66667 16.6432 9.11438 17.0909 9.66667 17.0909C10.219 17.0909 10.6667 16.6432 10.6667 16.0909L8.66667 16.0909ZM15.3333 6.27273C15.3333 5.72044 14.8856 5.27273 14.3333 5.27273C13.781 5.27273 13.3333 5.72044 13.3333 6.27273H15.3333ZM13.3333 16.0909C13.3333 16.6432 13.781 17.0909 14.3333 17.0909C14.8856 17.0909 15.3333 16.6432 15.3333 16.0909H13.3333ZM6.91667 19.3636V21H8.91667V19.3636H6.91667ZM15.6667 19.3636V21H17.6667V19.3636H15.6667ZM8.66667 6.27273L8.66667 16.0909L10.6667 16.0909L10.6667 6.27273L8.66667 6.27273ZM13.3333 6.27273V16.0909H15.3333V6.27273H13.3333ZM7.33333 4H16.6667V2H7.33333V4ZM18 5.18182V17.1818H20V5.18182H18ZM16.6667 18.3636H7.33333V20.3636H16.6667V18.3636ZM6 17.1818V5.18182H4V17.1818H6ZM7.33333 18.3636C6.53265 18.3636 6 17.7723 6 17.1818H4C4 19.0013 5.55669 20.3636 7.33333 20.3636V18.3636ZM18 17.1818C18 17.7723 17.4673 18.3636 16.6667 18.3636V20.3636C18.4433 20.3636 20 19.0013 20 17.1818H18ZM16.6667 4C17.4673 4 18 4.5913 18 5.18182H20C20 3.36237 18.4433 2 16.6667 2V4ZM7.33333 2C5.55669 2 4 3.36237 4 5.18182H6C6 4.5913 6.53265 4 7.33333 4V2Z" fill="black"/>
</svg>
