<svg width="24" height="24" viewBox="0 0 24 24" fill="none" xmlns="http://www.w3.org/2000/svg">
<path d="M9.59999 16.7999H14.4M6.79999 21.5999H17.2C18.3046 21.5999 19.2 20.7045 19.2 19.5999V4.3999C19.2 3.29533 18.3046 2.3999 17.2 2.3999H6.79999C5.69542 2.3999 4.79999 3.29533 4.79999 4.3999V19.5999C4.79999 20.7045 5.69542 21.5999 6.79999 21.5999ZM14.4 8.3999C14.4 9.72539 13.3255 10.7999 12 10.7999C10.6745 10.7999 9.59999 9.72539 9.59999 8.3999C9.59999 7.07442 10.6745 5.9999 12 5.9999C13.3255 5.9999 14.4 7.07442 14.4 8.3999Z" stroke="black" stroke-width="2" stroke-linecap="round" stroke-linejoin="round"/>
</svg>
