<svg width="24" height="24" viewBox="0 0 24 24" fill="none" xmlns="http://www.w3.org/2000/svg">
<path d="M6.60005 13.9527L7.17215 14.7729C7.44027 14.5859 7.60005 14.2796 7.60005 13.9527H6.60005ZM11.4 13.9527H10.4C10.4 14.2372 10.5212 14.5081 10.7331 14.6979L11.4 13.9527ZM9.00005 16.3999C8.44776 16.3999 8.00005 16.8476 8.00005 17.3999C8.00005 17.9522 8.44776 18.3999 9.00005 18.3999V16.3999ZM9.0563 18.3999C9.60858 18.3999 10.0563 17.9522 10.0563 17.3999C10.0563 16.8476 9.60858 16.3999 9.0563 16.3999V18.3999ZM12.2 17.3999C12.2 19.1672 10.7674 20.5999 9.00005 20.5999V22.5999C11.8719 22.5999 14.2 20.2718 14.2 17.3999H12.2ZM9.00005 20.5999C7.23274 20.5999 5.80005 19.1672 5.80005 17.3999H3.80005C3.80005 20.2718 6.12817 22.5999 9.00005 22.5999V20.5999ZM5.80005 17.3999C5.80005 16.3133 6.34068 15.3529 7.17215 14.7729L6.02795 13.1325C4.68323 14.0705 3.80005 15.632 3.80005 17.3999H5.80005ZM10.7331 14.6979C11.078 15.0065 11.4596 15.4701 11.7503 15.9878C12.0462 16.5149 12.2 17.0122 12.2 17.3999H14.2C14.2 16.5437 13.8835 15.7019 13.4942 15.0087C13.0997 14.306 12.5814 13.668 12.067 13.2076L10.7331 14.6979ZM10.4 4.7999V13.9527H12.4V4.7999H10.4ZM7.60005 13.9527V4.79833H5.60005V13.9527H7.60005ZM9.00005 3.3999C9.77325 3.3999 10.4 4.0267 10.4 4.7999H12.4C12.4 2.92213 10.8778 1.3999 9.00005 1.3999V3.3999ZM9.00005 1.3999C7.12313 1.3999 5.60005 2.91971 5.60005 4.79833H7.60005C7.60005 4.02599 8.226 3.3999 9.00005 3.3999V1.3999ZM9.00005 18.3999H9.0563V16.3999H9.00005V18.3999ZM18.2 7.1999C18.2 7.9731 17.5732 8.5999 16.8 8.5999V10.5999C18.6778 10.5999 20.2 9.07767 20.2 7.1999H18.2ZM16.8 8.5999C16.0268 8.5999 15.4 7.9731 15.4 7.1999H13.4C13.4 9.07767 14.9223 10.5999 16.8 10.5999V8.5999ZM15.4 7.1999C15.4 6.4267 16.0268 5.7999 16.8 5.7999V3.7999C14.9223 3.7999 13.4 5.32213 13.4 7.1999H15.4ZM16.8 5.7999C17.5732 5.7999 18.2 6.4267 18.2 7.1999H20.2C20.2 5.32213 18.6778 3.7999 16.8 3.7999V5.7999Z" fill="black"/>
</svg>
