<svg width="24" height="24" viewBox="0 0 24 24" fill="none" xmlns="http://www.w3.org/2000/svg">
<path d="M14.4 15.1402V14.9463M14.3995 12.1373V11.9435M14.3995 9.14717V8.95333M5.01178 3.45972H12.0011C12.0408 4.87478 13.2003 6.00972 14.625 6.00972C16.0497 6.00972 17.2093 4.87478 17.249 3.45972H18.9882C21.0934 3.45972 22.8 5.1663 22.8 7.27148V16.7284C22.8 18.8336 21.0934 20.5402 18.9882 20.5402H17.249C17.2093 19.1251 16.0497 17.9902 14.625 17.9902C13.2003 17.9902 12.0408 19.1251 12.0011 20.5402H5.01179C2.90661 20.5402 1.20003 18.8336 1.20003 16.7284L1.20001 7.27148C1.20001 5.1663 2.9066 3.45972 5.01178 3.45972Z" stroke="black" stroke-width="2" stroke-linecap="round" stroke-linejoin="round"/>
</svg>
