<svg width="24" height="24" viewBox="0 0 24 24" fill="none" xmlns="http://www.w3.org/2000/svg">
<path d="M5.14288 17.0285H4.2286C3.2187 17.0285 2.40002 16.2099 2.40002 15.2V6.97139C2.40002 5.9615 3.2187 5.14282 4.2286 5.14282H12.4572C13.4671 5.14282 14.2857 5.9615 14.2857 6.97139V15.2C14.2857 16.2099 13.4671 17.0285 12.4572 17.0285H11.5429M15.6572 17.0285H15.2C14.6951 17.0285 14.2857 16.6192 14.2857 16.1142V8.34282C14.2857 7.83788 14.6951 7.42854 15.2 7.42854H17.5034C17.7812 7.42854 18.0439 7.55479 18.2174 7.77167L21.3997 11.7495C21.5294 11.9116 21.6 12.1131 21.6 12.3207V16.1142C21.6 16.6192 21.1907 17.0285 20.6857 17.0285M10.6286 16.5714C10.6286 17.8338 9.60525 18.8571 8.34288 18.8571C7.08052 18.8571 6.05717 17.8338 6.05717 16.5714C6.05717 15.309 7.08052 14.2857 8.34288 14.2857C9.60525 14.2857 10.6286 15.309 10.6286 16.5714ZM20.2286 16.5714C20.2286 17.8338 19.2052 18.8571 17.9429 18.8571C16.6805 18.8571 15.6572 17.8338 15.6572 16.5714C15.6572 15.309 16.6805 14.2857 17.9429 14.2857C19.2052 14.2857 20.2286 15.309 20.2286 16.5714Z" stroke="black" stroke-width="2" stroke-linecap="round"/>
</svg>
