<svg width="24" height="24" viewBox="0 0 24 24" fill="none" xmlns="http://www.w3.org/2000/svg">
<path d="M12.8726 12.6751L10.4496 16.872M17.2671 3.91272C15.2148 5.16496 11.0638 8.44034 10.8787 11.5239M18.264 4.48827C18.2512 6.91803 17.5674 12.1952 14.9349 13.8658M1.79999 19.1897L4.33344 18.0751C5.88149 17.3941 7.58716 17.1525 9.26346 17.3767L9.34104 17.3871C11.0431 17.6148 12.6476 18.3138 13.9734 19.4053L16 21.0736M6.6662 9.09183L19.0791 16.2584C19.7812 16.6638 20.6789 16.4232 21.0842 15.7211C23.3811 11.7428 22.018 6.65567 18.0397 4.35876L17.4913 4.04216C13.513 1.74525 8.42584 3.10834 6.12893 7.0867C5.72359 7.78877 5.96414 8.68649 6.6662 9.09183Z" stroke="black" stroke-width="2" stroke-linecap="round" stroke-linejoin="round"/>
</svg>
