<svg width="24" height="24" viewBox="0 0 24 24" fill="none" xmlns="http://www.w3.org/2000/svg">
<path d="M7.41692 20.8185C8.68593 21.0856 10.2613 21.2438 11.9681 21.2438C13.8034 21.2438 15.487 21.0608 16.8009 20.7562M3.88424 12.2614C5.59129 13.2409 8.57415 13.8899 11.9684 13.8899C15.3627 13.8899 18.3456 13.2409 20.0527 12.2614M5.40002 16.5561C6.787 17.1639 9.21058 17.5666 11.9684 17.5666C14.7263 17.5666 17.1499 17.1639 18.5369 16.5561M21.6 6.29295C21.6 8.24629 17.302 9.82979 12 9.82979C6.69809 9.82979 2.40002 8.24629 2.40002 6.29295C2.40002 4.3396 6.69809 2.7561 12 2.7561C17.302 2.7561 21.6 4.3396 21.6 6.29295Z" stroke="black" stroke-width="2" stroke-linecap="round"/>
</svg>
