<svg width="24" height="24" viewBox="0 0 24 24" fill="none" xmlns="http://www.w3.org/2000/svg">
<path d="M11.5667 3.76159C11.7388 3.4128 12.2362 3.4128 12.4083 3.76159L14.6366 8.2767C14.705 8.4152 14.8371 8.5112 14.99 8.53341L19.9727 9.25744C20.3576 9.31337 20.5113 9.78639 20.2328 10.0579L16.6272 13.5724C16.5166 13.6802 16.4662 13.8355 16.4923 13.9878L17.3434 18.9504C17.4092 19.3337 17.0068 19.626 16.6625 19.4451L12.2059 17.102C12.0692 17.0302 11.9058 17.0302 11.7691 17.102L7.31244 19.4451C6.96817 19.626 6.56579 19.3337 6.63154 18.9504L7.48269 13.9878C7.5088 13.8355 7.45833 13.6802 7.34773 13.5724L3.7422 10.0579C3.46368 9.78639 3.61737 9.31337 4.00228 9.25744L8.985 8.53341C9.13785 8.5112 9.26998 8.4152 9.33833 8.2767L11.5667 3.76159Z" stroke="black" stroke-width="2" stroke-linejoin="round"/>
</svg>
