<svg width="24" height="24" viewBox="0 0 24 24" fill="none" xmlns="http://www.w3.org/2000/svg">
<path d="M9.1199 9.11999V8.11999C8.56762 8.11999 8.1199 8.56771 8.1199 9.11999H9.1199ZM9.21553 9.11999H10.2155C10.2155 8.56771 9.76781 8.11999 9.21553 8.11999V9.11999ZM14.8799 9.11999V8.11999C14.3276 8.11999 13.8799 8.56771 13.8799 9.11999H14.8799ZM14.9649 9.11999H15.9649C15.9649 8.56771 15.5172 8.11999 14.9649 8.11999V9.11999ZM9.21553 9.19687V10.1969C9.76781 10.1969 10.2155 9.74915 10.2155 9.19687H9.21553ZM9.1199 9.19687H8.1199C8.1199 9.74915 8.56762 10.1969 9.1199 10.1969V9.19687ZM14.9649 9.19687V10.1969C15.5172 10.1969 15.9649 9.74915 15.9649 9.19687H14.9649ZM14.8799 9.19687H13.8799C13.8799 9.74915 14.3276 10.1969 14.8799 10.1969V9.19687ZM11.9998 14.4038L11.9998 13.4038L11.9998 14.4038ZM14.4776 16.8109C14.7683 17.2805 15.3846 17.4256 15.8542 17.1349C16.3238 16.8442 16.4688 16.2279 16.1782 15.7583L14.4776 16.8109ZM7.82149 15.7583C7.53081 16.2279 7.67585 16.8442 8.14545 17.1349C8.61505 17.4256 9.23138 17.2805 9.52206 16.8109L7.82149 15.7583ZM20.5999 12C20.5999 16.7496 16.7495 20.6 11.9999 20.6V22.6C17.8541 22.6 22.5999 17.8542 22.5999 12H20.5999ZM11.9999 20.6C7.25025 20.6 3.3999 16.7496 3.3999 12H1.3999C1.3999 17.8542 6.14568 22.6 11.9999 22.6V20.6ZM3.3999 12C3.3999 7.25034 7.25025 3.39999 11.9999 3.39999V1.39999C6.14568 1.39999 1.3999 6.14577 1.3999 12H3.3999ZM11.9999 3.39999C16.7495 3.39999 20.5999 7.25034 20.5999 12H22.5999C22.5999 6.14577 17.8541 1.39999 11.9999 1.39999V3.39999ZM9.1199 10.12H9.21553V8.11999H9.1199V10.12ZM14.8799 10.12H14.9649V8.11999H14.8799V10.12ZM8.21553 9.11999V9.19687H10.2155V9.11999H8.21553ZM9.21553 8.19687H9.1199V10.1969H9.21553V8.19687ZM10.1199 9.19687V9.11999H8.1199V9.19687H10.1199ZM13.9649 9.11999V9.19687H15.9649V9.11999H13.9649ZM14.9649 8.19687H14.8799V10.1969H14.9649V8.19687ZM15.8799 9.19687V9.11999H13.8799V9.19687H15.8799ZM11.9998 15.4038C13.0296 15.4038 13.9475 15.9545 14.4776 16.8109L16.1782 15.7583C15.3084 14.3532 13.7684 13.4038 11.9998 13.4038L11.9998 15.4038ZM9.52206 16.8109C10.0522 15.9545 10.97 15.4038 11.9998 15.4038L11.9998 13.4038C10.2313 13.4038 8.69125 14.3532 7.82149 15.7583L9.52206 16.8109Z" fill="black"/>
</svg>
