<svg width="24" height="24" viewBox="0 0 24 24" fill="none" xmlns="http://www.w3.org/2000/svg">
<path d="M9.1199 9.12002V8.12002C8.56762 8.12002 8.1199 8.56774 8.1199 9.12002H9.1199ZM9.21553 9.12002H10.2155C10.2155 8.56774 9.76781 8.12002 9.21553 8.12002V9.12002ZM14.8799 9.12002V8.12002C14.3276 8.12002 13.8799 8.56774 13.8799 9.12002H14.8799ZM14.9649 9.12002H15.9649C15.9649 8.56774 15.5172 8.12002 14.9649 8.12002V9.12002ZM9.21553 9.1969V10.1969C9.76781 10.1969 10.2155 9.74918 10.2155 9.1969H9.21553ZM9.1199 9.1969H8.1199C8.1199 9.74918 8.56762 10.1969 9.1199 10.1969V9.1969ZM14.9649 9.1969V10.1969C15.5172 10.1969 15.9649 9.74918 15.9649 9.1969H14.9649ZM14.8799 9.1969H13.8799C13.8799 9.74918 14.3276 10.1969 14.8799 10.1969V9.1969ZM9.52213 14.3929C9.23145 13.9233 8.61512 13.7782 8.14553 14.0689C7.67593 14.3596 7.53089 14.9759 7.82157 15.4455L9.52213 14.3929ZM16.1782 15.4455C16.4689 14.9759 16.3239 14.3596 15.8543 14.0689C15.3847 13.7782 14.7683 13.9233 14.4777 14.3929L16.1782 15.4455ZM20.5999 12C20.5999 16.7497 16.7495 20.6 11.9999 20.6V22.6C17.8541 22.6 22.5999 17.8542 22.5999 12H20.5999ZM11.9999 20.6C7.25025 20.6 3.3999 16.7497 3.3999 12H1.3999C1.3999 17.8542 6.14568 22.6 11.9999 22.6V20.6ZM3.3999 12C3.3999 7.25037 7.25025 3.40002 11.9999 3.40002V1.40002C6.14568 1.40002 1.3999 6.14581 1.3999 12H3.3999ZM11.9999 3.40002C16.7495 3.40002 20.5999 7.25037 20.5999 12H22.5999C22.5999 6.14581 17.8541 1.40002 11.9999 1.40002V3.40002ZM9.1199 10.12H9.21553V8.12002H9.1199V10.12ZM14.8799 10.12H14.9649V8.12002H14.8799V10.12ZM8.21553 9.12002V9.1969H10.2155V9.12002H8.21553ZM9.21553 8.1969H9.1199V10.1969H9.21553V8.1969ZM10.1199 9.1969V9.12002H8.1199V9.1969H10.1199ZM13.9649 9.12002V9.1969H15.9649V9.12002H13.9649ZM14.9649 8.1969H14.8799V10.1969H14.9649V8.1969ZM15.8799 9.1969V9.12002H13.8799V9.1969H15.8799ZM11.9999 15.8C10.9701 15.8 10.0523 15.2493 9.52213 14.3929L7.82157 15.4455C8.69132 16.8506 10.2314 17.8 11.9999 17.8V15.8ZM14.4777 14.3929C13.9475 15.2493 13.0297 15.8 11.9999 15.8V17.8C13.7684 17.8 15.3085 16.8506 16.1782 15.4455L14.4777 14.3929Z" fill="black"/>
</svg>
