<svg width="24" height="24" viewBox="0 0 24 24" fill="none" xmlns="http://www.w3.org/2000/svg">
<path d="M9.1199 9.11999V8.11999C8.56762 8.11999 8.1199 8.56771 8.1199 9.11999H9.1199ZM9.21553 9.11999H10.2155C10.2155 8.56771 9.76781 8.11999 9.21553 8.11999V9.11999ZM14.8799 9.11999V8.11999C14.3276 8.11999 13.8799 8.56771 13.8799 9.11999H14.8799ZM14.9649 9.11999H15.9649C15.9649 8.56771 15.5172 8.11999 14.9649 8.11999V9.11999ZM9.21553 9.19687V10.1969C9.76781 10.1969 10.2155 9.74915 10.2155 9.19687H9.21553ZM9.1199 9.19687H8.1199C8.1199 9.74915 8.56762 10.1969 9.1199 10.1969V9.19687ZM14.9649 9.19687V10.1969C15.5172 10.1969 15.9649 9.74915 15.9649 9.19687H14.9649ZM14.8799 9.19687H13.8799C13.8799 9.74915 14.3276 10.1969 14.8799 10.1969V9.19687ZM8.67185 13.9191C8.11957 13.9191 7.67185 14.3669 7.67185 14.9191C7.67185 15.4714 8.11957 15.9191 8.67185 15.9191V13.9191ZM15.3279 15.9191C15.8802 15.9191 16.3279 15.4714 16.3279 14.9191C16.3279 14.3669 15.8802 13.9191 15.3279 13.9191V15.9191ZM20.5999 12C20.5999 16.7496 16.7495 20.6 11.9999 20.6V22.6C17.8541 22.6 22.5999 17.8542 22.5999 12H20.5999ZM11.9999 20.6C7.25025 20.6 3.3999 16.7496 3.3999 12H1.3999C1.3999 17.8542 6.14568 22.6 11.9999 22.6V20.6ZM3.3999 12C3.3999 7.25034 7.25025 3.39999 11.9999 3.39999V1.39999C6.14568 1.39999 1.3999 6.14577 1.3999 12H3.3999ZM11.9999 3.39999C16.7495 3.39999 20.5999 7.25034 20.5999 12H22.5999C22.5999 6.14577 17.8541 1.39999 11.9999 1.39999V3.39999ZM9.1199 10.12H9.21553V8.11999H9.1199V10.12ZM14.8799 10.12H14.9649V8.11999H14.8799V10.12ZM8.21553 9.11999V9.19687H10.2155V9.11999H8.21553ZM9.21553 8.19687H9.1199V10.1969H9.21553V8.19687ZM10.1199 9.19687V9.11999H8.1199V9.19687H10.1199ZM13.9649 9.11999V9.19687H15.9649V9.11999H13.9649ZM14.9649 8.19687H14.8799V10.1969H14.9649V8.19687ZM15.8799 9.19687V9.11999H13.8799V9.19687H15.8799ZM15.3279 13.9191H8.67185V15.9191H15.3279V13.9191Z" fill="black"/>
</svg>
