<svg width="24" height="24" viewBox="0 0 24 24" fill="none" xmlns="http://www.w3.org/2000/svg">
<path d="M2.3999 21.6L2.40031 17.9996C2.40053 16.0115 4.01224 14.4 6.00031 14.4H11.9999M19.0285 13.5L21.5999 15.9M21.5999 15.9L19.0285 18.3M21.5999 15.9H14.9999M17.3999 2.39999C18.8561 3.21627 19.7999 4.52487 19.7999 5.99999C19.7999 7.47512 18.8561 8.78372 17.3999 9.59999M14.3999 5.99999C14.3999 7.98822 12.7881 9.59999 10.7999 9.59999C8.81167 9.59999 7.1999 7.98822 7.1999 5.99999C7.1999 4.01177 8.81167 2.39999 10.7999 2.39999C12.7881 2.39999 14.3999 4.01177 14.3999 5.99999Z" stroke="black" stroke-width="2" stroke-linecap="round" stroke-linejoin="round"/>
</svg>
