<svg width="24" height="24" viewBox="0 0 24 24" fill="none" xmlns="http://www.w3.org/2000/svg">
<path d="M1.3999 21.5999C1.39984 22.1522 1.84751 22.6 2.39979 22.6C2.95207 22.6001 3.39984 22.1524 3.3999 21.6001L1.3999 21.5999ZM2.40031 17.9996L3.40031 17.9997L2.40031 17.9996ZM13.1999 15.4C13.7522 15.4 14.1999 14.9523 14.1999 14.4C14.1999 13.8477 13.7522 13.4 13.1999 13.4V15.4ZM20.8928 18.1071C21.2833 18.4977 21.9165 18.4977 22.307 18.1071C22.6975 17.7166 22.6975 17.0834 22.307 16.6929L20.8928 18.1071ZM18.4886 12.8745C18.0981 12.484 17.4649 12.484 17.0744 12.8745C16.6839 13.2651 16.6839 13.8982 17.0744 14.2888L18.4886 12.8745ZM17.0745 16.6928C16.684 17.0833 16.684 17.7165 17.0745 18.107C17.465 18.4976 18.0982 18.4976 18.4887 18.107L17.0745 16.6928ZM22.3071 14.2887C22.6976 13.8981 22.6976 13.265 22.3071 12.8744C21.9166 12.4839 21.2834 12.4839 20.8929 12.8744L22.3071 14.2887ZM13.3999 6.00002C13.3999 7.43596 12.2358 8.60002 10.7999 8.60002V10.6C13.3404 10.6 15.3999 8.54053 15.3999 6.00002H13.3999ZM10.7999 8.60002C9.36396 8.60002 8.1999 7.43596 8.1999 6.00002H6.1999C6.1999 8.54053 8.25939 10.6 10.7999 10.6V8.60002ZM8.1999 6.00002C8.1999 4.56408 9.36396 3.40002 10.7999 3.40002V1.40002C8.25939 1.40002 6.1999 3.45951 6.1999 6.00002H8.1999ZM10.7999 3.40002C12.2358 3.40002 13.3999 4.56408 13.3999 6.00002H15.3999C15.3999 3.45951 13.3404 1.40002 10.7999 1.40002V3.40002ZM3.3999 21.6001L3.40031 17.9997L1.40031 17.9995L1.3999 21.5999L3.3999 21.6001ZM6.00031 13.4C3.46 13.4 1.40059 15.4592 1.40031 17.9995L3.40031 17.9997C3.40047 16.5639 4.56448 15.4 6.00031 15.4V13.4ZM6.00031 15.4H13.1999V13.4H6.00031V15.4ZM22.307 16.6929L20.3978 14.7837L18.9836 16.1979L20.8928 18.1071L22.307 16.6929ZM20.3978 14.7837L18.4886 12.8745L17.0744 14.2888L18.9836 16.1979L20.3978 14.7837ZM18.4887 18.107L20.3978 16.1979L18.9836 14.7837L17.0745 16.6928L18.4887 18.107ZM20.3978 16.1979L22.3071 14.2887L20.8929 12.8744L18.9836 14.7837L20.3978 16.1979Z" fill="black"/>
</svg>
