<svg width="24" height="24" viewBox="0 0 24 24" fill="none" xmlns="http://www.w3.org/2000/svg">
<path d="M19.1999 13.6857C20.4672 14.6326 21.5999 17.0167 21.5999 18.4856C21.5999 18.9433 21.266 19.3143 20.8541 19.3143H20.3999M15.5999 9.80447C16.4197 9.33022 16.9713 8.4438 16.9713 7.42856C16.9713 6.41331 16.4197 5.5269 15.5999 5.05264M3.14567 19.3143H16.2827C16.6946 19.3143 17.0285 18.9433 17.0285 18.4856C17.0285 15.609 14.6252 13.2771 9.71419 13.2771C4.80317 13.2771 2.3999 15.609 2.3999 18.4856C2.3999 18.9433 2.7338 19.3143 3.14567 19.3143ZM12.457 7.42856C12.457 8.94339 11.229 10.1714 9.71419 10.1714C8.19935 10.1714 6.97133 8.94339 6.97133 7.42856C6.97133 5.91372 8.19935 4.6857 9.71419 4.6857C11.229 4.6857 12.457 5.91372 12.457 7.42856Z" stroke="black" stroke-width="2" stroke-linecap="round"/>
</svg>
