<svg width="24" height="24" viewBox="0 0 24 24" fill="none" xmlns="http://www.w3.org/2000/svg">
<path d="M2.40039 21.6L2.4008 17.9996C2.40102 16.0115 4.01273 14.4 6.00079 14.4H12.0004M17.5708 18.3L14.9994 15.9M14.9994 15.9L17.5708 13.5M14.9994 15.9H21.5994M17.4004 2.39999C18.8566 3.21627 19.8004 4.52487 19.8004 5.99999C19.8004 7.47512 18.8566 8.78372 17.4004 9.59999M14.4004 5.99999C14.4004 7.98822 12.7886 9.59999 10.8004 9.59999C8.81216 9.59999 7.20039 7.98822 7.20039 5.99999C7.20039 4.01177 8.81216 2.39999 10.8004 2.39999C12.7886 2.39999 14.4004 4.01177 14.4004 5.99999Z" stroke="black" stroke-width="2" stroke-linecap="round" stroke-linejoin="round"/>
</svg>
