<svg width="24" height="24" viewBox="0 0 24 24" fill="none" xmlns="http://www.w3.org/2000/svg">
<path d="M18.8567 20.2C19.409 20.2 19.8567 19.7523 19.8567 19.2C19.8567 18.6478 19.409 18.2 18.8567 18.2V20.2ZM5.14275 18.2C4.59047 18.2 4.14275 18.6478 4.14275 19.2C4.14275 19.7523 4.59047 20.2 5.14275 20.2V18.2ZM2.39996 13.9018C1.84768 13.9018 1.39996 14.3495 1.39996 14.9018C1.39996 15.4541 1.84768 15.9018 2.39996 15.9018V13.9018ZM21.5995 15.9018C22.1518 15.9018 22.5995 15.4541 22.5995 14.9018C22.5995 14.3495 22.1518 13.9018 21.5995 13.9018V15.9018ZM4.2452 12.0482C4.70473 12.3546 5.3256 12.2304 5.63196 11.7709C5.93831 11.3113 5.81413 10.6905 5.3546 10.3841L4.2452 12.0482ZM3.29751 9.01271C2.83798 8.70636 2.21711 8.83054 1.91076 9.29006C1.60441 9.74959 1.72858 10.3705 2.18811 10.6768L3.29751 9.01271ZM8.10339 7.45949C8.34818 7.95456 8.94796 8.15746 9.44303 7.91267C9.9381 7.66788 10.141 7.06811 9.89621 6.57304L8.10339 7.45949ZM8.80042 4.35683C8.55563 3.86175 7.95585 3.65886 7.46078 3.90364C6.96571 4.14843 6.76281 4.74821 7.0076 5.24328L8.80042 4.35683ZM13.7907 6.3022C13.4843 6.76173 13.6085 7.3826 14.068 7.68895C14.5276 7.9953 15.1484 7.87113 15.4548 7.4116L13.7907 6.3022ZM16.8262 5.3545C17.1325 4.89498 17.0084 4.27411 16.5488 3.96775C16.0893 3.6614 15.4684 3.78558 15.1621 4.2451L16.8262 5.3545ZM21.8021 10.7412C22.2972 10.4964 22.5001 9.89661 22.2553 9.40154C22.0105 8.90646 21.4108 8.70357 20.9157 8.94835L21.8021 10.7412ZM18.6995 10.0442C18.2044 10.2889 18.0015 10.8887 18.2463 11.3838C18.4911 11.8789 19.0909 12.0818 19.5859 11.837L18.6995 10.0442ZM18.8567 18.2H5.14275V20.2H18.8567V18.2ZM2.39996 15.9018H21.5995V13.9018H2.39996V15.9018ZM8.19985 14.9018C8.19985 12.8032 9.90111 11.1019 11.9997 11.1019V9.1019C8.79654 9.1019 6.19985 11.6986 6.19985 14.9018H8.19985ZM11.9997 11.1019C14.0983 11.1019 15.7996 12.8032 15.7996 14.9018H17.7996C17.7996 11.6986 15.2029 9.1019 11.9997 9.1019V11.1019ZM5.3546 10.3841L3.29751 9.01271L2.18811 10.6768L4.2452 12.0482L5.3546 10.3841ZM9.89621 6.57304L8.80042 4.35683L7.0076 5.24328L8.10339 7.45949L9.89621 6.57304ZM15.4548 7.4116L16.8262 5.3545L15.1621 4.2451L13.7907 6.3022L15.4548 7.4116ZM20.9157 8.94835L18.6995 10.0442L19.5859 11.837L21.8021 10.7412L20.9157 8.94835Z" fill="black"/>
</svg>
