<svg width="24" height="24" viewBox="0 0 24 24" fill="none" xmlns="http://www.w3.org/2000/svg">
<path d="M9.02109 4.7963C9.38106 3.88579 10.243 3.24463 11.2491 3.24463C12.5788 3.24463 13.6568 4.36459 13.6568 5.74613C13.6568 7.12767 12.5788 8.24763 11.2491 8.24763H2.40002M14.0241 19.2035C14.3841 20.114 15.246 20.7551 16.2521 20.7551C17.5818 20.7551 18.6598 19.6352 18.6598 18.2536C18.6598 16.8721 17.5818 15.7521 16.2521 15.7521H7.40303M16.7837 8.54855C17.1577 7.63804 18.0532 6.99688 19.0985 6.99688C20.4801 6.99688 21.6 8.11684 21.6 9.49838C21.6 10.8799 20.4801 11.9999 19.0985 11.9999H4.90153" stroke="black" stroke-width="2" stroke-linecap="round" stroke-linejoin="round"/>
</svg>
