<svg width="24" height="24" viewBox="0 0 24 24" fill="none" xmlns="http://www.w3.org/2000/svg">
<path d="M15.1999 19.2C15.1999 20.5255 14.1254 21.6 12.7999 21.6C11.4744 21.6 4.7999 21.6 4.7999 21.6C3.47442 21.6 2.3999 20.5255 2.3999 19.2C2.3999 17.8745 2.3999 12.5255 2.3999 11.2C2.3999 9.87451 3.47442 8.79999 4.7999 8.79999L12.7999 8.79999C14.1254 8.79999 15.1999 9.87451 15.1999 11.2V19.2Z" stroke="black" stroke-width="2" stroke-linecap="round" stroke-linejoin="round"/>
<path d="M21.5999 12.8C21.5999 14.1255 20.5254 15.2 19.1999 15.2C17.8744 15.2 11.1999 15.2 11.1999 15.2C9.87442 15.2 8.7999 14.1255 8.7999 12.8C8.7999 11.4745 8.7999 6.12548 8.7999 4.79999C8.7999 3.47451 9.87442 2.39999 11.1999 2.39999L19.1999 2.39999C20.5254 2.39999 21.5999 3.47451 21.5999 4.79999V12.8Z" stroke="black" stroke-width="2" stroke-linecap="round" stroke-linejoin="round"/>
</svg>
