<svg width="24" height="24" viewBox="0 0 24 24" fill="none" xmlns="http://www.w3.org/2000/svg">
<path d="M10 9.59999C10 9.04771 9.55231 8.59999 9.00002 8.59999C8.44774 8.59999 8.00002 9.04771 8.00002 9.59999H10ZM8.00002 21.6C8.00002 22.1523 8.44774 22.6 9.00002 22.6C9.55231 22.6 10 22.1523 10 21.6H8.00002ZM6.00002 3.39999H18V1.39999H6.00002V3.39999ZM20.6 5.99999V18H22.6V5.99999H20.6ZM18 20.6H6.00002V22.6H18V20.6ZM3.40002 18V5.99999H1.40002V18H3.40002ZM6.00002 20.6C4.56408 20.6 3.40002 19.4359 3.40002 18H1.40002C1.40002 20.5405 3.45951 22.6 6.00002 22.6V20.6ZM20.6 18C20.6 19.4359 19.436 20.6 18 20.6V22.6C20.5405 22.6 22.6 20.5405 22.6 18H20.6ZM18 3.39999C19.436 3.39999 20.6 4.56405 20.6 5.99999H22.6C22.6 3.45948 20.5405 1.39999 18 1.39999V3.39999ZM6.00002 1.39999C3.45951 1.39999 1.40002 3.45948 1.40002 5.99999H3.40002C3.40002 4.56405 4.56408 3.39999 6.00002 3.39999V1.39999ZM8.00002 9.59999V21.6H10V9.59999H8.00002ZM3.00002 9.99999H21V7.99999H3.00002V9.99999Z" fill="black"/>
</svg>
