<svg width="24" height="24" viewBox="0 0 24 24" fill="none" xmlns="http://www.w3.org/2000/svg">
<path d="M7.20002 8.79999H4.80003C3.47454 8.79999 2.40002 9.87451 2.40002 11.2C2.40002 12.5255 2.40002 17.8745 2.40002 19.2C2.40002 20.5255 3.47454 21.6 4.80002 21.6C4.80002 21.6 11.4745 21.6 12.8 21.6C14.1255 21.6 15.2 20.5255 15.2 19.2V16.2M19.2 2.39999L11.2 2.39999C9.87454 2.39999 8.80002 3.47451 8.80002 4.79999C8.80002 6.12548 8.80002 11.4745 8.80002 12.8C8.80002 14.1255 9.87454 15.2 11.2 15.2C11.2 15.2 17.8745 15.2 19.2 15.2C20.5255 15.2 21.6 14.1255 21.6 12.8V4.79999C21.6 3.47451 20.5255 2.39999 19.2 2.39999Z" stroke="black" stroke-width="2" stroke-linecap="round" stroke-linejoin="round"/>
</svg>
