<svg width="24" height="24" viewBox="0 0 24 24" fill="none" xmlns="http://www.w3.org/2000/svg">
<path d="M10 2.4C10 1.84772 9.55231 1.4 9.00002 1.4C8.44774 1.4 8.00002 1.84772 8.00002 2.4H10ZM8.00002 21.6C8.00002 22.1523 8.44774 22.6 9.00002 22.6C9.55231 22.6 10 22.1523 10 21.6H8.00002ZM6.00002 3.4H18V1.4H6.00002V3.4ZM20.6 6V18H22.6V6H20.6ZM18 20.6H6.00002V22.6H18V20.6ZM3.40002 18V6H1.40002V18H3.40002ZM6.00002 20.6C4.56408 20.6 3.40002 19.4359 3.40002 18H1.40002C1.40002 20.5405 3.45951 22.6 6.00002 22.6V20.6ZM20.6 18C20.6 19.4359 19.436 20.6 18 20.6V22.6C20.5405 22.6 22.6 20.5405 22.6 18H20.6ZM18 3.4C19.436 3.4 20.6 4.56406 20.6 6H22.6C22.6 3.45949 20.5405 1.4 18 1.4V3.4ZM6.00002 1.4C3.45951 1.4 1.40002 3.45949 1.40002 6H3.40002C3.40002 4.56406 4.56408 3.4 6.00002 3.4V1.4ZM8.00002 2.4V21.6H10V2.4H8.00002ZM3.00002 10H21V8H3.00002V10Z" fill="black"/>
</svg>
