<svg width="24" height="24" viewBox="0 0 24 24" fill="none" xmlns="http://www.w3.org/2000/svg">
<path d="M14.4992 17.194C15.3551 18.6765 14.7671 20.6184 13.1858 21.5314C11.6045 22.4443 9.62873 21.9827 8.77281 20.5002M6.82922 6.11328C7.88343 5.50463 8.24462 4.15662 7.63598 3.10242C7.02733 2.04821 5.67933 1.68702 4.62512 2.29566C3.57092 2.90431 3.20972 4.25231 3.81837 5.30652C4.42701 6.36072 5.77502 6.72192 6.82922 6.11328Z" stroke="black" stroke-width="2"/>
<path d="M6.84103 21.6154L6.34103 20.7494L6.34103 20.7494L6.84103 21.6154ZM5.99338 20.978L5.00103 20.8546L5.00103 20.8546L5.99338 20.978ZM5.32238 17.4127L4.45026 17.9022L4.45635 17.9127L5.32238 17.4127ZM4.30938 15.6077L5.1815 15.1183L5.17541 15.1077L4.30938 15.6077ZM20.2495 13.874L20.7495 14.74L20.7495 14.74L20.2495 13.874ZM20.1344 12.8329L20.542 11.9198L20.542 11.9198L20.1344 12.8329ZM17.4131 10.4322L16.5406 10.9211L16.547 10.9322L17.4131 10.4322ZM16.4513 8.71598L17.3238 8.22708L17.3174 8.21598L16.4513 8.71598ZM6.82924 6.1132L6.32924 5.24717L6.82924 6.1132ZM6.98573 21.1015C7.12901 19.9496 7.04218 18.3915 6.1884 16.9127L4.45635 17.9127C5.03091 18.9079 5.10804 19.9943 5.00103 20.8546L6.98573 21.1015ZM6.19443 16.9233L5.18144 15.1183L3.43733 16.0971L4.45032 17.9021L6.19443 16.9233ZM20.542 11.9198C19.7633 11.5721 18.8646 10.9463 18.2791 9.93216L16.547 10.9322C17.3997 12.409 18.6804 13.2789 19.7267 13.7461L20.542 11.9198ZM18.2854 9.9433L17.3237 8.22713L15.579 9.20484L16.5407 10.921L18.2854 9.9433ZM17.3174 8.21598C15.0925 4.36238 10.1746 3.02707 6.32924 5.24717L7.32924 6.97922C10.2102 5.31589 13.9082 6.31119 15.5853 9.21598L17.3174 8.21598ZM20.7495 14.74C21.3909 14.3697 21.53 13.6867 21.4719 13.2162C21.414 12.7473 21.1342 12.1842 20.542 11.9198L19.7267 13.7461C19.5286 13.6576 19.4927 13.5074 19.487 13.4613C19.4811 13.4137 19.4807 13.1632 19.7495 13.008L20.7495 14.74ZM5.17541 15.1077C3.52665 12.252 4.49708 8.61438 7.32924 6.97922L6.32924 5.24717C2.53273 7.43909 1.2468 12.3032 3.44336 16.1077L5.17541 15.1077ZM6.34103 20.7494C6.61594 20.5907 6.83392 20.7242 6.86653 20.7494C6.8985 20.7741 7.01317 20.8809 6.98573 21.1015L5.00103 20.8546C4.91966 21.5088 5.26953 22.0432 5.6445 22.3326C6.02011 22.6225 6.68888 22.858 7.34103 22.4814L6.34103 20.7494ZM19.7495 13.008L6.34103 20.7494L7.34103 22.4814L20.7495 14.74L19.7495 13.008Z" fill="black"/>
</svg>
