<svg width="24" height="24" viewBox="0 0 24 24" fill="none" xmlns="http://www.w3.org/2000/svg">
<path d="M6.84106 21.6155L6.34106 20.7495L6.34106 20.7495L6.84106 21.6155ZM5.99341 20.9781L5.00106 20.8547L5.00106 20.8547L5.99341 20.9781ZM5.32241 17.4128L4.45029 17.9022L4.45638 17.9128L5.32241 17.4128ZM4.30941 15.6078L5.18153 15.1184L5.17544 15.1078L4.30941 15.6078ZM20.2496 13.8741L20.7496 14.7401L20.7496 14.7401L20.2496 13.8741ZM20.1344 12.833L20.5421 11.9199L20.5421 11.9199L20.1344 12.833ZM17.4131 10.4322L16.5407 10.9211L16.5471 10.9322L17.4131 10.4322ZM16.4514 8.71606L17.3238 8.22716L17.3174 8.21606L16.4514 8.71606ZM6.82927 6.11328L6.32927 5.24725L6.82927 6.11328ZM13.1858 21.5314L13.6858 22.3974L13.1858 21.5314ZM6.98576 21.1016C7.12904 19.9497 7.04221 18.3916 6.18843 16.9128L4.45638 17.9128C5.03094 18.908 5.10807 19.9944 5.00106 20.8547L6.98576 21.1016ZM6.19446 16.9234L5.18147 15.1184L3.43736 16.0972L4.45035 17.9022L6.19446 16.9234ZM20.5421 11.9199C19.7634 11.5722 18.8646 10.9464 18.2791 9.93224L16.5471 10.9322C17.3997 12.4091 18.6804 13.279 19.7267 13.7461L20.5421 11.9199ZM18.2855 9.94338L17.3237 8.2272L15.579 9.20491L16.5407 10.9211L18.2855 9.94338ZM17.3174 8.21606C15.0925 4.36246 10.1746 3.02715 6.32927 5.24725L7.32927 6.9793C10.2103 5.31596 13.9083 6.31126 15.5853 9.21606L17.3174 8.21606ZM20.7496 14.7401C21.391 14.3698 21.53 13.6867 21.4719 13.2163C21.414 12.7474 21.1342 12.1842 20.5421 11.9199L19.7267 13.7461C19.5286 13.6577 19.4927 13.5075 19.487 13.4614C19.4811 13.4138 19.4807 13.1633 19.7496 13.0081L20.7496 14.7401ZM5.17544 15.1078C3.52668 12.2521 4.49711 8.61445 7.32927 6.9793L6.32927 5.24725C2.53276 7.43917 1.24683 12.3033 3.44339 16.1078L5.17544 15.1078ZM6.34106 20.7495C6.61597 20.5907 6.83395 20.7243 6.86656 20.7495C6.89853 20.7741 7.0132 20.881 6.98576 21.1016L5.00106 20.8547C4.91969 21.5088 5.26956 22.0433 5.64453 22.3327C6.02014 22.6226 6.68891 22.858 7.34106 22.4815L6.34106 20.7495ZM19.7496 13.0081L6.34106 20.7495L7.34106 22.4815L20.7496 14.7401L19.7496 13.0081ZM13.6333 17.694C14.1831 18.6464 13.8423 19.9976 12.6858 20.6654L13.6858 22.3974C15.6919 21.2392 16.5273 18.7066 15.3653 16.694L13.6333 17.694ZM12.6858 20.6654C11.5293 21.3331 10.1888 20.9526 9.63889 20.0002L7.90684 21.0002C9.06879 23.0127 11.6797 23.5556 13.6858 22.3974L12.6858 20.6654ZM6.77 3.60242C7.10251 4.17833 6.90518 4.91475 6.32927 5.24725L7.32927 6.9793C8.86177 6.09451 9.38684 4.13492 8.50205 2.60242L6.77 3.60242ZM6.32927 5.24725C5.75336 5.57975 5.01694 5.38243 4.68444 4.80652L2.95239 5.80652C3.83718 7.33902 5.79677 7.86409 7.32927 6.9793L6.32927 5.24725ZM4.68444 4.80652C4.35194 4.23061 4.54926 3.49419 5.12517 3.16169L4.12517 1.42964C2.59267 2.31442 2.0676 4.27402 2.95239 5.80652L4.68444 4.80652ZM5.12517 3.16169C5.70108 2.82918 6.4375 3.02651 6.77 3.60242L8.50205 2.60242C7.61727 1.06992 5.65767 0.544848 4.12517 1.42964L5.12517 3.16169Z" fill="black"/>
</svg>
