<svg width="24" height="24" viewBox="0 0 24 24" fill="none" xmlns="http://www.w3.org/2000/svg">
<path d="M4.84585 14.5838V13.3608C4.84585 10.6448 6.32149 8.27339 8.51478 7.00464M19.5216 14.5838V13.3608C19.5216 10.6448 18.0459 8.27339 15.8526 7.00464M3.30476 19.1081H6.01934C6.51908 19.1081 6.9242 18.703 6.9242 18.2032V15.4887C6.9242 14.9889 6.51908 14.5838 6.01934 14.5838H3.30476C2.80502 14.5838 2.3999 14.9889 2.3999 15.4887V18.2032C2.3999 18.703 2.80502 19.1081 3.30476 19.1081ZM17.9805 19.1081H20.695C21.1948 19.1081 21.5999 18.703 21.5999 18.2032V15.4887C21.5999 14.9889 21.1948 14.5838 20.695 14.5838H17.9805C17.4807 14.5838 17.0756 14.9889 17.0756 15.4887V18.2032C17.0756 18.703 17.4807 19.1081 17.9805 19.1081Z" stroke="black" stroke-width="2"/>
<path d="M9.11349 6.63451H3.61011M20.3871 6.63451H14.6169M10.5032 9.32435H13.2178C13.7176 9.32435 14.1227 8.91923 14.1227 8.41949V5.70491C14.1227 5.20517 13.7176 4.80005 13.2178 4.80005H10.5032C10.0035 4.80005 9.59838 5.20517 9.59838 5.70491V8.41949C9.59838 8.91923 10.0035 9.32435 10.5032 9.32435Z" stroke="black" stroke-width="2" stroke-linecap="round"/>
</svg>
