<svg width="24" height="24" viewBox="0 0 24 24" fill="none" xmlns="http://www.w3.org/2000/svg">
<path d="M9.12626 7.63451C9.67855 7.63451 10.1263 7.1868 10.1263 6.63451C10.1263 6.08223 9.67855 5.63451 9.12626 5.63451V7.63451ZM3.62288 5.63451C3.07059 5.63451 2.62288 6.08223 2.62288 6.63451C2.62288 7.1868 3.07059 7.63451 3.62288 7.63451V5.63451ZM20.3999 7.63451C20.9522 7.63451 21.3999 7.1868 21.3999 6.63451C21.3999 6.08223 20.9522 5.63451 20.3999 5.63451V7.63451ZM14.6297 5.63451C14.0774 5.63451 13.6297 6.08223 13.6297 6.63451C13.6297 7.1868 14.0774 7.63451 14.6297 7.63451V5.63451ZM10.516 5.80005H13.2306V3.80005H10.516V5.80005ZM13.1355 5.70491V8.41949H15.1355V5.70491H13.1355ZM13.2306 8.32435H10.516V10.3244H13.2306V8.32435ZM10.6112 8.41949V5.70491H8.61115V8.41949H10.6112ZM10.516 8.32435C10.5686 8.32435 10.6112 8.36694 10.6112 8.41949H8.61115C8.61115 9.47152 9.46399 10.3244 10.516 10.3244V8.32435ZM13.1355 8.41949C13.1355 8.36695 13.178 8.32435 13.2306 8.32435V10.3244C14.2826 10.3244 15.1355 9.47151 15.1355 8.41949H13.1355ZM13.2306 5.80005C13.178 5.80005 13.1355 5.75745 13.1355 5.70491H15.1355C15.1355 4.65289 14.2826 3.80005 13.2306 3.80005V5.80005ZM10.516 3.80005C9.46399 3.80005 8.61115 4.65288 8.61115 5.70491H10.6112C10.6112 5.75746 10.5686 5.80005 10.516 5.80005V3.80005ZM3.30476 15.5839H6.01934V13.5839H3.30476V15.5839ZM5.9242 15.4887V18.2033H7.9242V15.4887H5.9242ZM6.01934 18.1082H3.30476V20.1082H6.01934V18.1082ZM3.3999 18.2033V15.4887H1.3999V18.2033H3.3999ZM3.30476 18.1082C3.35731 18.1082 3.3999 18.1507 3.3999 18.2033H1.3999C1.3999 19.2553 2.25274 20.1082 3.30476 20.1082V18.1082ZM5.9242 18.2033C5.9242 18.1508 5.9668 18.1082 6.01934 18.1082V20.1082C7.07137 20.1082 7.9242 19.2553 7.9242 18.2033H5.9242ZM6.01934 15.5839C5.9668 15.5839 5.9242 15.5413 5.9242 15.4887H7.9242C7.9242 14.4367 7.07137 13.5839 6.01934 13.5839V15.5839ZM3.30476 13.5839C2.25274 13.5839 1.3999 14.4367 1.3999 15.4887H3.3999C3.3999 15.5413 3.35731 15.5839 3.30476 15.5839V13.5839ZM17.9805 15.5839H20.695V13.5839H17.9805V15.5839ZM20.5999 15.4887V18.2033H22.5999V15.4887H20.5999ZM20.695 18.1082H17.9805V20.1082H20.695V18.1082ZM18.0756 18.2033V15.4887H16.0756V18.2033H18.0756ZM17.9805 18.1082C18.033 18.1082 18.0756 18.1507 18.0756 18.2033H16.0756C16.0756 19.2553 16.9284 20.1082 17.9805 20.1082V18.1082ZM20.5999 18.2033C20.5999 18.1508 20.6425 18.1082 20.695 18.1082V20.1082C21.7471 20.1082 22.5999 19.2553 22.5999 18.2033H20.5999ZM20.695 15.5839C20.6425 15.5839 20.5999 15.5413 20.5999 15.4887H22.5999C22.5999 14.4367 21.7471 13.5839 20.695 13.5839V15.5839ZM17.9805 13.5839C16.9284 13.5839 16.0756 14.4367 16.0756 15.4887H18.0756C18.0756 15.5413 18.033 15.5839 17.9805 15.5839V13.5839ZM9.12626 5.63451H3.62288V7.63451H9.12626V5.63451ZM20.3999 5.63451H14.6297V7.63451H20.3999V5.63451ZM3.84585 13.3609V14.5839H5.84585V13.3609H3.84585ZM18.5216 13.3609V14.5839H20.5216V13.3609H18.5216ZM5.84585 13.3609C5.84585 11.0162 7.11851 8.96766 9.0155 7.8703L8.01405 6.13909C5.52447 7.57924 3.84585 10.2734 3.84585 13.3609H5.84585ZM15.3519 7.8703C17.2489 8.96766 18.5216 11.0162 18.5216 13.3609H20.5216C20.5216 10.2734 18.8429 7.57924 16.3534 6.13909L15.3519 7.8703Z" fill="black"/>
</svg>
