<svg width="24" height="24" viewBox="0 0 24 24" fill="none" xmlns="http://www.w3.org/2000/svg">
<path d="M2.3999 4.7999C2.3999 3.47442 3.47442 2.3999 4.7999 2.3999H19.1999C20.5254 2.3999 21.5999 3.47442 21.5999 4.7999V19.1999C21.5999 20.5254 20.5254 21.5999 19.1999 21.5999H4.7999C3.47442 21.5999 2.3999 20.5254 2.3999 19.1999V4.7999Z" stroke="black" stroke-width="2"/>
<path d="M8.3999 16.7999H7.3999V17.7999H8.3999V16.7999ZM8.3999 7.19995V6.19995H7.3999V7.19995H8.3999ZM13.2599 15.7999H8.3999V17.7999H13.2599V15.7999ZM9.3999 16.7999V12H7.3999V16.7999H9.3999ZM16.5999 14.4C16.5999 12.5462 15.1282 11 13.2599 11V13C13.9762 13 14.5999 13.6027 14.5999 14.4H16.5999ZM13.2599 17.7999C15.1282 17.7999 16.5999 16.2537 16.5999 14.4H14.5999C14.5999 15.1972 13.9762 15.7999 13.2599 15.7999V17.7999ZM12.5399 11H8.3999V13H12.5399V11ZM9.3999 12V7.19995H7.3999V12H9.3999ZM12.5399 6.19995H8.3999V8.19995H12.5399V6.19995ZM15.8799 9.59995C15.8799 7.7462 14.4082 6.19995 12.5399 6.19995V8.19995C13.2562 8.19995 13.8799 8.80273 13.8799 9.59995H15.8799ZM12.5399 13C14.4082 13 15.8799 11.4537 15.8799 9.59995H13.8799C13.8799 10.3972 13.2562 11 12.5399 11V13ZM13.2599 11H8.3999V13H13.2599V11Z" fill="black"/>
</svg>
