<svg width="24" height="24" viewBox="0 0 24 24" fill="none" xmlns="http://www.w3.org/2000/svg">
<path d="M2.3999 3.6C2.3999 2.93726 2.93716 2.4 3.5999 2.4H5.9999C6.66264 2.4 7.1999 2.93726 7.1999 3.6V6C7.1999 6.66274 6.66264 7.2 5.9999 7.2H3.5999C2.93716 7.2 2.3999 6.66274 2.3999 6V3.6Z" stroke="black" stroke-width="2"/>
<path d="M9.5999 3.6C9.5999 2.93726 10.1372 2.4 10.7999 2.4H13.1999C13.8626 2.4 14.3999 2.93726 14.3999 3.6V6C14.3999 6.66274 13.8626 7.2 13.1999 7.2H10.7999C10.1372 7.2 9.5999 6.66274 9.5999 6V3.6Z" stroke="black" stroke-width="2"/>
<path d="M16.7999 3.6C16.7999 2.93726 17.3372 2.4 17.9999 2.4H20.3999C21.0626 2.4 21.5999 2.93726 21.5999 3.6V6C21.5999 6.66274 21.0626 7.2 20.3999 7.2H17.9999C17.3372 7.2 16.7999 6.66274 16.7999 6V3.6Z" stroke="black" stroke-width="2"/>
<path d="M2.3999 10.8C2.3999 10.1373 2.93716 9.6 3.5999 9.6H5.9999C6.66264 9.6 7.1999 10.1373 7.1999 10.8V13.2C7.1999 13.8627 6.66264 14.4 5.9999 14.4H3.5999C2.93716 14.4 2.3999 13.8627 2.3999 13.2V10.8Z" stroke="black" stroke-width="2"/>
<path d="M9.5999 10.8C9.5999 10.1373 10.1372 9.6 10.7999 9.6H13.1999C13.8626 9.6 14.3999 10.1373 14.3999 10.8V13.2C14.3999 13.8627 13.8626 14.4 13.1999 14.4H10.7999C10.1372 14.4 9.5999 13.8627 9.5999 13.2V10.8Z" stroke="black" stroke-width="2"/>
<path d="M16.7999 10.8C16.7999 10.1373 17.3372 9.6 17.9999 9.6H20.3999C21.0626 9.6 21.5999 10.1373 21.5999 10.8V13.2C21.5999 13.8627 21.0626 14.4 20.3999 14.4H17.9999C17.3372 14.4 16.7999 13.8627 16.7999 13.2V10.8Z" stroke="black" stroke-width="2"/>
<path d="M2.3999 18C2.3999 17.3373 2.93716 16.8 3.5999 16.8H5.9999C6.66264 16.8 7.1999 17.3373 7.1999 18V20.4C7.1999 21.0627 6.66264 21.6 5.9999 21.6H3.5999C2.93716 21.6 2.3999 21.0627 2.3999 20.4V18Z" stroke="black" stroke-width="2"/>
<path d="M9.5999 18C9.5999 17.3373 10.1372 16.8 10.7999 16.8H13.1999C13.8626 16.8 14.3999 17.3373 14.3999 18V20.4C14.3999 21.0627 13.8626 21.6 13.1999 21.6H10.7999C10.1372 21.6 9.5999 21.0627 9.5999 20.4V18Z" stroke="black" stroke-width="2"/>
<path d="M16.7999 18C16.7999 17.3373 17.3372 16.8 17.9999 16.8H20.3999C21.0626 16.8 21.5999 17.3373 21.5999 18V20.4C21.5999 21.0627 21.0626 21.6 20.3999 21.6H17.9999C17.3372 21.6 16.7999 21.0627 16.7999 20.4V18Z" stroke="black" stroke-width="2"/>
</svg>
