<svg width="25" height="24" viewBox="0 0 25 24" fill="none" xmlns="http://www.w3.org/2000/svg">
<path d="M8.51145 16.7997V11.8151M8.51145 16.7997H6.84992M8.51145 16.7997H10.173M8.51145 11.8151V6.83049M8.51145 11.8151H15.9884M8.51145 6.83049H6.84992M8.51145 6.83049H10.173M15.9884 11.8151V16.7997M15.9884 11.8151V6.83049M15.9884 16.7997H14.3268M15.9884 16.7997H17.6499M15.9884 6.83049H14.3268M15.9884 6.83049H17.6499M5.05002 21.5999H19.45C20.7755 21.5999 21.85 20.5254 21.85 19.1999V4.7999C21.85 3.47442 20.7755 2.3999 19.45 2.3999H5.05002C3.72454 2.3999 2.65002 3.47442 2.65002 4.7999V19.1999C2.65002 20.5254 3.72454 21.5999 5.05002 21.5999Z" stroke="black" stroke-width="2" stroke-linecap="round" stroke-linejoin="round"/>
</svg>
