<svg width="25" height="24" viewBox="0 0 25 24" fill="none" xmlns="http://www.w3.org/2000/svg">
<path d="M18.4132 11.3593C18.4269 11.8873 18.2322 12.4197 17.8293 12.8227L12.6683 17.9837C11.8888 18.7631 10.625 18.7631 9.84558 17.9837L4.68457 12.8227C4.28161 12.4197 4.08697 11.8873 4.10065 11.3593M18.4132 11.3593C18.4016 10.9103 18.2392 10.4644 17.9263 10.104C17.8901 10.0245 17.8394 9.95004 17.774 9.88464L11.3477 3.4584M18.4132 11.3593H4.10065M4.10065 11.3593C4.11343 10.866 4.30807 10.3765 4.68457 10C4.81726 9.8673 11.3477 3.4584 11.3477 3.4584M11.3477 3.4584L10.2892 2.3999M5.1105 21.5999H15.721M20.0495 15.1936C19.9867 15.0944 19.8791 15.0313 19.7624 15.0313C19.6458 15.0313 19.5382 15.0945 19.4754 15.1936C19.2511 15.5632 18.5245 16.8254 18.5245 17.3753C18.5245 18.0604 19.0807 18.6194 19.7624 18.6194C20.4441 18.6194 21.0003 18.0605 21.0003 17.3753C21.0003 16.8164 20.2738 15.5632 20.0495 15.1936Z" stroke="black" stroke-width="2" stroke-linecap="round" stroke-linejoin="round"/>
</svg>
