<svg width="25" height="24" viewBox="0 0 25 24" fill="none" xmlns="http://www.w3.org/2000/svg">
<path d="M12.7503 5.9999V6.03313M6.78325 12.0002H6.75002M16.993 7.75745L16.9695 7.78095M8.5312 16.2192L8.5077 16.2427M8.5312 7.78057L8.5077 7.75707M12.75 21.5999C7.44809 21.5999 3.15002 17.3018 3.15002 11.9999C3.15002 6.69797 7.44809 2.3999 12.75 2.3999C18.052 2.3999 22.35 6.69797 22.35 11.9999C22.35 13.614 20.8586 14.6879 19.2446 14.6879H18.618C18.2945 14.6879 17.9754 14.7632 17.686 14.9079C16.6566 15.4226 16.2393 16.6744 16.754 17.7039C16.8987 17.9932 16.974 18.3123 16.974 18.6359V18.825C16.974 19.9256 16.3564 20.9678 15.295 21.2589C14.4845 21.4812 13.6311 21.5999 12.75 21.5999Z" stroke="black" stroke-width="2" stroke-linecap="round" stroke-linejoin="round"/>
</svg>
