<svg width="25" height="24" viewBox="0 0 25 24" fill="none" xmlns="http://www.w3.org/2000/svg">
<path d="M20.3322 13.8978C20.5169 13.3773 20.2447 12.8056 19.7242 12.6209C19.2037 12.4363 18.632 12.7085 18.4473 13.229L20.3322 13.8978ZM17.3563 19.294L18.2987 19.6284L18.2987 19.6284L17.3563 19.294ZM15.9849 20.4814L16.181 21.462L16.181 21.462L15.9849 20.4814ZM4.01362 22.8757L3.0295 22.6982C2.97076 23.024 3.077 23.3577 3.31326 23.5895C3.54952 23.8213 3.88518 23.9212 4.20974 23.8563L4.01362 22.8757ZM6.19825 10.7609L7.18237 10.9384L7.18237 10.9384L6.19825 10.7609ZM7.45858 9.33309L7.75685 10.2876L7.75685 10.2876L7.45858 9.33309ZM13.6242 8.45403C14.1513 8.28929 14.4451 7.72842 14.2804 7.20127C14.1157 6.67413 13.5548 6.38033 13.0277 6.54507L13.6242 8.45403ZM3.52308 21.952C3.13256 22.3425 3.13256 22.9757 3.52308 23.3662C3.91361 23.7568 4.54677 23.7568 4.9373 23.3662L3.52308 21.952ZM10.1349 18.1687C10.5254 17.7781 10.5254 17.145 10.1349 16.7544C9.74434 16.3639 9.11117 16.3639 8.72065 16.7544L10.1349 18.1687ZM22.8548 9.23207L23.5619 8.52496L23.5619 8.52496L22.8548 9.23207ZM22.8548 10.9646L23.5619 11.6717L23.5619 11.6717L22.8548 10.9646ZM15.9247 4.0345L15.2176 3.32739L15.2176 3.32739L15.9247 4.0345ZM17.6572 4.0345L16.9501 4.74161L16.9501 4.74161L17.6572 4.0345ZM13.7591 7.93268L13.052 8.63978L13.052 8.63978L13.7591 7.93268ZM13.7591 6.20015L14.4662 6.90726L14.4662 6.90726L13.7591 6.20015ZM18.9566 13.1302L19.6637 12.4231L19.6637 12.4231L18.9566 13.1302ZM20.6891 13.1302L19.982 12.4231L19.982 12.4231L20.6891 13.1302ZM3.59413 6.60038C3.59413 7.15266 4.04185 7.60038 4.59413 7.60038C5.14642 7.60038 5.59413 7.15266 5.59413 6.60038L3.59413 6.60038ZM5.59413 1.31201C5.59413 0.759727 5.14642 0.312012 4.59413 0.312012C4.04185 0.312012 3.59413 0.759727 3.59413 1.31201L5.59413 1.31201ZM1.94995 2.95619C1.39767 2.95619 0.949951 3.40391 0.949951 3.95619C0.949951 4.50848 1.39767 4.95619 1.94995 4.95619L1.94995 2.95619ZM7.23831 4.95619C7.7906 4.95619 8.23831 4.50848 8.23831 3.95619C8.23831 3.40391 7.7906 2.95619 7.23831 2.95619L7.23831 4.95619ZM18.4473 13.229L16.4139 18.9596L18.2987 19.6284L20.3322 13.8978L18.4473 13.229ZM15.7888 19.5009L3.81751 21.8951L4.20974 23.8563L16.181 21.462L15.7888 19.5009ZM4.99775 23.0532L7.18237 10.9384L5.21412 10.5835L3.0295 22.6982L4.99775 23.0532ZM7.75685 10.2876L13.6242 8.45403L13.0277 6.54507L7.1603 8.37861L7.75685 10.2876ZM7.18237 10.9384C7.23773 10.6314 7.45911 10.3806 7.75685 10.2876L7.1603 8.37861C6.15162 8.69383 5.40166 9.54347 5.21412 10.5835L7.18237 10.9384ZM16.4139 18.9596C16.3153 19.2375 16.0779 19.443 15.7888 19.5009L16.181 21.462C17.1604 21.2661 17.9647 20.5697 18.2987 19.6284L16.4139 18.9596ZM4.9373 23.3662L10.1349 18.1687L8.72065 16.7544L3.52308 21.952L4.9373 23.3662ZM19.6637 12.4231L14.4662 7.22557L13.052 8.63978L18.2495 13.8374L19.6637 12.4231ZM14.4662 6.90726L16.6318 4.74161L15.2176 3.32739L13.052 5.49305L14.4662 6.90726ZM16.9501 4.74161L22.1477 9.93918L23.5619 8.52496L18.3643 3.32739L16.9501 4.74161ZM22.1477 10.2575L19.982 12.4231L21.3963 13.8374L23.5619 11.6717L22.1477 10.2575ZM22.1477 9.93918C22.2356 10.0271 22.2356 10.1696 22.1477 10.2575L23.5619 11.6717C24.4309 10.8028 24.4309 9.39391 23.5619 8.52496L22.1477 9.93918ZM16.6318 4.74161C16.7197 4.65371 16.8622 4.65371 16.9501 4.74161L18.3643 3.32739C17.4954 2.45845 16.0866 2.45845 15.2176 3.32739L16.6318 4.74161ZM14.4662 7.22557C14.3783 7.13767 14.3783 6.99516 14.4662 6.90726L13.052 5.49305C12.183 6.362 12.183 7.77084 13.052 8.63978L14.4662 7.22557ZM18.2495 13.8374C19.1185 14.7063 20.5273 14.7063 21.3963 13.8374L19.982 12.4231C19.8941 12.511 19.7516 12.511 19.6637 12.4231L18.2495 13.8374ZM10.568 14.2705C11.1343 13.7042 12.0525 13.7042 12.6188 14.2705L14.033 12.8563C12.6857 11.5089 10.5011 11.5089 9.15378 12.8563L10.568 14.2705ZM12.6188 14.2705C13.1851 14.8368 13.1851 15.755 12.6188 16.3213L14.033 17.7355C15.3804 16.3882 15.3804 14.2036 14.033 12.8563L12.6188 14.2705ZM12.6188 16.3213C12.0525 16.8876 11.1343 16.8876 10.568 16.3213L9.15378 17.7355C10.5011 19.0829 12.6857 19.0829 14.033 17.7355L12.6188 16.3213ZM10.568 16.3213C10.0017 15.755 10.0017 14.8368 10.568 14.2705L9.15378 12.8563C7.80641 14.2036 7.80641 16.3882 9.15378 17.7355L10.568 16.3213ZM5.59413 6.60038L5.59413 3.95619L3.59413 3.95619L3.59413 6.60038L5.59413 6.60038ZM5.59413 3.95619L5.59413 1.31201L3.59413 1.31201L3.59413 3.95619L5.59413 3.95619ZM1.94995 4.95619L4.59413 4.95619L4.59413 2.95619L1.94995 2.95619L1.94995 4.95619ZM4.59413 4.95619L7.23831 4.95619L7.23831 2.95619L4.59413 2.95619L4.59413 4.95619Z" fill="black"/>
</svg>
