<svg width="25" height="24" viewBox="0 0 25 24" fill="none" xmlns="http://www.w3.org/2000/svg">
<path d="M6.11299 2.3999C4.47659 2.3999 3.15002 3.72646 3.15002 5.36286M14.8834 2.3999H10.6167M22.35 5.36287C22.35 3.72647 21.0235 2.3999 19.3871 2.3999M3.15002 9.86657V14.1332M22.35 14.1332V9.86657M3.15002 18.6369C3.15002 20.2733 4.47659 21.5999 6.11299 21.5999M19.3871 21.5999C21.0235 21.5999 22.35 20.2733 22.35 18.6369M10.6167 21.5999H14.8834M3.15002 11.9999H10.6167C11.7949 11.9999 12.75 12.955 12.75 14.1332V21.5999H6.35002C4.58271 21.5999 3.15002 20.1672 3.15002 18.3999V11.9999Z" stroke="black" stroke-width="2" stroke-linecap="round"/>
</svg>
