<svg width="25" height="24" viewBox="0 0 25 24" fill="none" xmlns="http://www.w3.org/2000/svg">
<path d="M9.33002 8.5799L22.35 19.1999M22.35 4.7999L9.33002 15.4199M6.75002 9.5999C4.7618 9.5999 3.15002 7.98813 3.15002 5.9999C3.15003 4.01168 4.7618 2.3999 6.75002 2.3999C8.73825 2.3999 10.35 4.01168 10.35 5.9999C10.35 7.98813 8.73825 9.5999 6.75002 9.5999ZM6.75002 21.5999C4.7618 21.5999 3.15002 19.9881 3.15002 17.9999C3.15002 16.0117 4.7618 14.3999 6.75002 14.3999C8.73825 14.3999 10.35 16.0117 10.35 17.9999C10.35 19.9881 8.73825 21.5999 6.75002 21.5999Z" stroke="black" stroke-width="2" stroke-linecap="round" stroke-linejoin="round"/>
</svg>
