<svg width="25" height="24" viewBox="0 0 25 24" fill="none" xmlns="http://www.w3.org/2000/svg">
<path d="M8.79397 9.24405L20.6846 18.9429M20.6846 5.79192L8.79397 15.4907M17.945 12.3679L17.9235 12.3893M22.35 12.3678L22.3286 12.3893M6.43776 10.1756C4.62199 10.1756 3.15002 8.7036 3.15002 6.88783C3.15002 5.07207 4.622 3.6001 6.43776 3.6001C8.25353 3.6001 9.7255 5.07207 9.7255 6.88784C9.7255 8.7036 8.25353 10.1756 6.43776 10.1756ZM6.43776 21.1347C4.62199 21.1347 3.15002 19.6627 3.15002 17.847C3.15002 16.0312 4.62199 14.5592 6.43776 14.5592C8.25353 14.5592 9.7255 16.0312 9.7255 17.847C9.7255 19.6627 8.25353 21.1347 6.43776 21.1347Z" stroke="black" stroke-width="2" stroke-linecap="round" stroke-linejoin="round"/>
</svg>
