<svg width="25" height="24" viewBox="0 0 25 24" fill="none" xmlns="http://www.w3.org/2000/svg">
<g clip-path="url(#clip0_295_2916)">
<path d="M4.34983 9.39505L21.1498 16.7999M21.1498 7.1999L4.34983 14.6047M18.1502 12.0002L18.1267 12.0237M22.9736 12.0002L22.9501 12.0237M5.54983 9.5999C3.5616 9.5999 1.94983 7.98813 1.94983 5.9999C1.94983 4.01168 3.5616 2.3999 5.54983 2.3999C7.53805 2.3999 9.14983 4.01168 9.14983 5.9999C9.14983 7.98813 7.53805 9.5999 5.54983 9.5999ZM5.54983 21.5999C3.5616 21.5999 1.94983 19.9881 1.94983 17.9999C1.94983 16.0117 3.5616 14.3999 5.54983 14.3999C7.53805 14.3999 9.14983 16.0117 9.14983 17.9999C9.14983 19.9881 7.53805 21.5999 5.54983 21.5999Z" stroke="black" stroke-width="2" stroke-linecap="round" stroke-linejoin="round"/>
</g>
<defs>
<clipPath id="clip0_295_2916">
<rect width="24" height="24" fill="white" transform="translate(24.75) rotate(90)"/>
</clipPath>
</defs>
</svg>
