<svg width="24" height="24" viewBox="0 0 24 24" fill="none" xmlns="http://www.w3.org/2000/svg">
<path d="M17.8737 16.5473L20.2737 7.45253M15.3474 19.0736H6.75791M3.72633 16.2946L6.12633 7.70516M8.65264 4.92622H17.4947M4.61054 7.45253H7.64212C8.20022 7.45253 8.65264 7.00011 8.65264 6.44201V3.41043C8.65264 2.85233 8.20022 2.3999 7.64212 2.3999H4.61054C4.05244 2.3999 3.60001 2.85233 3.60001 3.41043V6.44201C3.60001 7.00011 4.05244 7.45253 4.61054 7.45253ZM18.7579 7.45253H21.7895C22.3476 7.45253 22.8 7.00011 22.8 6.44201V3.41043C22.8 2.85233 22.3476 2.3999 21.7895 2.3999H18.7579C18.1998 2.3999 17.7474 2.85233 17.7474 3.41043V6.44201C17.7474 7.00011 18.1998 7.45253 18.7579 7.45253ZM2.21054 21.5999H5.24212C5.80022 21.5999 6.25264 21.1475 6.25264 20.5894V17.5578C6.25264 16.9997 5.80022 16.5473 5.24212 16.5473H2.21054C1.65244 16.5473 1.20001 16.9997 1.20001 17.5578V20.5894C1.20001 21.1475 1.65244 21.5999 2.21054 21.5999ZM16.3579 21.5999H19.3895C19.9476 21.5999 20.4 21.1475 20.4 20.5894V17.5578C20.4 16.9997 19.9476 16.5473 19.3895 16.5473H16.3579C15.7998 16.5473 15.3474 16.9997 15.3474 17.5578V20.5894C15.3474 21.1475 15.7998 21.5999 16.3579 21.5999Z" stroke="black" stroke-width="2" stroke-linecap="round"/>
</svg>
