<svg width="24" height="24" viewBox="0 0 24 24" fill="none" xmlns="http://www.w3.org/2000/svg">
<path d="M19.0737 16.5473V7.45253M16.5474 19.0736H7.95792M4.92634 16.2946V7.70516M7.45266 4.92622H16.2948M3.41055 7.45253H6.44213C7.00023 7.45253 7.45266 7.00011 7.45266 6.44201V3.41043C7.45266 2.85233 7.00023 2.3999 6.44213 2.3999H3.41055C2.85245 2.3999 2.40002 2.85233 2.40002 3.41043V6.44201C2.40002 7.00011 2.85245 7.45253 3.41055 7.45253ZM17.5579 7.45253H20.5895C21.1476 7.45253 21.6 7.00011 21.6 6.44201V3.41043C21.6 2.85233 21.1476 2.3999 20.5895 2.3999H17.5579C16.9998 2.3999 16.5474 2.85233 16.5474 3.41043V6.44201C16.5474 7.00011 16.9998 7.45253 17.5579 7.45253ZM3.41055 21.5999H6.44213C7.00023 21.5999 7.45266 21.1475 7.45266 20.5894V17.5578C7.45266 16.9997 7.00023 16.5473 6.44213 16.5473H3.41055C2.85245 16.5473 2.40002 16.9997 2.40002 17.5578V20.5894C2.40002 21.1475 2.85245 21.5999 3.41055 21.5999ZM17.5579 21.5999H20.5895C21.1476 21.5999 21.6 21.1475 21.6 20.5894V17.5578C21.6 16.9997 21.1476 16.5473 20.5895 16.5473H17.5579C16.9998 16.5473 16.5474 16.9997 16.5474 17.5578V20.5894C16.5474 21.1475 16.9998 21.5999 17.5579 21.5999Z" stroke="black" stroke-width="2" stroke-linecap="round"/>
</svg>
