<svg width="24" height="24" viewBox="0 0 24 24" fill="none" xmlns="http://www.w3.org/2000/svg">
<path d="M10.2089 16.1999H12.1242M12.1242 16.1999H14.1281M12.1242 16.1999V7.7999M12.1242 7.7999H9.00002C8.66865 7.7999 8.40002 8.06853 8.40002 8.3999V9.28225M12.1242 7.7999H15C15.3314 7.7999 15.6 8.06853 15.6 8.3999V9.52931M4.80002 21.5999H19.2C20.5255 21.5999 21.6 20.5254 21.6 19.1999V4.7999C21.6 3.47442 20.5255 2.3999 19.2 2.3999H4.80002C3.47454 2.3999 2.40002 3.47442 2.40002 4.7999V19.1999C2.40002 20.5254 3.47454 21.5999 4.80002 21.5999Z" stroke="black" stroke-width="2" stroke-linecap="round" stroke-linejoin="round"/>
</svg>
