<svg width="24" height="24" viewBox="0 0 24 24" fill="none" xmlns="http://www.w3.org/2000/svg">
<path d="M17.6221 16.3214C17.2252 15.9374 16.5921 15.9479 16.2081 16.3448C15.8241 16.7417 15.8346 17.3748 16.2315 17.7588L17.6221 16.3214ZM19.7047 21.1188C20.1016 21.5028 20.7347 21.4923 21.1187 21.0954C21.5027 20.6985 21.4922 20.0654 21.0953 19.6814L19.7047 21.1188ZM10.4 14.4001C10.4 14.9524 10.8477 15.4001 11.4 15.4001C11.9523 15.4001 12.4 14.9524 12.4 14.4001H10.4ZM12.4 8.4001C12.4 7.84781 11.9523 7.4001 11.4 7.4001C10.8477 7.4001 10.4 7.84781 10.4 8.4001H12.4ZM8.39998 10.4001C7.84769 10.4001 7.39998 10.8478 7.39998 11.4001C7.39998 11.9524 7.84769 12.4001 8.39998 12.4001V10.4001ZM14.4 12.4001C14.9523 12.4001 15.4 11.9524 15.4 11.4001C15.4 10.8478 14.9523 10.4001 14.4 10.4001V12.4001ZM18.28 11.4401C18.28 15.2177 15.2176 18.2801 11.44 18.2801V20.2801C16.3222 20.2801 20.28 16.3223 20.28 11.4401H18.28ZM11.44 18.2801C7.66235 18.2801 4.59998 15.2177 4.59998 11.4401H2.59998C2.59998 16.3223 6.55778 20.2801 11.44 20.2801V18.2801ZM4.59998 11.4401C4.59998 7.66247 7.66235 4.6001 11.44 4.6001V2.6001C6.55778 2.6001 2.59998 6.5579 2.59998 11.4401H4.59998ZM11.44 4.6001C15.2176 4.6001 18.28 7.66247 18.28 11.4401H20.28C20.28 6.5579 16.3222 2.6001 11.44 2.6001V4.6001ZM16.2315 17.7588L19.7047 21.1188L21.0953 19.6814L17.6221 16.3214L16.2315 17.7588ZM12.4 14.4001V11.4001H10.4V14.4001H12.4ZM12.4 11.4001V8.4001H10.4V11.4001H12.4ZM8.39998 12.4001H11.4V10.4001H8.39998V12.4001ZM11.4 12.4001H14.4V10.4001H11.4V12.4001Z" fill="black"/>
</svg>
