<svg width="24" height="24" viewBox="0 0 24 24" fill="none" xmlns="http://www.w3.org/2000/svg">
<path d="M18.9 11.7003V8.70034M18.9 8.70034V5.70034M18.9 8.70034L21.9 8.70034M18.9 8.70034H15.9M14.1 5.70034V3.90034M14.1 3.90034V2.10034M14.1 3.90034L15.9 3.90034M14.1 3.90034L12.3 3.90034M21.2999 14.9398C20.3976 15.2134 19.4403 15.3605 18.4487 15.3605C13.0307 15.3605 8.63851 10.9684 8.63851 5.55037C8.63851 4.55915 8.78552 3.60227 9.05892 2.70034C5.03148 3.92172 2.09998 7.66338 2.09998 12.0897C2.09998 17.5077 6.49213 21.8999 11.9101 21.8999C16.3369 21.8999 20.0789 18.9678 21.2999 14.9398Z" stroke="black" stroke-width="2" stroke-linecap="round" stroke-linejoin="round"/>
</svg>
