<svg width="24" height="24" viewBox="0 0 24 24" fill="none" xmlns="http://www.w3.org/2000/svg">
<path d="M6.12617 9.91302L17.7186 9.91295C19.7765 9.91295 21.4448 8.23109 21.4448 6.15642C21.4448 4.08175 19.7765 2.3999 17.7186 2.3999L6.12617 2.39998M6.12617 9.91302C4.06828 9.91302 2.40002 8.23117 2.40002 6.1565C2.40002 4.08183 4.06828 2.39998 6.12617 2.39998M6.12617 9.91302C8.18406 9.91302 9.85232 8.23117 9.85232 6.1565C9.85232 4.08183 8.18406 2.39998 6.12617 2.39998M17.8739 14.0869H6.12617C4.06828 14.0869 2.40002 15.7687 2.40002 17.8434C2.40002 19.9181 4.06828 21.5999 6.12617 21.5999H17.8739M17.8739 14.0869C19.9318 14.0869 21.6 15.7687 21.6 17.8434C21.6 19.9181 19.9318 21.5999 17.8739 21.5999M17.8739 14.0869C15.816 14.0869 14.1477 15.7687 14.1477 17.8434C14.1477 19.9181 15.816 21.5999 17.8739 21.5999" stroke="black" stroke-width="2"/>
</svg>
