<svg width="24" height="24" viewBox="0 0 24 24" fill="none" xmlns="http://www.w3.org/2000/svg">
<path d="M8.25 12.0132V21.0002L14.25 16.1252L8.26875 12.0002M8.25 12.0132V11.9873L8.26875 12.0002M8.25 12.0132L8.26875 12.0002" stroke="black" stroke-width="2" stroke-linecap="round" stroke-linejoin="round"/>
<path d="M8.25 12.0128V11.9869M8.25 12.0128L8.26875 11.9998L8.25 11.9869M8.25 12.0128L3 15.6335M8.25 11.9869L3 8.36621" stroke="black" stroke-width="2" stroke-linecap="round" stroke-linejoin="round"/>
<path d="M8.25 11.9871V12.0129L8.26875 12M8.25 11.9871V3L14.25 7.875L8.26875 12M8.25 11.9871L8.26875 12" stroke="black" stroke-width="2" stroke-linecap="round" stroke-linejoin="round"/>
<path d="M16.5 10.051C17.2614 10.4401 17.7736 11.1672 17.7736 12C17.7736 12.8328 17.2614 13.56 16.5 13.949M18.4528 7.5C19.9755 8.39824 21 10.0771 21 12C21 13.9229 19.9755 15.6018 18.4528 16.5" stroke="black" stroke-width="2" stroke-linecap="round"/>
</svg>
