<svg width="24" height="24" viewBox="0 0 24 24" fill="none" xmlns="http://www.w3.org/2000/svg">
<path d="M4.7999 20.76H19.1999C20.5254 20.76 21.5999 19.6855 21.5999 18.36V8.51999C21.5999 7.19451 20.5254 6.11999 19.1999 6.11999H16.7999L15.1199 3.23999H8.8799L7.1999 6.11999H4.7999C3.47442 6.11999 2.3999 7.1945 2.3999 8.51999V18.36C2.3999 19.6855 3.47442 20.76 4.7999 20.76Z" stroke="black" stroke-width="2" stroke-linejoin="round"/>
<path d="M15.5999 12.84C15.5999 14.8282 13.9881 16.44 11.9999 16.44C10.0117 16.44 8.3999 14.8282 8.3999 12.84C8.3999 10.8518 10.0117 9.23999 11.9999 9.23999C13.9881 9.23999 15.5999 10.8518 15.5999 12.84Z" stroke="black" stroke-width="2"/>
</svg>
