<svg width="24" height="24" viewBox="0 0 24 24" fill="none" xmlns="http://www.w3.org/2000/svg">
<path d="M7.19999 6.11999V7.11999C7.55566 7.11999 7.88456 6.93108 8.06377 6.62386L7.19999 6.11999ZM8.87999 3.23999V2.23999C8.52433 2.23999 8.19542 2.4289 8.01621 2.73612L8.87999 3.23999ZM15.12 3.23999L15.9838 2.73612C15.8046 2.4289 15.4757 2.23999 15.12 2.23999V3.23999ZM16.8 6.11999L15.9362 6.62386C16.1154 6.93108 16.4443 7.11999 16.8 7.11999V6.11999ZM3.39999 18.36V8.51999H1.39999V18.36H3.39999ZM4.79999 7.11999H7.19999V5.11999H4.79999V7.11999ZM8.06377 6.62386L9.74377 3.74386L8.01621 2.73612L6.33621 5.61612L8.06377 6.62386ZM8.87999 4.23999H15.12V2.23999H8.87999V4.23999ZM14.2562 3.74386L15.9362 6.62386L17.6638 5.61612L15.9838 2.73612L14.2562 3.74386ZM16.8 7.11999H19.2V5.11999H16.8V7.11999ZM20.6 8.51999V18.36H22.6V8.51999H20.6ZM20.6 18.36C20.6 19.1332 19.9732 19.76 19.2 19.76V21.76C21.0778 21.76 22.6 20.2378 22.6 18.36H20.6ZM19.2 7.11999C19.9732 7.11999 20.6 7.74679 20.6 8.51999H22.6C22.6 6.64222 21.0778 5.11999 19.2 5.11999V7.11999ZM3.39999 8.51999C3.39999 7.74679 4.02679 7.11999 4.79999 7.11999V5.11999C2.92223 5.11999 1.39999 6.64222 1.39999 8.51999H3.39999ZM4.79999 19.76C4.0268 19.76 3.39999 19.1332 3.39999 18.36H1.39999C1.39999 20.2378 2.92223 21.76 4.79999 21.76V19.76ZM14.6 12.84C14.6 14.2759 13.4359 15.44 12 15.44V17.44C14.5405 17.44 16.6 15.3805 16.6 12.84H14.6ZM12 15.44C10.5641 15.44 9.39999 14.2759 9.39999 12.84H7.39999C7.39999 15.3805 9.45948 17.44 12 17.44V15.44ZM9.39999 12.84C9.39999 11.404 10.5641 10.24 12 10.24V8.23999C9.45948 8.23999 7.39999 10.2995 7.39999 12.84H9.39999ZM12 10.24C13.4359 10.24 14.6 11.404 14.6 12.84H16.6C16.6 10.2995 14.5405 8.23999 12 8.23999V10.24ZM19.2 19.76H4.79999V21.76H19.2V19.76Z" fill="black"/>
</svg>
