<svg width="24" height="24" viewBox="0 0 24 24" fill="none" xmlns="http://www.w3.org/2000/svg">
<path d="M3.39999 18.12V5.87998H1.39999V18.12H3.39999ZM4.79999 4.47998H19.2V2.47998H4.79999V4.47998ZM20.6 5.87998V18.12H22.6V5.87998H20.6ZM20.6 18.12C20.6 18.8932 19.9732 19.52 19.2 19.52V21.52C21.0778 21.52 22.6 19.9978 22.6 18.12H20.6ZM19.2 4.47998C19.9732 4.47998 20.6 5.10678 20.6 5.87998H22.6C22.6 4.00221 21.0778 2.47998 19.2 2.47998V4.47998ZM3.39999 5.87998C3.39999 5.10678 4.02679 4.47998 4.79999 4.47998V2.47998C2.92223 2.47998 1.39999 4.00221 1.39999 5.87998H3.39999ZM4.79999 19.52C4.0268 19.52 3.39999 18.8932 3.39999 18.12H1.39999C1.39999 19.9978 2.92223 21.52 4.79999 21.52V19.52ZM14.6 12.0001C14.6 13.436 13.4359 14.6001 12 14.6001V16.6001C14.5405 16.6001 16.6 14.5406 16.6 12.0001H14.6ZM12 14.6001C10.5641 14.6001 9.39999 13.436 9.39999 12.0001H7.39999C7.39999 14.5406 9.45948 16.6001 12 16.6001V14.6001ZM9.39999 12.0001C9.39999 10.5642 10.5641 9.4001 12 9.4001V7.4001C9.45948 7.4001 7.39999 9.45959 7.39999 12.0001H9.39999ZM12 9.4001C13.4359 9.4001 14.6 10.5642 14.6 12.0001H16.6C16.6 9.45959 14.5405 7.4001 12 7.4001V9.4001ZM19.2 19.52H4.79999V21.52H19.2V19.52Z" fill="black"/>
</svg>
