<svg width="24" height="24" viewBox="0 0 24 24" fill="none" xmlns="http://www.w3.org/2000/svg">
<path d="M3 6.375C3 4.51104 4.51104 3 6.375 3H17.625C19.489 3 21 4.51104 21 6.375V17.625C21 19.489 19.489 21 17.625 21H6.375C4.51104 21 3 19.489 3 17.625V6.375Z" stroke="black" stroke-width="2"/>
<path d="M4.125 19.3125L8.625 14.8125L10.875 17.0625L15.9375 12L20.4375 16.5" stroke="black" stroke-width="2" stroke-linecap="round" stroke-linejoin="round"/>
<path d="M9.75 8.0625C9.75 8.99448 8.99448 9.75 8.0625 9.75C7.13052 9.75 6.375 8.99448 6.375 8.0625C6.375 7.13052 7.13052 6.375 8.0625 6.375C8.99448 6.375 9.75 7.13052 9.75 8.0625Z" stroke="black" stroke-width="2"/>
</svg>
