<svg width="24" height="24" viewBox="0 0 24 24" fill="none" xmlns="http://www.w3.org/2000/svg">
<path d="M2.40002 20.4001L1.61916 19.7754C1.37902 20.0756 1.3322 20.4868 1.49872 20.8333C1.66524 21.1798 2.01562 21.4001 2.40002 21.4001V20.4001ZM7.68002 13.8001L8.46089 13.1754C8.27112 12.9382 7.98381 12.8001 7.68002 12.8001C7.37624 12.8001 7.08893 12.9382 6.89915 13.1754L7.68002 13.8001ZM9.60002 16.2001L8.81915 16.8248C9.00893 17.062 9.29624 17.2001 9.60002 17.2001C9.90381 17.2001 10.1911 17.062 10.3809 16.8248L9.60002 16.2001ZM13.92 10.8001L14.7009 10.1754C14.5111 9.93819 14.2238 9.8001 13.92 9.8001C13.6162 9.8001 13.3289 9.93819 13.1392 10.1754L13.92 10.8001ZM21.6 20.4001V21.4001C21.9844 21.4001 22.3348 21.1798 22.5013 20.8333C22.6678 20.4868 22.621 20.0756 22.3809 19.7754L21.6 20.4001ZM7.40002 5.4001C7.40002 5.84193 7.04185 6.2001 6.60002 6.2001V8.2001C8.14642 8.2001 9.40002 6.94649 9.40002 5.4001H7.40002ZM6.60002 6.2001C6.1582 6.2001 5.80002 5.84193 5.80002 5.4001H3.80002C3.80002 6.94649 5.05363 8.2001 6.60002 8.2001V6.2001ZM5.80002 5.4001C5.80002 4.95827 6.1582 4.6001 6.60002 4.6001V2.6001C5.05363 2.6001 3.80002 3.8537 3.80002 5.4001H5.80002ZM6.60002 4.6001C7.04185 4.6001 7.40002 4.95827 7.40002 5.4001H9.40002C9.40002 3.8537 8.14642 2.6001 6.60002 2.6001V4.6001ZM3.18089 21.0248L8.46089 14.4248L6.89915 13.1754L1.61916 19.7754L3.18089 21.0248ZM6.89915 14.4248L8.81915 16.8248L10.3809 15.5754L8.46089 13.1754L6.89915 14.4248ZM10.3809 16.8248L14.7009 11.4248L13.1392 10.1754L8.81915 15.5754L10.3809 16.8248ZM13.1392 11.4248L20.8192 21.0248L22.3809 19.7754L14.7009 10.1754L13.1392 11.4248ZM21.6 19.4001H2.40002V21.4001H21.6V19.4001Z" fill="black"/>
</svg>
