<svg width="24" height="24" viewBox="0 0 24 24" fill="none" xmlns="http://www.w3.org/2000/svg">
<path d="M3 12C3 7.02944 7.02944 3 12 3C16.9706 3 21 7.02944 21 12C21 16.9706 16.9706 21 12 21C7.02944 21 3 16.9706 3 12Z" stroke="black" stroke-width="2"/>
<path d="M5.8125 17.625L8.625 14.8125L10.875 17.0625L15.9375 12L19.875 15.9375" stroke="black" stroke-width="2" stroke-linecap="round" stroke-linejoin="round"/>
<path d="M10.875 9.1875C10.875 10.1195 10.1195 10.875 9.1875 10.875C8.25552 10.875 7.5 10.1195 7.5 9.1875C7.5 8.25552 8.25552 7.5 9.1875 7.5C10.1195 7.5 10.875 8.25552 10.875 9.1875Z" stroke="black" stroke-width="2"/>
</svg>
