<svg width="24" height="24" viewBox="0 0 24 24" fill="none" xmlns="http://www.w3.org/2000/svg">
<path d="M5.10539 16.9179C4.71487 17.3084 4.71487 17.9416 5.10539 18.3321C5.49592 18.7226 6.12908 18.7226 6.51961 18.3321L5.10539 16.9179ZM8.625 14.8125L9.33211 14.1054C8.94158 13.7149 8.30842 13.7149 7.91789 14.1054L8.625 14.8125ZM10.875 17.0625L10.1679 17.7696C10.5584 18.1601 11.1916 18.1601 11.5821 17.7696L10.875 17.0625ZM15.9375 12L16.6446 11.2929C16.2541 10.9024 15.6209 10.9024 15.2304 11.2929L15.9375 12ZM19.1679 16.6446C19.5584 17.0351 20.1916 17.0351 20.5821 16.6446C20.9726 16.2541 20.9726 15.6209 20.5821 15.2304L19.1679 16.6446ZM6.51961 18.3321L9.33211 15.5196L7.91789 14.1054L5.10539 16.9179L6.51961 18.3321ZM7.91789 15.5196L10.1679 17.7696L11.5821 16.3554L9.33211 14.1054L7.91789 15.5196ZM11.5821 17.7696L16.6446 12.7071L15.2304 11.2929L10.1679 16.3554L11.5821 17.7696ZM15.2304 12.7071L19.1679 16.6446L20.5821 15.2304L16.6446 11.2929L15.2304 12.7071ZM12 20C7.58172 20 4 16.4183 4 12H2C2 17.5228 6.47715 22 12 22V20ZM20 12C20 16.4183 16.4183 20 12 20V22C17.5228 22 22 17.5228 22 12H20ZM12 4C16.4183 4 20 7.58172 20 12H22C22 6.47715 17.5228 2 12 2V4ZM12 2C6.47715 2 2 6.47715 2 12H4C4 7.58172 7.58172 4 12 4V2ZM9.875 9.1875C9.875 9.5672 9.5672 9.875 9.1875 9.875V11.875C10.6718 11.875 11.875 10.6718 11.875 9.1875H9.875ZM9.1875 9.875C8.8078 9.875 8.5 9.5672 8.5 9.1875H6.5C6.5 10.6718 7.70323 11.875 9.1875 11.875V9.875ZM8.5 9.1875C8.5 8.8078 8.8078 8.5 9.1875 8.5V6.5C7.70323 6.5 6.5 7.70323 6.5 9.1875H8.5ZM9.1875 8.5C9.5672 8.5 9.875 8.8078 9.875 9.1875H11.875C11.875 7.70323 10.6718 6.5 9.1875 6.5V8.5Z" fill="black"/>
</svg>
