<svg width="24" height="24" viewBox="0 0 24 24" fill="none" xmlns="http://www.w3.org/2000/svg">
<path d="M5.69732 20.4999L14.7559 11.9742L19.0187 16.237M5.69732 20.4999H16.3545C18.1202 20.4999 19.5516 19.0685 19.5516 17.3027V11.9742M5.69732 20.4999C3.93159 20.4999 2.50018 19.0685 2.50018 17.3027V6.6456C2.50018 4.87987 3.93159 3.44846 5.69732 3.44846H12.6245M15.4716 6.6456H21.5002M8.89447 8.24417C8.89447 9.12704 8.17876 9.84274 7.2959 9.84274C6.41303 9.84274 5.69732 9.12704 5.69732 8.24417C5.69732 7.36131 6.41303 6.6456 7.2959 6.6456C8.17876 6.6456 8.89447 7.36131 8.89447 8.24417Z" stroke="black" stroke-width="2" stroke-linecap="round" stroke-linejoin="round"/>
</svg>
