<svg width="24" height="24" viewBox="0 0 24 24" fill="none" xmlns="http://www.w3.org/2000/svg">
<path d="M19.4 15.6002C19.4 16.1525 19.8477 16.6002 20.4 16.6002C20.9523 16.6002 21.4 16.1525 21.4 15.6002H19.4ZM2.60002 15.6002C2.60002 16.1525 3.04774 16.6002 3.60002 16.6002C4.15231 16.6002 4.60002 16.1525 4.60002 15.6002H2.60002ZM5.70002 5.2002H18.3V3.2002H5.70002V5.2002ZM19.4 6.23096V15.6002H21.4V6.23096H19.4ZM4.60002 15.6002V6.23096H2.60002V15.6002H4.60002ZM18.3 5.2002C18.9394 5.2002 19.4 5.69302 19.4 6.23096H21.4C21.4 4.52578 19.9802 3.2002 18.3 3.2002V5.2002ZM5.70002 3.2002C4.0198 3.2002 2.60002 4.52578 2.60002 6.23096H4.60002C4.60002 5.69302 5.06065 5.2002 5.70002 5.2002V3.2002ZM3.60002 17.2002H20.4V15.2002H3.60002V17.2002ZM20.6 17.4002V18.6002H22.6V17.4002H20.6ZM20.4 18.8002H3.60002V20.8002H20.4V18.8002ZM3.40002 18.6002V17.4002H1.40002V18.6002H3.40002ZM3.60002 18.8002C3.48957 18.8002 3.40002 18.7107 3.40002 18.6002H1.40002C1.40002 19.8152 2.385 20.8002 3.60002 20.8002V18.8002ZM20.6 18.6002C20.6 18.7107 20.5105 18.8002 20.4 18.8002V20.8002C21.615 20.8002 22.6 19.8152 22.6 18.6002H20.6ZM20.4 17.2002C20.5105 17.2002 20.6 17.2897 20.6 17.4002H22.6C22.6 16.1852 21.615 15.2002 20.4 15.2002V17.2002ZM3.60002 15.2002C2.385 15.2002 1.40002 16.1852 1.40002 17.4002H3.40002C3.40002 17.2897 3.48957 17.2002 3.60002 17.2002V15.2002Z" fill="black"/>
</svg>
