<svg width="24" height="24" viewBox="0 0 24 24" fill="none" xmlns="http://www.w3.org/2000/svg">
<path d="M7.79222 6.51608V12.0043C7.79222 13.096 8.22589 14.143 8.99782 14.9149C9.76975 15.6868 10.8167 16.1205 11.9084 16.1205C13.0001 16.1205 14.047 15.6868 14.819 14.9149C15.0341 14.6998 15.223 14.4633 15.3835 14.2104M2.40002 13.3764C2.73246 15.6606 3.87618 17.7487 5.62194 19.2588C7.3677 20.7688 9.59878 21.5999 11.907 21.5999C14.2153 21.5999 16.4464 20.7688 18.1921 19.2588C19.9379 17.7487 21.0816 15.6606 21.414 13.3764M16.0246 8.9999V6.51608C16.0246 5.4244 15.5909 4.37744 14.819 3.6055C14.047 2.83357 13.0001 2.3999 11.9084 2.3999C11.1473 2.3999 10.408 2.61068 9.76842 2.9999M4.20002 2.3999L21.6 19.7999" stroke="black" stroke-width="2" stroke-linecap="round" stroke-linejoin="round"/>
</svg>
