<svg width="24" height="24" viewBox="0 0 24 24" fill="none" xmlns="http://www.w3.org/2000/svg">
<path d="M2.49304 13.3764C2.82548 15.6606 3.9692 17.7487 5.71496 19.2588C7.46072 20.7688 9.6918 21.5999 12 21.5999C14.3083 21.5999 16.5394 20.7688 18.2851 19.2588C20.0309 17.7487 21.1746 15.6606 21.5071 13.3764M12.0014 2.3999C10.9097 2.3999 9.86277 2.83357 9.09084 3.6055C8.31891 4.37744 7.88524 5.4244 7.88524 6.51608V12.0043C7.88524 13.096 8.31891 14.143 9.09084 14.9149C9.86277 15.6868 10.9097 16.1205 12.0014 16.1205C13.0931 16.1205 14.1401 15.6868 14.912 14.9149C15.6839 14.143 16.1176 13.096 16.1176 12.0043V6.51608C16.1176 5.4244 15.6839 4.37744 14.912 3.6055C14.1401 2.83357 13.0931 2.3999 12.0014 2.3999Z" stroke="black" stroke-width="2" stroke-linecap="round" stroke-linejoin="round"/>
</svg>
