<svg width="24" height="24" viewBox="0 0 24 24" fill="none" xmlns="http://www.w3.org/2000/svg">
<path d="M18.5687 4.42105L13.5159 2.3999V17.5585C13.5157 18.4483 13.2219 19.3132 12.6801 20.019C12.1382 20.7249 11.3787 21.2322 10.5191 21.4623C9.65961 21.6925 8.74816 21.6326 7.92613 21.292C7.1041 20.9514 6.41744 20.349 5.97262 19.5784C5.5278 18.8077 5.34969 17.9118 5.46591 17.0296C5.58212 16.1475 5.98618 15.3283 6.6154 14.6991C7.24463 14.07 8.06386 13.666 8.94606 13.5499C9.82826 13.4338 10.7241 13.612 11.4947 14.0569C11.8316 14.2135 13.1853 15.2991 13.5159 16.0427" stroke="black" stroke-width="2" stroke-linecap="round" stroke-linejoin="round"/>
</svg>
