<svg width="24" height="24" viewBox="0 0 24 24" fill="none" xmlns="http://www.w3.org/2000/svg">
<path d="M15.5995 12.8093L15.0539 11.9713L15.0399 11.9803L15.0263 11.9899L15.5995 12.8093ZM15.5995 11.4332L15.0065 12.2384L15.0511 12.2712L15.0991 12.299L15.5995 11.4332ZM10.084 7.37187L10.677 6.56662L10.6488 6.54585L10.6192 6.52709L10.084 7.37187ZM8.92778 7.97847L9.92777 7.97557L9.92775 7.96682L9.92757 7.95807L8.92778 7.97847ZM8.9509 15.9562L7.95091 15.9591L7.95099 15.9874L7.95267 16.0156L8.9509 15.9562ZM10.1496 16.621L10.6338 17.4959L10.6797 17.4705L10.7227 17.4405L10.1496 16.621ZM6.00002 3.3999H18V1.3999H6.00002V3.3999ZM20.6 5.9999V17.9999H22.6V5.9999H20.6ZM18 20.5999H6.00002V22.5999H18V20.5999ZM3.40002 17.9999V5.9999H1.40002V17.9999H3.40002ZM6.00002 20.5999C4.56408 20.5999 3.40002 19.4358 3.40002 17.9999H1.40002C1.40002 20.5404 3.45951 22.5999 6.00002 22.5999V20.5999ZM20.6 17.9999C20.6 19.4358 19.436 20.5999 18 20.5999V22.5999C20.5405 22.5999 22.6 20.5404 22.6 17.9999H20.6ZM18 3.3999C19.436 3.3999 20.6 4.56396 20.6 5.9999H22.6C22.6 3.45939 20.5405 1.3999 18 1.3999V3.3999ZM6.00002 1.3999C3.45951 1.3999 1.40002 3.45939 1.40002 5.9999H3.40002C3.40002 4.56396 4.56408 3.3999 6.00002 3.3999V1.3999ZM16.145 13.6474C16.5794 13.3646 17.1285 12.8602 17.1275 12.1C17.1264 11.3173 16.5492 10.827 16.0998 10.5673L15.0991 12.299C15.2038 12.3595 15.223 12.3909 15.2085 12.3723C15.1869 12.3448 15.1277 12.2501 15.1275 12.1027C15.1273 11.9591 15.1834 11.8745 15.1921 11.8627C15.1964 11.8569 15.1656 11.8985 15.0539 11.9713L16.145 13.6474ZM16.1924 10.6279L10.677 6.56662L9.4911 8.17711L15.0065 12.2384L16.1924 10.6279ZM10.6192 6.52709C10.1486 6.22898 9.48769 6.05818 8.86267 6.35001C8.18242 6.66763 7.91478 7.35185 7.92799 7.99888L9.92757 7.95807C9.92637 7.89951 9.93856 7.91844 9.90781 7.97729C9.87315 8.04359 9.80546 8.11708 9.70881 8.1622C9.52286 8.24903 9.44782 8.1526 9.54892 8.21664L10.6192 6.52709ZM7.92778 7.98137L7.95091 15.9591L9.9509 15.9533L9.92777 7.97557L7.92778 7.98137ZM7.95267 16.0156C7.98448 16.5499 8.17023 17.2622 8.84066 17.6203C9.50076 17.9728 10.188 17.7426 10.6338 17.4959L9.66535 15.746C9.56624 15.8009 9.52727 15.804 9.54292 15.8018C9.56658 15.7985 9.66424 15.7928 9.78285 15.8561C9.90314 15.9204 9.95519 16.0077 9.96781 16.0346C9.97613 16.0523 9.95636 16.018 9.94914 15.8968L7.95267 16.0156ZM10.7227 17.4405L16.1726 13.6288L15.0263 11.9899L9.57644 15.8015L10.7227 17.4405Z" fill="black"/>
</svg>
