<svg width="24" height="24" viewBox="0 0 24 24" fill="none" xmlns="http://www.w3.org/2000/svg">
<path d="M14.8133 11.5867C15.2525 11.8829 15.2541 12.2554 14.8133 12.5902L11.4071 15.3695C10.9791 15.6459 10.6885 15.4827 10.6579 14.8848L10.6435 9.06771C10.6339 8.51693 11.0088 8.36132 11.3662 8.62539L14.8133 11.5867Z" stroke="black" stroke-width="2"/>
<path d="M12 18C10.3975 18 8.68793 17.9993 7.25788 17.8756C6.54284 17.8137 5.93416 17.7239 5.46392 17.6003C4.96071 17.4682 4.75866 17.3329 4.70836 17.2807L3.26867 18.669C3.71262 19.1294 4.36139 19.3786 4.95582 19.5347C5.58322 19.6995 6.31901 19.8018 7.08554 19.8681C8.6186 20.0007 10.4205 20 12 20V18ZM2 12C2 13.6226 1.99802 14.9367 2.13186 15.969C2.26897 17.0265 2.5642 17.9385 3.26867 18.669L4.70836 17.2807C4.42431 16.9862 4.22529 16.5606 4.11526 15.7119C4.00198 14.8381 4 13.6772 4 12H2ZM20 12C20 13.6772 19.998 14.8381 19.8847 15.7119C19.7747 16.5606 19.5757 16.9862 19.2916 17.2807L20.7313 18.669C21.4358 17.9385 21.731 17.0265 21.8681 15.969C22.002 14.9367 22 13.6226 22 12H20ZM12 20C13.5795 20 15.3814 20.0007 16.9145 19.8681C17.681 19.8018 18.4168 19.6995 19.0442 19.5347C19.6386 19.3786 20.2874 19.1294 20.7313 18.669L19.2916 17.2807C19.2413 17.3329 19.0393 17.4682 18.5361 17.6003C18.0658 17.7239 17.4572 17.8137 16.7421 17.8756C15.3121 17.9993 13.6025 18 12 18V20ZM12 6C13.6025 6 15.3121 6.00073 16.7421 6.12442C17.4572 6.18626 18.0658 6.27615 18.5361 6.39967C19.0393 6.53184 19.2413 6.6671 19.2916 6.71926L20.7313 5.33099C20.2874 4.87059 19.6386 4.62142 19.0442 4.46528C18.4168 4.30049 17.681 4.19816 16.9145 4.13186C15.3814 3.99927 13.5795 4 12 4V6ZM22 12C22 10.3774 22.002 9.06335 21.8681 8.03098C21.731 6.97346 21.4358 6.06155 20.7313 5.33099L19.2916 6.71926C19.5757 7.01383 19.7747 7.43944 19.8847 8.28812C19.998 9.16195 20 10.3228 20 12H22ZM12 4C10.4205 4 8.6186 3.99927 7.08554 4.13186C6.31901 4.19816 5.58322 4.30049 4.95582 4.46528C4.36139 4.62142 3.71262 4.87059 3.26867 5.33099L4.70836 6.71926C4.75866 6.6671 4.96071 6.53184 5.46392 6.39967C5.93416 6.27615 6.54284 6.18626 7.25788 6.12442C8.68793 6.00073 10.3975 6 12 6V4ZM4 12C4 10.3228 4.00198 9.16195 4.11526 8.28812C4.22529 7.43944 4.42431 7.01383 4.70836 6.71926L3.26867 5.33099C2.5642 6.06155 2.26897 6.97346 2.13186 8.03098C1.99802 9.06335 2 10.3774 2 12H4Z" fill="black"/>
</svg>
