<svg width="24" height="24" viewBox="0 0 24 24" fill="none" xmlns="http://www.w3.org/2000/svg">
<path d="M4.20001 5.9999V17.9999C4.20001 19.9881 5.81179 21.5999 7.80001 21.5999H16.2C18.1882 21.5999 19.8 19.9881 19.8 17.9999V5.9999C19.8 4.01168 18.1882 2.3999 16.2 2.3999H7.80001C5.81179 2.3999 4.20001 4.01168 4.20001 5.9999Z" stroke="black" stroke-width="2" stroke-linejoin="round"/>
<path d="M13.61 8.60469C12.5965 8.09794 11.4035 8.09794 10.39 8.60469L9.00001 9.2997V12.6447C9.00001 13.5497 10.0677 14.5794 12 15.7997C13.9323 14.5794 15 13.7997 15 12.6447C15 11.4897 15 9.2997 15 9.2997L13.61 8.60469Z" stroke="black" stroke-width="2" stroke-linejoin="round"/>
</svg>
