<svg width="24" height="24" viewBox="0 0 24 24" fill="none" xmlns="http://www.w3.org/2000/svg">
<path d="M10.2 21.5999H7.80001C5.81179 21.5999 4.20001 19.9881 4.20001 17.9999V5.9999C4.20001 4.01168 5.81179 2.3999 7.80001 2.3999H16.2C18.1882 2.3999 19.8 4.01168 19.8 5.9999V8.9999M15.6 7.1999H7.80001M12 10.7999H7.80001M10.2 14.3999H7.80001M13.8 14.6999L15.19 14.0049C16.2035 13.4981 17.3965 13.4981 18.41 14.0049L19.8 14.6999C19.8 14.6999 19.8 16.8899 19.8 18.0449C19.8 19.1999 18.7323 19.9796 16.8 21.1999C14.8677 19.9796 13.8 18.9499 13.8 18.0449V14.6999Z" stroke="black" stroke-width="2" stroke-linecap="round" stroke-linejoin="round"/>
</svg>
