<svg width="24" height="24" viewBox="0 0 24 24" fill="none" xmlns="http://www.w3.org/2000/svg">
<path d="M8.15807 6.50059C7.37405 7.13552 6.74119 7.94118 6.30647 8.8578C5.87174 9.77444 5.64631 10.7785 5.6469 11.7955C5.65003 14.2756 5.0872 16.723 4.00239 18.9462M13.3588 22.8002C14.9615 19.3595 16.0156 13.3498 15.779 11.7955C15.4865 9.87305 14.5653 8.33689 12.3436 8.33689C9.79797 8.33689 9.02226 10.9235 9.02226 12.0224M22.1751 18.3065C22.5896 16.1616 22.7988 13.9811 22.8 11.7955C22.8 8.98545 21.6983 6.29046 19.7373 4.30347C17.7762 2.31647 15.1165 1.2002 12.3433 1.2002C9.56997 1.2002 6.91026 2.31647 4.94925 4.30347C2.98824 6.29046 1.88656 8.98539 1.88656 11.7954C1.88766 13.189 1.65552 14.5727 1.20001 15.8875M6.56605 21.2389C7.62597 19.396 8.37963 17.3891 8.79686 15.2984M18.8153 15.5022C18.9671 14.2729 19.0421 13.034 19.0396 11.7952C19.0396 9.99576 18.334 8.27005 17.0783 6.99766C15.8226 5.7253 14.1195 5.01036 12.3436 5.01036C12.0639 5.00841 11.7844 5.0246 11.5067 5.05884M18.1192 19.2075C17.9423 19.8886 17.7415 20.5705 17.5295 21.2389M9.81194 22.2965C11.1456 19.8873 12.3487 15.8954 12.3487 11.8323" stroke="black" stroke-width="2" stroke-linecap="round" stroke-linejoin="round"/>
</svg>
