<svg width="24" height="24" viewBox="0 0 24 24" fill="none" xmlns="http://www.w3.org/2000/svg">
<path d="M21.5998 9.19984L22.5998 9.19979L22.5998 9.19979L21.5998 9.19984ZM21.6002 18.7997L20.6002 18.7997L20.6002 18.7997L21.6002 18.7997ZM2.39978 18.7997L1.39978 18.7996L2.39978 18.7997ZM19.1998 6.79995L19.1998 5.79995L19.1998 5.79995L19.1998 6.79995ZM9.97407 3.8235L10.7933 3.25003L10.7933 3.25003L9.97407 3.8235ZM9.00091 11.255L8.55369 10.3606C8.21491 10.53 8.00091 10.8763 8.00091 11.255H9.00091ZM12.0009 17.755L11.4669 18.6005C11.7931 18.8065 12.2087 18.8065 12.5349 18.6005L12.0009 17.755ZM15.0009 11.255H16.0009C16.0009 10.8763 15.7869 10.53 15.4481 10.3606L15.0009 11.255ZM10.3909 10.56L10.8382 11.4544L10.8382 11.4544L10.3909 10.56ZM13.6109 10.56L13.1637 11.4545L13.1637 11.4545L13.6109 10.56ZM3.77178 3.7998H8.00792V1.7998H3.77178V3.7998ZM3.40035 6.7998V4.1998H1.40035V6.7998H3.40035ZM3.77178 1.7998C2.44273 1.7998 1.40035 2.89386 1.40035 4.1998H3.40035C3.40035 3.95935 3.58598 3.7998 3.77178 3.7998V1.7998ZM20.5998 9.19988L20.6002 18.7997L22.6002 18.7996L22.5998 9.19979L20.5998 9.19988ZM19.2002 20.1998H4.79978V22.1998H19.2002V20.1998ZM3.39978 18.7997L3.40035 6.79985L1.40035 6.79976L1.39978 18.7996L3.39978 18.7997ZM19.1998 5.79995L12.0575 5.7998L12.0575 7.7998L19.1998 7.79995L19.1998 5.79995ZM9.15484 4.39696L11.2383 7.37327L12.8767 6.22634L10.7933 3.25003L9.15484 4.39696ZM20.6002 18.7997C20.6003 19.573 19.9735 20.1998 19.2002 20.1998V22.1998C21.0781 22.1998 22.6003 20.6775 22.6002 18.7996L20.6002 18.7997ZM4.79978 20.1998C4.02656 20.1998 3.39974 19.573 3.39978 18.7997L1.39978 18.7996C1.39969 20.6775 2.92195 22.1998 4.79978 22.1998V20.1998ZM22.5998 9.19979C22.5997 7.32211 21.0775 5.79999 19.1998 5.79995L19.1998 7.79995C19.973 7.79997 20.5997 8.42672 20.5998 9.19989L22.5998 9.19979ZM8.00792 3.7998C8.46476 3.7998 8.89286 4.0227 9.15484 4.39696L10.7933 3.25003C10.1571 2.34112 9.11738 1.7998 8.00792 1.7998V3.7998ZM9.94372 9.6656L8.55369 10.3606L9.44812 12.1495L10.8382 11.4544L9.94372 9.6656ZM8.00091 11.255V14.6H10.0009V11.255H8.00091ZM8.00091 14.6C8.00091 15.446 8.49029 16.171 9.05922 16.7563C9.64861 17.3626 10.4754 17.9744 11.4669 18.6005L12.5349 16.9095C11.594 16.3154 10.9209 15.8021 10.4933 15.3623C10.0454 14.9014 10.0009 14.6591 10.0009 14.6H8.00091ZM12.5349 18.6005C13.4872 17.9991 14.3262 17.447 14.9208 16.8718C15.5428 16.2702 16.0009 15.5439 16.0009 14.6H14.0009C14.0009 14.8112 13.9252 15.0523 13.5303 15.4343C13.108 15.8428 12.447 16.2906 11.4669 16.9095L12.5349 18.6005ZM16.0009 14.6C16.0009 14.5978 16.0009 14.5955 16.0009 14.5933C16.0009 14.591 16.0009 14.5887 16.0009 14.5865C16.0009 14.5842 16.0009 14.5819 16.0009 14.5796C16.0009 14.5774 16.0009 14.5751 16.0009 14.5728C16.0009 14.5705 16.0009 14.5682 16.0009 14.5659C16.0009 14.5636 16.0009 14.5613 16.0009 14.559C16.0009 14.5567 16.0009 14.5544 16.0009 14.5521C16.0009 14.5498 16.0009 14.5475 16.0009 14.5452C16.0009 14.5428 16.0009 14.5405 16.0009 14.5382C16.0009 14.5359 16.0009 14.5335 16.0009 14.5312C16.0009 14.5289 16.0009 14.5265 16.0009 14.5242C16.0009 14.5219 16.0009 14.5195 16.0009 14.5172C16.0009 14.5148 16.0009 14.5125 16.0009 14.5101C16.0009 14.5078 16.0009 14.5054 16.0009 14.503C16.0009 14.5007 16.0009 14.4983 16.0009 14.4959C16.0009 14.4936 16.0009 14.4912 16.0009 14.4888C16.0009 14.4864 16.0009 14.4841 16.0009 14.4817C16.0009 14.4793 16.0009 14.4769 16.0009 14.4745C16.0009 14.4721 16.0009 14.4697 16.0009 14.4673C16.0009 14.4649 16.0009 14.4625 16.0009 14.4601C16.0009 14.4577 16.0009 14.4553 16.0009 14.4529C16.0009 14.4505 16.0009 14.4481 16.0009 14.4457C16.0009 14.4433 16.0009 14.4408 16.0009 14.4384C16.0009 14.436 16.0009 14.4336 16.0009 14.4311C16.0009 14.4287 16.0009 14.4263 16.0009 14.4238C16.0009 14.4214 16.0009 14.4189 16.0009 14.4165C16.0009 14.4141 16.0009 14.4116 16.0009 14.4092C16.0009 14.4067 16.0009 14.4042 16.0009 14.4018C16.0009 14.3993 16.0009 14.3969 16.0009 14.3944C16.0009 14.3919 16.0009 14.3895 16.0009 14.387C16.0009 14.3845 16.0009 14.3821 16.0009 14.3796C16.0009 14.3771 16.0009 14.3746 16.0009 14.3721C16.0009 14.3697 16.0009 14.3672 16.0009 14.3647C16.0009 14.3622 16.0009 14.3597 16.0009 14.3572C16.0009 14.3547 16.0009 14.3522 16.0009 14.3497C16.0009 14.3472 16.0009 14.3447 16.0009 14.3422C16.0009 14.3397 16.0009 14.3372 16.0009 14.3346C16.0009 14.3321 16.0009 14.3296 16.0009 14.3271C16.0009 14.3246 16.0009 14.322 16.0009 14.3195C16.0009 14.317 16.0009 14.3145 16.0009 14.3119C16.0009 14.3094 16.0009 14.3069 16.0009 14.3043C16.0009 14.3018 16.0009 14.2992 16.0009 14.2967C16.0009 14.2941 16.0009 14.2916 16.0009 14.289C16.0009 14.2865 16.0009 14.2839 16.0009 14.2814C16.0009 14.2788 16.0009 14.2763 16.0009 14.2737C16.0009 14.2711 16.0009 14.2686 16.0009 14.266C16.0009 14.2634 16.0009 14.2609 16.0009 14.2583C16.0009 14.2557 16.0009 14.2531 16.0009 14.2506C16.0009 14.248 16.0009 14.2454 16.0009 14.2428C16.0009 14.2402 16.0009 14.2376 16.0009 14.2351C16.0009 14.2325 16.0009 14.2299 16.0009 14.2273C16.0009 14.2247 16.0009 14.2221 16.0009 14.2195C16.0009 14.2169 16.0009 14.2143 16.0009 14.2117C16.0009 14.2091 16.0009 14.2064 16.0009 14.2038C16.0009 14.2012 16.0009 14.1986 16.0009 14.196C16.0009 14.1934 16.0009 14.1908 16.0009 14.1881C16.0009 14.1855 16.0009 14.1829 16.0009 14.1803C16.0009 14.1776 16.0009 14.175 16.0009 14.1724C16.0009 14.1697 16.0009 14.1671 16.0009 14.1645C16.0009 14.1618 16.0009 14.1592 16.0009 14.1565C16.0009 14.1539 16.0009 14.1512 16.0009 14.1486C16.0009 14.1459 16.0009 14.1433 16.0009 14.1406C16.0009 14.138 16.0009 14.1353 16.0009 14.1327C16.0009 14.13 16.0009 14.1274 16.0009 14.1247C16.0009 14.122 16.0009 14.1194 16.0009 14.1167C16.0009 14.114 16.0009 14.1114 16.0009 14.1087C16.0009 14.106 16.0009 14.1033 16.0009 14.1007C16.0009 14.098 16.0009 14.0953 16.0009 14.0926C16.0009 14.0899 16.0009 14.0873 16.0009 14.0846C16.0009 14.0819 16.0009 14.0792 16.0009 14.0765C16.0009 14.0738 16.0009 14.0711 16.0009 14.0684C16.0009 14.0657 16.0009 14.063 16.0009 14.0603C16.0009 14.0576 16.0009 14.0549 16.0009 14.0522C16.0009 14.0495 16.0009 14.0468 16.0009 14.0441C16.0009 14.0414 16.0009 14.0387 16.0009 14.036C16.0009 14.0333 16.0009 14.0306 16.0009 14.0278C16.0009 14.0251 16.0009 14.0224 16.0009 14.0197C16.0009 14.017 16.0009 14.0142 16.0009 14.0115C16.0009 14.0088 16.0009 14.0061 16.0009 14.0033C16.0009 14.0006 16.0009 13.9979 16.0009 13.9951C16.0009 13.9924 16.0009 13.9897 16.0009 13.9869C16.0009 13.9842 16.0009 13.9814 16.0009 13.9787C16.0009 13.976 16.0009 13.9732 16.0009 13.9705C16.0009 13.9677 16.0009 13.965 16.0009 13.9622C16.0009 13.9595 16.0009 13.9567 16.0009 13.954C16.0009 13.9512 16.0009 13.9485 16.0009 13.9457C16.0009 13.9429 16.0009 13.9402 16.0009 13.9374C16.0009 13.9347 16.0009 13.9319 16.0009 13.9291C16.0009 13.9264 16.0009 13.9236 16.0009 13.9208C16.0009 13.9181 16.0009 13.9153 16.0009 13.9125C16.0009 13.9098 16.0009 13.907 16.0009 13.9042C16.0009 13.9014 16.0009 13.8987 16.0009 13.8959C16.0009 13.8931 16.0009 13.8903 16.0009 13.8875C16.0009 13.8848 16.0009 13.882 16.0009 13.8792C16.0009 13.8764 16.0009 13.8736 16.0009 13.8708C16.0009 13.868 16.0009 13.8652 16.0009 13.8624C16.0009 13.8597 16.0009 13.8569 16.0009 13.8541C16.0009 13.8513 16.0009 13.8485 16.0009 13.8457C16.0009 13.8429 16.0009 13.8401 16.0009 13.8373C16.0009 13.8345 16.0009 13.8317 16.0009 13.8289C16.0009 13.8261 16.0009 13.8233 16.0009 13.8204C16.0009 13.8176 16.0009 13.8148 16.0009 13.812C16.0009 13.8092 16.0009 13.8064 16.0009 13.8036C16.0009 13.8008 16.0009 13.7979 16.0009 13.7951C16.0009 13.7923 16.0009 13.7895 16.0009 13.7867C16.0009 13.7839 16.0009 13.781 16.0009 13.7782C16.0009 13.7754 16.0009 13.7726 16.0009 13.7697C16.0009 13.7669 16.0009 13.7641 16.0009 13.7613C16.0009 13.7584 16.0009 13.7556 16.0009 13.7528C16.0009 13.7499 16.0009 13.7471 16.0009 13.7443C16.0009 13.7414 16.0009 13.7386 16.0009 13.7358C16.0009 13.7329 16.0009 13.7301 16.0009 13.7272C16.0009 13.7244 16.0009 13.7216 16.0009 13.7187C16.0009 13.7159 16.0009 13.713 16.0009 13.7102C16.0009 13.7074 16.0009 13.7045 16.0009 13.7017C16.0009 13.6988 16.0009 13.696 16.0009 13.6931C16.0009 13.6903 16.0009 13.6874 16.0009 13.6846C16.0009 13.6817 16.0009 13.6789 16.0009 13.676C16.0009 13.6732 16.0009 13.6703 16.0009 13.6675C16.0009 13.6646 16.0009 13.6617 16.0009 13.6589C16.0009 13.656 16.0009 13.6532 16.0009 13.6503C16.0009 13.6475 16.0009 13.6446 16.0009 13.6417C16.0009 13.6389 16.0009 13.636 16.0009 13.6331C16.0009 13.6303 16.0009 13.6274 16.0009 13.6245C16.0009 13.6217 16.0009 13.6188 16.0009 13.6159C16.0009 13.6131 16.0009 13.6102 16.0009 13.6073C16.0009 13.6045 16.0009 13.6016 16.0009 13.5987C16.0009 13.5959 16.0009 13.593 16.0009 13.5901C16.0009 13.5872 16.0009 13.5844 16.0009 13.5815C16.0009 13.5786 16.0009 13.5757 16.0009 13.5729C16.0009 13.57 16.0009 13.5671 16.0009 13.5642C16.0009 13.5614 16.0009 13.5585 16.0009 13.5556C16.0009 13.5527 16.0009 13.5498 16.0009 13.547C16.0009 13.5441 16.0009 13.5412 16.0009 13.5383C16.0009 13.5354 16.0009 13.5325 16.0009 13.5297C16.0009 13.5268 16.0009 13.5239 16.0009 13.521C16.0009 13.5181 16.0009 13.5152 16.0009 13.5124C16.0009 13.5095 16.0009 13.5066 16.0009 13.5037C16.0009 13.5008 16.0009 13.4979 16.0009 13.495C16.0009 13.4921 16.0009 13.4892 16.0009 13.4864C16.0009 13.4835 16.0009 13.4806 16.0009 13.4777C16.0009 13.4748 16.0009 13.4719 16.0009 13.469C16.0009 13.4661 16.0009 13.4632 16.0009 13.4603C16.0009 13.4574 16.0009 13.4545 16.0009 13.4516C16.0009 13.4487 16.0009 13.4459 16.0009 13.443C16.0009 13.4401 16.0009 13.4372 16.0009 13.4343C16.0009 13.4314 16.0009 13.4285 16.0009 13.4256C16.0009 13.4227 16.0009 13.4198 16.0009 13.4169C16.0009 13.414 16.0009 13.4111 16.0009 13.4082C16.0009 13.4053 16.0009 13.4024 16.0009 13.3995C16.0009 13.3966 16.0009 13.3937 16.0009 13.3908C16.0009 13.3879 16.0009 13.385 16.0009 13.3821C16.0009 13.3792 16.0009 13.3763 16.0009 13.3734C16.0009 13.3705 16.0009 13.3676 16.0009 13.3647C16.0009 13.3618 16.0009 13.3589 16.0009 13.356C16.0009 13.3531 16.0009 13.3502 16.0009 13.3473C16.0009 13.3444 16.0009 13.3415 16.0009 13.3386C16.0009 13.3357 16.0009 13.3327 16.0009 13.3298C16.0009 13.3269 16.0009 13.324 16.0009 13.3211C16.0009 13.3182 16.0009 13.3153 16.0009 13.3124C16.0009 13.3095 16.0009 13.3066 16.0009 13.3037C16.0009 13.3008 16.0009 13.2979 16.0009 13.295C16.0009 13.2921 16.0009 13.2892 16.0009 13.2863C16.0009 13.2834 16.0009 13.2805 16.0009 13.2776C16.0009 13.2747 16.0009 13.2718 16.0009 13.2689C16.0009 13.266 16.0009 13.263 16.0009 13.2601C16.0009 13.2572 16.0009 13.2543 16.0009 13.2514C16.0009 13.2485 16.0009 13.2456 16.0009 13.2427C16.0009 13.2398 16.0009 13.2369 16.0009 13.234C16.0009 13.2311 16.0009 13.2282 16.0009 13.2253C16.0009 13.2224 16.0009 13.2195 16.0009 13.2166C16.0009 13.2137 16.0009 13.2108 16.0009 13.2079C16.0009 13.205 16.0009 13.2021 16.0009 13.1992C16.0009 13.1963 16.0009 13.1934 16.0009 13.1905C16.0009 13.1875 16.0009 13.1846 16.0009 13.1817C16.0009 13.1788 16.0009 13.1759 16.0009 13.173C16.0009 13.1701 16.0009 13.1672 16.0009 13.1643C16.0009 13.1614 16.0009 13.1585 16.0009 13.1556C16.0009 13.1527 16.0009 13.1498 16.0009 13.1469C16.0009 13.144 16.0009 13.1411 16.0009 13.1382C16.0009 13.1353 16.0009 13.1324 16.0009 13.1295C16.0009 13.1266 16.0009 13.1237 16.0009 13.1209C16.0009 13.118 16.0009 13.1151 16.0009 13.1122C16.0009 13.1093 16.0009 13.1064 16.0009 13.1035C16.0009 13.1006 16.0009 13.0977 16.0009 13.0948C16.0009 13.0919 16.0009 13.089 16.0009 13.0861C16.0009 13.0832 16.0009 13.0803 16.0009 13.0774C16.0009 13.0745 16.0009 13.0716 16.0009 13.0688C16.0009 13.0659 16.0009 13.063 16.0009 13.0601C16.0009 13.0572 16.0009 13.0543 16.0009 13.0514C16.0009 13.0485 16.0009 13.0456 16.0009 13.0428C16.0009 13.0399 16.0009 13.037 16.0009 13.0341C16.0009 13.0312 16.0009 13.0283 16.0009 13.0254C16.0009 13.0225 16.0009 13.0197 16.0009 13.0168C16.0009 13.0139 16.0009 13.011 16.0009 13.0081C16.0009 13.0053 16.0009 13.0024 16.0009 12.9995C16.0009 12.9966 16.0009 12.9937 16.0009 12.9909C16.0009 12.988 16.0009 12.9851 16.0009 12.9822C16.0009 12.9793 16.0009 12.9765 16.0009 12.9736C16.0009 12.9707 16.0009 12.9678 16.0009 12.965C16.0009 12.9621 16.0009 12.9592 16.0009 12.9563C16.0009 12.9535 16.0009 12.9506 16.0009 12.9477C16.0009 12.9449 16.0009 12.942 16.0009 12.9391C16.0009 12.9363 16.0009 12.9334 16.0009 12.9305C16.0009 12.9276 16.0009 12.9248 16.0009 12.9219C16.0009 12.9191 16.0009 12.9162 16.0009 12.9133C16.0009 12.9105 16.0009 12.9076 16.0009 12.9047C16.0009 12.9019 16.0009 12.899 16.0009 12.8962C16.0009 12.8933 16.0009 12.8904 16.0009 12.8876C16.0009 12.8847 16.0009 12.8819 16.0009 12.879C16.0009 12.8762 16.0009 12.8733 16.0009 12.8705C16.0009 12.8676 16.0009 12.8648 16.0009 12.8619C16.0009 12.8591 16.0009 12.8562 16.0009 12.8534C16.0009 12.8505 16.0009 12.8477 16.0009 12.8448C16.0009 12.842 16.0009 12.8391 16.0009 12.8363C16.0009 12.8334 16.0009 12.8306 16.0009 12.8278C16.0009 12.8249 16.0009 12.8221 16.0009 12.8192C16.0009 12.8164 16.0009 12.8136 16.0009 12.8107C16.0009 12.8079 16.0009 12.8051 16.0009 12.8022C16.0009 12.7994 16.0009 12.7966 16.0009 12.7937C16.0009 12.7909 16.0009 12.7881 16.0009 12.7853C16.0009 12.7824 16.0009 12.7796 16.0009 12.7768C16.0009 12.774 16.0009 12.7711 16.0009 12.7683C16.0009 12.7655 16.0009 12.7627 16.0009 12.7598C16.0009 12.757 16.0009 12.7542 16.0009 12.7514C16.0009 12.7486 16.0009 12.7458 16.0009 12.7429C16.0009 12.7401 16.0009 12.7373 16.0009 12.7345C16.0009 12.7317 16.0009 12.7289 16.0009 12.7261C16.0009 12.7233 16.0009 12.7205 16.0009 12.7177C16.0009 12.7149 16.0009 12.7121 16.0009 12.7093C16.0009 12.7065 16.0009 12.7037 16.0009 12.7009C16.0009 12.6981 16.0009 12.6953 16.0009 12.6925C16.0009 12.6897 16.0009 12.6869 16.0009 12.6841C16.0009 12.6813 16.0009 12.6785 16.0009 12.6757C16.0009 12.6729 16.0009 12.6702 16.0009 12.6674C16.0009 12.6646 16.0009 12.6618 16.0009 12.659C16.0009 12.6562 16.0009 12.6535 16.0009 12.6507C16.0009 12.6479 16.0009 12.6451 16.0009 12.6424C16.0009 12.6396 16.0009 12.6368 16.0009 12.634C16.0009 12.6313 16.0009 12.6285 16.0009 12.6257C16.0009 12.623 16.0009 12.6202 16.0009 12.6174C16.0009 12.6147 16.0009 12.6119 16.0009 12.6092C16.0009 12.6064 16.0009 12.6036 16.0009 12.6009C16.0009 12.5981 16.0009 12.5954 16.0009 12.5926C16.0009 12.5899 16.0009 12.5871 16.0009 12.5844C16.0009 12.5816 16.0009 12.5789 16.0009 12.5761C16.0009 12.5734 16.0009 12.5706 16.0009 12.5679C16.0009 12.5652 16.0009 12.5624 16.0009 12.5597C16.0009 12.557 16.0009 12.5542 16.0009 12.5515C16.0009 12.5488 16.0009 12.546 16.0009 12.5433C16.0009 12.5406 16.0009 12.5378 16.0009 12.5351C16.0009 12.5324 16.0009 12.5297 16.0009 12.5269C16.0009 12.5242 16.0009 12.5215 16.0009 12.5188C16.0009 12.5161 16.0009 12.5134 16.0009 12.5107C16.0009 12.5079 16.0009 12.5052 16.0009 12.5025C16.0009 12.4998 16.0009 12.4971 16.0009 12.4944C16.0009 12.4917 16.0009 12.489 16.0009 12.4863C16.0009 12.4836 16.0009 12.4809 16.0009 12.4782C16.0009 12.4755 16.0009 12.4728 16.0009 12.4701C16.0009 12.4675 16.0009 12.4648 16.0009 12.4621C16.0009 12.4594 16.0009 12.4567 16.0009 12.454C16.0009 12.4514 16.0009 12.4487 16.0009 12.446C16.0009 12.4433 16.0009 12.4407 16.0009 12.438C16.0009 12.4353 16.0009 12.4327 16.0009 12.43C16.0009 12.4273 16.0009 12.4247 16.0009 12.422C16.0009 12.4193 16.0009 12.4167 16.0009 12.414C16.0009 12.4114 16.0009 12.4087 16.0009 12.4061C16.0009 12.4034 16.0009 12.4008 16.0009 12.3981C16.0009 12.3955 16.0009 12.3928 16.0009 12.3902C16.0009 12.3875 16.0009 12.3849 16.0009 12.3823C16.0009 12.3796 16.0009 12.377 16.0009 12.3744C16.0009 12.3717 16.0009 12.3691 16.0009 12.3665C16.0009 12.3639 16.0009 12.3612 16.0009 12.3586C16.0009 12.356 16.0009 12.3534 16.0009 12.3508C16.0009 12.3481 16.0009 12.3455 16.0009 12.3429C16.0009 12.3403 16.0009 12.3377 16.0009 12.3351C16.0009 12.3325 16.0009 12.3299 16.0009 12.3273C16.0009 12.3247 16.0009 12.3221 16.0009 12.3195C16.0009 12.3169 16.0009 12.3143 16.0009 12.3117C16.0009 12.3091 16.0009 12.3065 16.0009 12.304C16.0009 12.3014 16.0009 12.2988 16.0009 12.2962C16.0009 12.2936 16.0009 12.2911 16.0009 12.2885C16.0009 12.2859 16.0009 12.2834 16.0009 12.2808C16.0009 12.2782 16.0009 12.2757 16.0009 12.2731C16.0009 12.2705 16.0009 12.268 16.0009 12.2654C16.0009 12.2629 16.0009 12.2603 16.0009 12.2578C16.0009 12.2552 16.0009 12.2527 16.0009 12.2501C16.0009 12.2476 16.0009 12.2451 16.0009 12.2425C16.0009 12.24 16.0009 12.2374 16.0009 12.2349C16.0009 12.2324 16.0009 12.2299 16.0009 12.2273C16.0009 12.2248 16.0009 12.2223 16.0009 12.2198C16.0009 12.2172 16.0009 12.2147 16.0009 12.2122C16.0009 12.2097 16.0009 12.2072 16.0009 12.2047C16.0009 12.2022 16.0009 12.1997 16.0009 12.1972C16.0009 12.1947 16.0009 12.1922 16.0009 12.1897C16.0009 12.1872 16.0009 12.1847 16.0009 12.1822C16.0009 12.1797 16.0009 12.1772 16.0009 12.1748C16.0009 12.1723 16.0009 12.1698 16.0009 12.1673C16.0009 12.1648 16.0009 12.1624 16.0009 12.1599C16.0009 12.1574 16.0009 12.155 16.0009 12.1525C16.0009 12.15 16.0009 12.1476 16.0009 12.1451C16.0009 12.1427 16.0009 12.1402 16.0009 12.1378C16.0009 12.1353 16.0009 12.1329 16.0009 12.1304C16.0009 12.128 16.0009 12.1256 16.0009 12.1231C16.0009 12.1207 16.0009 12.1182 16.0009 12.1158C16.0009 12.1134 16.0009 12.111 16.0009 12.1085C16.0009 12.1061 16.0009 12.1037 16.0009 12.1013C16.0009 12.0989 16.0009 12.0965 16.0009 12.0941C16.0009 12.0916 16.0009 12.0892 16.0009 12.0868C16.0009 12.0844 16.0009 12.082 16.0009 12.0796C16.0009 12.0772 16.0009 12.0749 16.0009 12.0725C16.0009 12.0701 16.0009 12.0677 16.0009 12.0653C16.0009 12.0629 16.0009 12.0606 16.0009 12.0582C16.0009 12.0558 16.0009 12.0534 16.0009 12.0511C16.0009 12.0487 16.0009 12.0463 16.0009 12.044C16.0009 12.0416 16.0009 12.0393 16.0009 12.0369C16.0009 12.0346 16.0009 12.0322 16.0009 12.0299C16.0009 12.0275 16.0009 12.0252 16.0009 12.0229C16.0009 12.0205 16.0009 12.0182 16.0009 12.0159C16.0009 12.0135 16.0009 12.0112 16.0009 12.0089C16.0009 12.0066 16.0009 12.0042 16.0009 12.0019C16.0009 11.9996 16.0009 11.9973 16.0009 11.995C16.0009 11.9927 16.0009 11.9904 16.0009 11.9881C16.0009 11.9858 16.0009 11.9835 16.0009 11.9812C16.0009 11.9789 16.0009 11.9766 16.0009 11.9743C16.0009 11.972 16.0009 11.9698 16.0009 11.9675C16.0009 11.9652 16.0009 11.9629 16.0009 11.9607C16.0009 11.9584 16.0009 11.9561 16.0009 11.9539C16.0009 11.9516 16.0009 11.9494 16.0009 11.9471C16.0009 11.9448 16.0009 11.9426 16.0009 11.9404C16.0009 11.9381 16.0009 11.9359 16.0009 11.9336C16.0009 11.9314 16.0009 11.9292 16.0009 11.9269C16.0009 11.9247 16.0009 11.9225 16.0009 11.9203C16.0009 11.918 16.0009 11.9158 16.0009 11.9136C16.0009 11.9114 16.0009 11.9092 16.0009 11.907C16.0009 11.9048 16.0009 11.9026 16.0009 11.9004C16.0009 11.8982 16.0009 11.896 16.0009 11.8938C16.0009 11.8916 16.0009 11.8894 16.0009 11.8873C16.0009 11.8851 16.0009 11.8829 16.0009 11.8807C16.0009 11.8786 16.0009 11.8764 16.0009 11.8742C16.0009 11.8721 16.0009 11.8699 16.0009 11.8677C16.0009 11.8656 16.0009 11.8634 16.0009 11.8613C16.0009 11.8591 16.0009 11.857 16.0009 11.8549C16.0009 11.8527 16.0009 11.8506 16.0009 11.8485C16.0009 11.8463 16.0009 11.8442 16.0009 11.8421C16.0009 11.84 16.0009 11.8379 16.0009 11.8358C16.0009 11.8336 16.0009 11.8315 16.0009 11.8294C16.0009 11.8273 16.0009 11.8252 16.0009 11.8231C16.0009 11.821 16.0009 11.819 16.0009 11.8169C16.0009 11.8148 16.0009 11.8127 16.0009 11.8106C16.0009 11.8085 16.0009 11.8065 16.0009 11.8044C16.0009 11.8023 16.0009 11.8003 16.0009 11.7982C16.0009 11.7962 16.0009 11.7941 16.0009 11.7921C16.0009 11.79 16.0009 11.788 16.0009 11.7859C16.0009 11.7839 16.0009 11.7818 16.0009 11.7798C16.0009 11.7778 16.0009 11.7758 16.0009 11.7737C16.0009 11.7717 16.0009 11.7697 16.0009 11.7677C16.0009 11.7657 16.0009 11.7637 16.0009 11.7617C16.0009 11.7597 16.0009 11.7577 16.0009 11.7557C16.0009 11.7537 16.0009 11.7517 16.0009 11.7497C16.0009 11.7477 16.0009 11.7457 16.0009 11.7438C16.0009 11.7418 16.0009 11.7398 16.0009 11.7379C16.0009 11.7359 16.0009 11.7339 16.0009 11.732C16.0009 11.73 16.0009 11.7281 16.0009 11.7261C16.0009 11.7242 16.0009 11.7222 16.0009 11.7203C16.0009 11.7184 16.0009 11.7164 16.0009 11.7145C16.0009 11.7126 16.0009 11.7106 16.0009 11.7087C16.0009 11.7068 16.0009 11.7049 16.0009 11.703C16.0009 11.7011 16.0009 11.6992 16.0009 11.6973C16.0009 11.6954 16.0009 11.6935 16.0009 11.6916C16.0009 11.6897 16.0009 11.6878 16.0009 11.686C16.0009 11.6841 16.0009 11.6822 16.0009 11.6803C16.0009 11.6785 16.0009 11.6766 16.0009 11.6747C16.0009 11.6729 16.0009 11.671 16.0009 11.6692C16.0009 11.6673 16.0009 11.6655 16.0009 11.6637C16.0009 11.6618 16.0009 11.66 16.0009 11.6582C16.0009 11.6563 16.0009 11.6545 16.0009 11.6527C16.0009 11.6509 16.0009 11.6491 16.0009 11.6472C16.0009 11.6454 16.0009 11.6436 16.0009 11.6418C16.0009 11.64 16.0009 11.6383 16.0009 11.6365C16.0009 11.6347 16.0009 11.6329 16.0009 11.6311C16.0009 11.6293 16.0009 11.6276 16.0009 11.6258C16.0009 11.624 16.0009 11.6223 16.0009 11.6205C16.0009 11.6188 16.0009 11.617 16.0009 11.6153C16.0009 11.6135 16.0009 11.6118 16.0009 11.6101C16.0009 11.6083 16.0009 11.6066 16.0009 11.6049C16.0009 11.6031 16.0009 11.6014 16.0009 11.5997C16.0009 11.598 16.0009 11.5963 16.0009 11.5946C16.0009 11.5929 16.0009 11.5912 16.0009 11.5895C16.0009 11.5878 16.0009 11.5861 16.0009 11.5844C16.0009 11.5828 16.0009 11.5811 16.0009 11.5794C16.0009 11.5777 16.0009 11.5761 16.0009 11.5744C16.0009 11.5728 16.0009 11.5711 16.0009 11.5695C16.0009 11.5678 16.0009 11.5662 16.0009 11.5645C16.0009 11.5629 16.0009 11.5613 16.0009 11.5596C16.0009 11.558 16.0009 11.5564 16.0009 11.5548C16.0009 11.5532 16.0009 11.5516 16.0009 11.5499C16.0009 11.5483 16.0009 11.5467 16.0009 11.5452C16.0009 11.5436 16.0009 11.542 16.0009 11.5404C16.0009 11.5388 16.0009 11.5372 16.0009 11.5357C16.0009 11.5341 16.0009 11.5325 16.0009 11.531C16.0009 11.5294 16.0009 11.5279 16.0009 11.5263C16.0009 11.5248 16.0009 11.5232 16.0009 11.5217C16.0009 11.5202 16.0009 11.5186 16.0009 11.5171C16.0009 11.5156 16.0009 11.5141 16.0009 11.5125C16.0009 11.511 16.0009 11.5095 16.0009 11.508C16.0009 11.5065 16.0009 11.505 16.0009 11.5035C16.0009 11.502 16.0009 11.5006 16.0009 11.4991C16.0009 11.4976 16.0009 11.4961 16.0009 11.4947C16.0009 11.4932 16.0009 11.4917 16.0009 11.4903C16.0009 11.4888 16.0009 11.4874 16.0009 11.4859C16.0009 11.4845 16.0009 11.4831 16.0009 11.4816C16.0009 11.4802 16.0009 11.4788 16.0009 11.4774C16.0009 11.4759 16.0009 11.4745 16.0009 11.4731C16.0009 11.4717 16.0009 11.4703 16.0009 11.4689C16.0009 11.4675 16.0009 11.4661 16.0009 11.4648C16.0009 11.4634 16.0009 11.462 16.0009 11.4606C16.0009 11.4593 16.0009 11.4579 16.0009 11.4565C16.0009 11.4552 16.0009 11.4538 16.0009 11.4525C16.0009 11.4511 16.0009 11.4498 16.0009 11.4485C16.0009 11.4471 16.0009 11.4458 16.0009 11.4445C16.0009 11.4432 16.0009 11.4418 16.0009 11.4405C16.0009 11.4392 16.0009 11.4379 16.0009 11.4366C16.0009 11.4353 16.0009 11.434 16.0009 11.4327C16.0009 11.4315 16.0009 11.4302 16.0009 11.4289C16.0009 11.4276 16.0009 11.4264 16.0009 11.4251C16.0009 11.4239 16.0009 11.4226 16.0009 11.4214C16.0009 11.4201 16.0009 11.4189 16.0009 11.4176C16.0009 11.4164 16.0009 11.4152 16.0009 11.414C16.0009 11.4127 16.0009 11.4115 16.0009 11.4103C16.0009 11.4091 16.0009 11.4079 16.0009 11.4067C16.0009 11.4055 16.0009 11.4043 16.0009 11.4031C16.0009 11.402 16.0009 11.4008 16.0009 11.3996C16.0009 11.3984 16.0009 11.3973 16.0009 11.3961C16.0009 11.395 16.0009 11.3938 16.0009 11.3927C16.0009 11.3915 16.0009 11.3904 16.0009 11.3893C16.0009 11.3881 16.0009 11.387 16.0009 11.3859C16.0009 11.3848 16.0009 11.3836 16.0009 11.3825C16.0009 11.3814 16.0009 11.3803 16.0009 11.3792C16.0009 11.3782 16.0009 11.3771 16.0009 11.376C16.0009 11.3749 16.0009 11.3738 16.0009 11.3728C16.0009 11.3717 16.0009 11.3707 16.0009 11.3696C16.0009 11.3686 16.0009 11.3675 16.0009 11.3665C16.0009 11.3654 16.0009 11.3644 16.0009 11.3634C16.0009 11.3623 16.0009 11.3613 16.0009 11.3603C16.0009 11.3593 16.0009 11.3583 16.0009 11.3573C16.0009 11.3563 16.0009 11.3553 16.0009 11.3543C16.0009 11.3533 16.0009 11.3524 16.0009 11.3514C16.0009 11.3504 16.0009 11.3495 16.0009 11.3485C16.0009 11.3475 16.0009 11.3466 16.0009 11.3457C16.0009 11.3447 16.0009 11.3438 16.0009 11.3428C16.0009 11.3419 16.0009 11.341 16.0009 11.3401C16.0009 11.3392 16.0009 11.3382 16.0009 11.3373C16.0009 11.3364 16.0009 11.3355 16.0009 11.3347C16.0009 11.3338 16.0009 11.3329 16.0009 11.332C16.0009 11.3311 16.0009 11.3303 16.0009 11.3294C16.0009 11.3286 16.0009 11.3277 16.0009 11.3269C16.0009 11.326 16.0009 11.3252 16.0009 11.3243C16.0009 11.3235 16.0009 11.3227 16.0009 11.3219C16.0009 11.321 16.0009 11.3202 16.0009 11.3194C16.0009 11.3186 16.0009 11.3178 16.0009 11.317C16.0009 11.3162 16.0009 11.3155 16.0009 11.3147C16.0009 11.3139 16.0009 11.3131 16.0009 11.3124C16.0009 11.3116 16.0009 11.3109 16.0009 11.3101C16.0009 11.3094 16.0009 11.3086 16.0009 11.3079C16.0009 11.3072 16.0009 11.3064 16.0009 11.3057C16.0009 11.305 16.0009 11.3043 16.0009 11.3036C16.0009 11.3029 16.0009 11.3022 16.0009 11.3015C16.0009 11.3008 16.0009 11.3001 16.0009 11.2995C16.0009 11.2988 16.0009 11.2981 16.0009 11.2975C16.0009 11.2968 16.0009 11.2962 16.0009 11.2955C16.0009 11.2949 16.0009 11.2942 16.0009 11.2936C16.0009 11.293 16.0009 11.2923 16.0009 11.2917C16.0009 11.2911 16.0009 11.2905 16.0009 11.2899C16.0009 11.2893 16.0009 11.2887 16.0009 11.2881C16.0009 11.2875 16.0009 11.287 16.0009 11.2864C16.0009 11.2858 16.0009 11.2853 16.0009 11.2847C16.0009 11.2842 16.0009 11.2836 16.0009 11.2831C16.0009 11.2825 16.0009 11.282 16.0009 11.2815C16.0009 11.2809 16.0009 11.2804 16.0009 11.2799C16.0009 11.2794 16.0009 11.2789 16.0009 11.2784C16.0009 11.2779 16.0009 11.2774 16.0009 11.2769C16.0009 11.2765 16.0009 11.276 16.0009 11.2755C16.0009 11.2751 16.0009 11.2746 16.0009 11.2742C16.0009 11.2737 16.0009 11.2733 16.0009 11.2728C16.0009 11.2724 16.0009 11.272 16.0009 11.2716C16.0009 11.2711 16.0009 11.2707 16.0009 11.2703C16.0009 11.2699 16.0009 11.2695 16.0009 11.2691C16.0009 11.2688 16.0009 11.2684 16.0009 11.268C16.0009 11.2676 16.0009 11.2673 16.0009 11.2669C16.0009 11.2666 16.0009 11.2662 16.0009 11.2659C16.0009 11.2655 16.0009 11.2652 16.0009 11.2649C16.0009 11.2645 16.0009 11.2642 16.0009 11.2639C16.0009 11.2636 16.0009 11.2633 16.0009 11.263C16.0009 11.2627 16.0009 11.2624 16.0009 11.2622C16.0009 11.2619 16.0009 11.2616 16.0009 11.2614C16.0009 11.2611 16.0009 11.2608 16.0009 11.2606C16.0009 11.2604 16.0009 11.2601 16.0009 11.2599C16.0009 11.2597 16.0009 11.2594 16.0009 11.2592C16.0009 11.259 16.0009 11.2588 16.0009 11.2586C16.0009 11.2584 16.0009 11.2582 16.0009 11.258C16.0009 11.2579 16.0009 11.2577 16.0009 11.2575C16.0009 11.2574 16.0009 11.2572 16.0009 11.2571C16.0009 11.2569 16.0009 11.2568 16.0009 11.2566C16.0009 11.2565 16.0009 11.2564 16.0009 11.2563C16.0009 11.2561 16.0009 11.256 16.0009 11.2559C16.0009 11.2558 16.0009 11.2557 16.0009 11.2557C16.0009 11.2556 16.0009 11.2555 16.0009 11.2554C16.0009 11.2554 16.0009 11.2553 16.0009 11.2553C16.0009 11.2552 16.0009 11.2552 16.0009 11.2551C16.0009 11.2551 16.0009 11.2551 16.0009 11.2551C16.0009 11.255 16.0009 11.255 15.0009 11.255C14.0009 11.255 14.0009 11.255 14.0009 11.2551C14.0009 11.2551 14.0009 11.2551 14.0009 11.2551C14.0009 11.2552 14.0009 11.2552 14.0009 11.2553C14.0009 11.2553 14.0009 11.2554 14.0009 11.2554C14.0009 11.2555 14.0009 11.2556 14.0009 11.2557C14.0009 11.2557 14.0009 11.2558 14.0009 11.2559C14.0009 11.256 14.0009 11.2561 14.0009 11.2563C14.0009 11.2564 14.0009 11.2565 14.0009 11.2566C14.0009 11.2568 14.0009 11.2569 14.0009 11.2571C14.0009 11.2572 14.0009 11.2574 14.0009 11.2575C14.0009 11.2577 14.0009 11.2579 14.0009 11.258C14.0009 11.2582 14.0009 11.2584 14.0009 11.2586C14.0009 11.2588 14.0009 11.259 14.0009 11.2592C14.0009 11.2594 14.0009 11.2597 14.0009 11.2599C14.0009 11.2601 14.0009 11.2604 14.0009 11.2606C14.0009 11.2608 14.0009 11.2611 14.0009 11.2614C14.0009 11.2616 14.0009 11.2619 14.0009 11.2622C14.0009 11.2624 14.0009 11.2627 14.0009 11.263C14.0009 11.2633 14.0009 11.2636 14.0009 11.2639C14.0009 11.2642 14.0009 11.2645 14.0009 11.2649C14.0009 11.2652 14.0009 11.2655 14.0009 11.2659C14.0009 11.2662 14.0009 11.2666 14.0009 11.2669C14.0009 11.2673 14.0009 11.2676 14.0009 11.268C14.0009 11.2684 14.0009 11.2688 14.0009 11.2691C14.0009 11.2695 14.0009 11.2699 14.0009 11.2703C14.0009 11.2707 14.0009 11.2711 14.0009 11.2716C14.0009 11.272 14.0009 11.2724 14.0009 11.2728C14.0009 11.2733 14.0009 11.2737 14.0009 11.2742C14.0009 11.2746 14.0009 11.2751 14.0009 11.2755C14.0009 11.276 14.0009 11.2765 14.0009 11.2769C14.0009 11.2774 14.0009 11.2779 14.0009 11.2784C14.0009 11.2789 14.0009 11.2794 14.0009 11.2799C14.0009 11.2804 14.0009 11.2809 14.0009 11.2815C14.0009 11.282 14.0009 11.2825 14.0009 11.2831C14.0009 11.2836 14.0009 11.2842 14.0009 11.2847C14.0009 11.2853 14.0009 11.2858 14.0009 11.2864C14.0009 11.287 14.0009 11.2875 14.0009 11.2881C14.0009 11.2887 14.0009 11.2893 14.0009 11.2899C14.0009 11.2905 14.0009 11.2911 14.0009 11.2917C14.0009 11.2923 14.0009 11.293 14.0009 11.2936C14.0009 11.2942 14.0009 11.2949 14.0009 11.2955C14.0009 11.2962 14.0009 11.2968 14.0009 11.2975C14.0009 11.2981 14.0009 11.2988 14.0009 11.2995C14.0009 11.3001 14.0009 11.3008 14.0009 11.3015C14.0009 11.3022 14.0009 11.3029 14.0009 11.3036C14.0009 11.3043 14.0009 11.305 14.0009 11.3057C14.0009 11.3064 14.0009 11.3072 14.0009 11.3079C14.0009 11.3086 14.0009 11.3094 14.0009 11.3101C14.0009 11.3109 14.0009 11.3116 14.0009 11.3124C14.0009 11.3131 14.0009 11.3139 14.0009 11.3147C14.0009 11.3155 14.0009 11.3162 14.0009 11.317C14.0009 11.3178 14.0009 11.3186 14.0009 11.3194C14.0009 11.3202 14.0009 11.321 14.0009 11.3219C14.0009 11.3227 14.0009 11.3235 14.0009 11.3243C14.0009 11.3252 14.0009 11.326 14.0009 11.3269C14.0009 11.3277 14.0009 11.3286 14.0009 11.3294C14.0009 11.3303 14.0009 11.3311 14.0009 11.332C14.0009 11.3329 14.0009 11.3338 14.0009 11.3347C14.0009 11.3355 14.0009 11.3364 14.0009 11.3373C14.0009 11.3382 14.0009 11.3392 14.0009 11.3401C14.0009 11.341 14.0009 11.3419 14.0009 11.3428C14.0009 11.3438 14.0009 11.3447 14.0009 11.3457C14.0009 11.3466 14.0009 11.3475 14.0009 11.3485C14.0009 11.3495 14.0009 11.3504 14.0009 11.3514C14.0009 11.3524 14.0009 11.3533 14.0009 11.3543C14.0009 11.3553 14.0009 11.3563 14.0009 11.3573C14.0009 11.3583 14.0009 11.3593 14.0009 11.3603C14.0009 11.3613 14.0009 11.3623 14.0009 11.3634C14.0009 11.3644 14.0009 11.3654 14.0009 11.3665C14.0009 11.3675 14.0009 11.3686 14.0009 11.3696C14.0009 11.3707 14.0009 11.3717 14.0009 11.3728C14.0009 11.3738 14.0009 11.3749 14.0009 11.376C14.0009 11.3771 14.0009 11.3782 14.0009 11.3792C14.0009 11.3803 14.0009 11.3814 14.0009 11.3825C14.0009 11.3836 14.0009 11.3848 14.0009 11.3859C14.0009 11.387 14.0009 11.3881 14.0009 11.3893C14.0009 11.3904 14.0009 11.3915 14.0009 11.3927C14.0009 11.3938 14.0009 11.395 14.0009 11.3961C14.0009 11.3973 14.0009 11.3984 14.0009 11.3996C14.0009 11.4008 14.0009 11.402 14.0009 11.4031C14.0009 11.4043 14.0009 11.4055 14.0009 11.4067C14.0009 11.4079 14.0009 11.4091 14.0009 11.4103C14.0009 11.4115 14.0009 11.4127 14.0009 11.414C14.0009 11.4152 14.0009 11.4164 14.0009 11.4176C14.0009 11.4189 14.0009 11.4201 14.0009 11.4214C14.0009 11.4226 14.0009 11.4239 14.0009 11.4251C14.0009 11.4264 14.0009 11.4276 14.0009 11.4289C14.0009 11.4302 14.0009 11.4315 14.0009 11.4327C14.0009 11.434 14.0009 11.4353 14.0009 11.4366C14.0009 11.4379 14.0009 11.4392 14.0009 11.4405C14.0009 11.4418 14.0009 11.4432 14.0009 11.4445C14.0009 11.4458 14.0009 11.4471 14.0009 11.4485C14.0009 11.4498 14.0009 11.4511 14.0009 11.4525C14.0009 11.4538 14.0009 11.4552 14.0009 11.4565C14.0009 11.4579 14.0009 11.4593 14.0009 11.4606C14.0009 11.462 14.0009 11.4634 14.0009 11.4648C14.0009 11.4661 14.0009 11.4675 14.0009 11.4689C14.0009 11.4703 14.0009 11.4717 14.0009 11.4731C14.0009 11.4745 14.0009 11.4759 14.0009 11.4774C14.0009 11.4788 14.0009 11.4802 14.0009 11.4816C14.0009 11.4831 14.0009 11.4845 14.0009 11.4859C14.0009 11.4874 14.0009 11.4888 14.0009 11.4903C14.0009 11.4917 14.0009 11.4932 14.0009 11.4947C14.0009 11.4961 14.0009 11.4976 14.0009 11.4991C14.0009 11.5006 14.0009 11.502 14.0009 11.5035C14.0009 11.505 14.0009 11.5065 14.0009 11.508C14.0009 11.5095 14.0009 11.511 14.0009 11.5125C14.0009 11.5141 14.0009 11.5156 14.0009 11.5171C14.0009 11.5186 14.0009 11.5202 14.0009 11.5217C14.0009 11.5232 14.0009 11.5248 14.0009 11.5263C14.0009 11.5279 14.0009 11.5294 14.0009 11.531C14.0009 11.5325 14.0009 11.5341 14.0009 11.5357C14.0009 11.5372 14.0009 11.5388 14.0009 11.5404C14.0009 11.542 14.0009 11.5436 14.0009 11.5452C14.0009 11.5467 14.0009 11.5483 14.0009 11.5499C14.0009 11.5516 14.0009 11.5532 14.0009 11.5548C14.0009 11.5564 14.0009 11.558 14.0009 11.5596C14.0009 11.5613 14.0009 11.5629 14.0009 11.5645C14.0009 11.5662 14.0009 11.5678 14.0009 11.5695C14.0009 11.5711 14.0009 11.5728 14.0009 11.5744C14.0009 11.5761 14.0009 11.5777 14.0009 11.5794C14.0009 11.5811 14.0009 11.5828 14.0009 11.5844C14.0009 11.5861 14.0009 11.5878 14.0009 11.5895C14.0009 11.5912 14.0009 11.5929 14.0009 11.5946C14.0009 11.5963 14.0009 11.598 14.0009 11.5997C14.0009 11.6014 14.0009 11.6031 14.0009 11.6049C14.0009 11.6066 14.0009 11.6083 14.0009 11.6101C14.0009 11.6118 14.0009 11.6135 14.0009 11.6153C14.0009 11.617 14.0009 11.6188 14.0009 11.6205C14.0009 11.6223 14.0009 11.624 14.0009 11.6258C14.0009 11.6276 14.0009 11.6293 14.0009 11.6311C14.0009 11.6329 14.0009 11.6347 14.0009 11.6365C14.0009 11.6383 14.0009 11.64 14.0009 11.6418C14.0009 11.6436 14.0009 11.6454 14.0009 11.6472C14.0009 11.6491 14.0009 11.6509 14.0009 11.6527C14.0009 11.6545 14.0009 11.6563 14.0009 11.6582C14.0009 11.66 14.0009 11.6618 14.0009 11.6637C14.0009 11.6655 14.0009 11.6673 14.0009 11.6692C14.0009 11.671 14.0009 11.6729 14.0009 11.6747C14.0009 11.6766 14.0009 11.6785 14.0009 11.6803C14.0009 11.6822 14.0009 11.6841 14.0009 11.686C14.0009 11.6878 14.0009 11.6897 14.0009 11.6916C14.0009 11.6935 14.0009 11.6954 14.0009 11.6973C14.0009 11.6992 14.0009 11.7011 14.0009 11.703C14.0009 11.7049 14.0009 11.7068 14.0009 11.7087C14.0009 11.7106 14.0009 11.7126 14.0009 11.7145C14.0009 11.7164 14.0009 11.7184 14.0009 11.7203C14.0009 11.7222 14.0009 11.7242 14.0009 11.7261C14.0009 11.7281 14.0009 11.73 14.0009 11.732C14.0009 11.7339 14.0009 11.7359 14.0009 11.7379C14.0009 11.7398 14.0009 11.7418 14.0009 11.7438C14.0009 11.7457 14.0009 11.7477 14.0009 11.7497C14.0009 11.7517 14.0009 11.7537 14.0009 11.7557C14.0009 11.7577 14.0009 11.7597 14.0009 11.7617C14.0009 11.7637 14.0009 11.7657 14.0009 11.7677C14.0009 11.7697 14.0009 11.7717 14.0009 11.7737C14.0009 11.7758 14.0009 11.7778 14.0009 11.7798C14.0009 11.7818 14.0009 11.7839 14.0009 11.7859C14.0009 11.788 14.0009 11.79 14.0009 11.7921C14.0009 11.7941 14.0009 11.7962 14.0009 11.7982C14.0009 11.8003 14.0009 11.8023 14.0009 11.8044C14.0009 11.8065 14.0009 11.8085 14.0009 11.8106C14.0009 11.8127 14.0009 11.8148 14.0009 11.8169C14.0009 11.819 14.0009 11.821 14.0009 11.8231C14.0009 11.8252 14.0009 11.8273 14.0009 11.8294C14.0009 11.8315 14.0009 11.8336 14.0009 11.8358C14.0009 11.8379 14.0009 11.84 14.0009 11.8421C14.0009 11.8442 14.0009 11.8463 14.0009 11.8485C14.0009 11.8506 14.0009 11.8527 14.0009 11.8549C14.0009 11.857 14.0009 11.8591 14.0009 11.8613C14.0009 11.8634 14.0009 11.8656 14.0009 11.8677C14.0009 11.8699 14.0009 11.8721 14.0009 11.8742C14.0009 11.8764 14.0009 11.8786 14.0009 11.8807C14.0009 11.8829 14.0009 11.8851 14.0009 11.8873C14.0009 11.8894 14.0009 11.8916 14.0009 11.8938C14.0009 11.896 14.0009 11.8982 14.0009 11.9004C14.0009 11.9026 14.0009 11.9048 14.0009 11.907C14.0009 11.9092 14.0009 11.9114 14.0009 11.9136C14.0009 11.9158 14.0009 11.918 14.0009 11.9203C14.0009 11.9225 14.0009 11.9247 14.0009 11.9269C14.0009 11.9292 14.0009 11.9314 14.0009 11.9336C14.0009 11.9359 14.0009 11.9381 14.0009 11.9404C14.0009 11.9426 14.0009 11.9448 14.0009 11.9471C14.0009 11.9494 14.0009 11.9516 14.0009 11.9539C14.0009 11.9561 14.0009 11.9584 14.0009 11.9607C14.0009 11.9629 14.0009 11.9652 14.0009 11.9675C14.0009 11.9698 14.0009 11.972 14.0009 11.9743C14.0009 11.9766 14.0009 11.9789 14.0009 11.9812C14.0009 11.9835 14.0009 11.9858 14.0009 11.9881C14.0009 11.9904 14.0009 11.9927 14.0009 11.995C14.0009 11.9973 14.0009 11.9996 14.0009 12.0019C14.0009 12.0042 14.0009 12.0066 14.0009 12.0089C14.0009 12.0112 14.0009 12.0135 14.0009 12.0159C14.0009 12.0182 14.0009 12.0205 14.0009 12.0229C14.0009 12.0252 14.0009 12.0275 14.0009 12.0299C14.0009 12.0322 14.0009 12.0346 14.0009 12.0369C14.0009 12.0393 14.0009 12.0416 14.0009 12.044C14.0009 12.0463 14.0009 12.0487 14.0009 12.0511C14.0009 12.0534 14.0009 12.0558 14.0009 12.0582C14.0009 12.0606 14.0009 12.0629 14.0009 12.0653C14.0009 12.0677 14.0009 12.0701 14.0009 12.0725C14.0009 12.0749 14.0009 12.0772 14.0009 12.0796C14.0009 12.082 14.0009 12.0844 14.0009 12.0868C14.0009 12.0892 14.0009 12.0916 14.0009 12.0941C14.0009 12.0965 14.0009 12.0989 14.0009 12.1013C14.0009 12.1037 14.0009 12.1061 14.0009 12.1085C14.0009 12.111 14.0009 12.1134 14.0009 12.1158C14.0009 12.1182 14.0009 12.1207 14.0009 12.1231C14.0009 12.1256 14.0009 12.128 14.0009 12.1304C14.0009 12.1329 14.0009 12.1353 14.0009 12.1378C14.0009 12.1402 14.0009 12.1427 14.0009 12.1451C14.0009 12.1476 14.0009 12.15 14.0009 12.1525C14.0009 12.155 14.0009 12.1574 14.0009 12.1599C14.0009 12.1624 14.0009 12.1648 14.0009 12.1673C14.0009 12.1698 14.0009 12.1723 14.0009 12.1748C14.0009 12.1772 14.0009 12.1797 14.0009 12.1822C14.0009 12.1847 14.0009 12.1872 14.0009 12.1897C14.0009 12.1922 14.0009 12.1947 14.0009 12.1972C14.0009 12.1997 14.0009 12.2022 14.0009 12.2047C14.0009 12.2072 14.0009 12.2097 14.0009 12.2122C14.0009 12.2147 14.0009 12.2172 14.0009 12.2198C14.0009 12.2223 14.0009 12.2248 14.0009 12.2273C14.0009 12.2299 14.0009 12.2324 14.0009 12.2349C14.0009 12.2374 14.0009 12.24 14.0009 12.2425C14.0009 12.2451 14.0009 12.2476 14.0009 12.2501C14.0009 12.2527 14.0009 12.2552 14.0009 12.2578C14.0009 12.2603 14.0009 12.2629 14.0009 12.2654C14.0009 12.268 14.0009 12.2705 14.0009 12.2731C14.0009 12.2757 14.0009 12.2782 14.0009 12.2808C14.0009 12.2834 14.0009 12.2859 14.0009 12.2885C14.0009 12.2911 14.0009 12.2936 14.0009 12.2962C14.0009 12.2988 14.0009 12.3014 14.0009 12.304C14.0009 12.3065 14.0009 12.3091 14.0009 12.3117C14.0009 12.3143 14.0009 12.3169 14.0009 12.3195C14.0009 12.3221 14.0009 12.3247 14.0009 12.3273C14.0009 12.3299 14.0009 12.3325 14.0009 12.3351C14.0009 12.3377 14.0009 12.3403 14.0009 12.3429C14.0009 12.3455 14.0009 12.3481 14.0009 12.3508C14.0009 12.3534 14.0009 12.356 14.0009 12.3586C14.0009 12.3612 14.0009 12.3639 14.0009 12.3665C14.0009 12.3691 14.0009 12.3717 14.0009 12.3744C14.0009 12.377 14.0009 12.3796 14.0009 12.3823C14.0009 12.3849 14.0009 12.3875 14.0009 12.3902C14.0009 12.3928 14.0009 12.3955 14.0009 12.3981C14.0009 12.4008 14.0009 12.4034 14.0009 12.4061C14.0009 12.4087 14.0009 12.4114 14.0009 12.414C14.0009 12.4167 14.0009 12.4193 14.0009 12.422C14.0009 12.4247 14.0009 12.4273 14.0009 12.43C14.0009 12.4327 14.0009 12.4353 14.0009 12.438C14.0009 12.4407 14.0009 12.4433 14.0009 12.446C14.0009 12.4487 14.0009 12.4514 14.0009 12.454C14.0009 12.4567 14.0009 12.4594 14.0009 12.4621C14.0009 12.4648 14.0009 12.4675 14.0009 12.4701C14.0009 12.4728 14.0009 12.4755 14.0009 12.4782C14.0009 12.4809 14.0009 12.4836 14.0009 12.4863C14.0009 12.489 14.0009 12.4917 14.0009 12.4944C14.0009 12.4971 14.0009 12.4998 14.0009 12.5025C14.0009 12.5052 14.0009 12.5079 14.0009 12.5107C14.0009 12.5134 14.0009 12.5161 14.0009 12.5188C14.0009 12.5215 14.0009 12.5242 14.0009 12.5269C14.0009 12.5297 14.0009 12.5324 14.0009 12.5351C14.0009 12.5378 14.0009 12.5406 14.0009 12.5433C14.0009 12.546 14.0009 12.5488 14.0009 12.5515C14.0009 12.5542 14.0009 12.557 14.0009 12.5597C14.0009 12.5624 14.0009 12.5652 14.0009 12.5679C14.0009 12.5706 14.0009 12.5734 14.0009 12.5761C14.0009 12.5789 14.0009 12.5816 14.0009 12.5844C14.0009 12.5871 14.0009 12.5899 14.0009 12.5926C14.0009 12.5954 14.0009 12.5981 14.0009 12.6009C14.0009 12.6036 14.0009 12.6064 14.0009 12.6092C14.0009 12.6119 14.0009 12.6147 14.0009 12.6174C14.0009 12.6202 14.0009 12.623 14.0009 12.6257C14.0009 12.6285 14.0009 12.6313 14.0009 12.634C14.0009 12.6368 14.0009 12.6396 14.0009 12.6424C14.0009 12.6451 14.0009 12.6479 14.0009 12.6507C14.0009 12.6535 14.0009 12.6562 14.0009 12.659C14.0009 12.6618 14.0009 12.6646 14.0009 12.6674C14.0009 12.6702 14.0009 12.6729 14.0009 12.6757C14.0009 12.6785 14.0009 12.6813 14.0009 12.6841C14.0009 12.6869 14.0009 12.6897 14.0009 12.6925C14.0009 12.6953 14.0009 12.6981 14.0009 12.7009C14.0009 12.7037 14.0009 12.7065 14.0009 12.7093C14.0009 12.7121 14.0009 12.7149 14.0009 12.7177C14.0009 12.7205 14.0009 12.7233 14.0009 12.7261C14.0009 12.7289 14.0009 12.7317 14.0009 12.7345C14.0009 12.7373 14.0009 12.7401 14.0009 12.7429C14.0009 12.7458 14.0009 12.7486 14.0009 12.7514C14.0009 12.7542 14.0009 12.757 14.0009 12.7598C14.0009 12.7627 14.0009 12.7655 14.0009 12.7683C14.0009 12.7711 14.0009 12.774 14.0009 12.7768C14.0009 12.7796 14.0009 12.7824 14.0009 12.7853C14.0009 12.7881 14.0009 12.7909 14.0009 12.7937C14.0009 12.7966 14.0009 12.7994 14.0009 12.8022C14.0009 12.8051 14.0009 12.8079 14.0009 12.8107C14.0009 12.8136 14.0009 12.8164 14.0009 12.8192C14.0009 12.8221 14.0009 12.8249 14.0009 12.8278C14.0009 12.8306 14.0009 12.8334 14.0009 12.8363C14.0009 12.8391 14.0009 12.842 14.0009 12.8448C14.0009 12.8477 14.0009 12.8505 14.0009 12.8534C14.0009 12.8562 14.0009 12.8591 14.0009 12.8619C14.0009 12.8648 14.0009 12.8676 14.0009 12.8705C14.0009 12.8733 14.0009 12.8762 14.0009 12.879C14.0009 12.8819 14.0009 12.8847 14.0009 12.8876C14.0009 12.8904 14.0009 12.8933 14.0009 12.8962C14.0009 12.899 14.0009 12.9019 14.0009 12.9047C14.0009 12.9076 14.0009 12.9105 14.0009 12.9133C14.0009 12.9162 14.0009 12.9191 14.0009 12.9219C14.0009 12.9248 14.0009 12.9276 14.0009 12.9305C14.0009 12.9334 14.0009 12.9363 14.0009 12.9391C14.0009 12.942 14.0009 12.9449 14.0009 12.9477C14.0009 12.9506 14.0009 12.9535 14.0009 12.9563C14.0009 12.9592 14.0009 12.9621 14.0009 12.965C14.0009 12.9678 14.0009 12.9707 14.0009 12.9736C14.0009 12.9765 14.0009 12.9793 14.0009 12.9822C14.0009 12.9851 14.0009 12.988 14.0009 12.9909C14.0009 12.9937 14.0009 12.9966 14.0009 12.9995C14.0009 13.0024 14.0009 13.0053 14.0009 13.0081C14.0009 13.011 14.0009 13.0139 14.0009 13.0168C14.0009 13.0197 14.0009 13.0225 14.0009 13.0254C14.0009 13.0283 14.0009 13.0312 14.0009 13.0341C14.0009 13.037 14.0009 13.0399 14.0009 13.0428C14.0009 13.0456 14.0009 13.0485 14.0009 13.0514C14.0009 13.0543 14.0009 13.0572 14.0009 13.0601C14.0009 13.063 14.0009 13.0659 14.0009 13.0688C14.0009 13.0716 14.0009 13.0745 14.0009 13.0774C14.0009 13.0803 14.0009 13.0832 14.0009 13.0861C14.0009 13.089 14.0009 13.0919 14.0009 13.0948C14.0009 13.0977 14.0009 13.1006 14.0009 13.1035C14.0009 13.1064 14.0009 13.1093 14.0009 13.1122C14.0009 13.1151 14.0009 13.118 14.0009 13.1209C14.0009 13.1237 14.0009 13.1266 14.0009 13.1295C14.0009 13.1324 14.0009 13.1353 14.0009 13.1382C14.0009 13.1411 14.0009 13.144 14.0009 13.1469C14.0009 13.1498 14.0009 13.1527 14.0009 13.1556C14.0009 13.1585 14.0009 13.1614 14.0009 13.1643C14.0009 13.1672 14.0009 13.1701 14.0009 13.173C14.0009 13.1759 14.0009 13.1788 14.0009 13.1817C14.0009 13.1846 14.0009 13.1875 14.0009 13.1905C14.0009 13.1934 14.0009 13.1963 14.0009 13.1992C14.0009 13.2021 14.0009 13.205 14.0009 13.2079C14.0009 13.2108 14.0009 13.2137 14.0009 13.2166C14.0009 13.2195 14.0009 13.2224 14.0009 13.2253C14.0009 13.2282 14.0009 13.2311 14.0009 13.234C14.0009 13.2369 14.0009 13.2398 14.0009 13.2427C14.0009 13.2456 14.0009 13.2485 14.0009 13.2514C14.0009 13.2543 14.0009 13.2572 14.0009 13.2601C14.0009 13.263 14.0009 13.266 14.0009 13.2689C14.0009 13.2718 14.0009 13.2747 14.0009 13.2776C14.0009 13.2805 14.0009 13.2834 14.0009 13.2863C14.0009 13.2892 14.0009 13.2921 14.0009 13.295C14.0009 13.2979 14.0009 13.3008 14.0009 13.3037C14.0009 13.3066 14.0009 13.3095 14.0009 13.3124C14.0009 13.3153 14.0009 13.3182 14.0009 13.3211C14.0009 13.324 14.0009 13.3269 14.0009 13.3298C14.0009 13.3327 14.0009 13.3357 14.0009 13.3386C14.0009 13.3415 14.0009 13.3444 14.0009 13.3473C14.0009 13.3502 14.0009 13.3531 14.0009 13.356C14.0009 13.3589 14.0009 13.3618 14.0009 13.3647C14.0009 13.3676 14.0009 13.3705 14.0009 13.3734C14.0009 13.3763 14.0009 13.3792 14.0009 13.3821C14.0009 13.385 14.0009 13.3879 14.0009 13.3908C14.0009 13.3937 14.0009 13.3966 14.0009 13.3995C14.0009 13.4024 14.0009 13.4053 14.0009 13.4082C14.0009 13.4111 14.0009 13.414 14.0009 13.4169C14.0009 13.4198 14.0009 13.4227 14.0009 13.4256C14.0009 13.4285 14.0009 13.4314 14.0009 13.4343C14.0009 13.4372 14.0009 13.4401 14.0009 13.443C14.0009 13.4459 14.0009 13.4487 14.0009 13.4516C14.0009 13.4545 14.0009 13.4574 14.0009 13.4603C14.0009 13.4632 14.0009 13.4661 14.0009 13.469C14.0009 13.4719 14.0009 13.4748 14.0009 13.4777C14.0009 13.4806 14.0009 13.4835 14.0009 13.4864C14.0009 13.4892 14.0009 13.4921 14.0009 13.495C14.0009 13.4979 14.0009 13.5008 14.0009 13.5037C14.0009 13.5066 14.0009 13.5095 14.0009 13.5124C14.0009 13.5152 14.0009 13.5181 14.0009 13.521C14.0009 13.5239 14.0009 13.5268 14.0009 13.5297C14.0009 13.5325 14.0009 13.5354 14.0009 13.5383C14.0009 13.5412 14.0009 13.5441 14.0009 13.547C14.0009 13.5498 14.0009 13.5527 14.0009 13.5556C14.0009 13.5585 14.0009 13.5614 14.0009 13.5642C14.0009 13.5671 14.0009 13.57 14.0009 13.5729C14.0009 13.5757 14.0009 13.5786 14.0009 13.5815C14.0009 13.5844 14.0009 13.5872 14.0009 13.5901C14.0009 13.593 14.0009 13.5959 14.0009 13.5987C14.0009 13.6016 14.0009 13.6045 14.0009 13.6073C14.0009 13.6102 14.0009 13.6131 14.0009 13.6159C14.0009 13.6188 14.0009 13.6217 14.0009 13.6245C14.0009 13.6274 14.0009 13.6303 14.0009 13.6331C14.0009 13.636 14.0009 13.6389 14.0009 13.6417C14.0009 13.6446 14.0009 13.6475 14.0009 13.6503C14.0009 13.6532 14.0009 13.656 14.0009 13.6589C14.0009 13.6617 14.0009 13.6646 14.0009 13.6675C14.0009 13.6703 14.0009 13.6732 14.0009 13.676C14.0009 13.6789 14.0009 13.6817 14.0009 13.6846C14.0009 13.6874 14.0009 13.6903 14.0009 13.6931C14.0009 13.696 14.0009 13.6988 14.0009 13.7017C14.0009 13.7045 14.0009 13.7074 14.0009 13.7102C14.0009 13.713 14.0009 13.7159 14.0009 13.7187C14.0009 13.7216 14.0009 13.7244 14.0009 13.7272C14.0009 13.7301 14.0009 13.7329 14.0009 13.7358C14.0009 13.7386 14.0009 13.7414 14.0009 13.7443C14.0009 13.7471 14.0009 13.7499 14.0009 13.7528C14.0009 13.7556 14.0009 13.7584 14.0009 13.7613C14.0009 13.7641 14.0009 13.7669 14.0009 13.7697C14.0009 13.7726 14.0009 13.7754 14.0009 13.7782C14.0009 13.781 14.0009 13.7839 14.0009 13.7867C14.0009 13.7895 14.0009 13.7923 14.0009 13.7951C14.0009 13.7979 14.0009 13.8008 14.0009 13.8036C14.0009 13.8064 14.0009 13.8092 14.0009 13.812C14.0009 13.8148 14.0009 13.8176 14.0009 13.8204C14.0009 13.8233 14.0009 13.8261 14.0009 13.8289C14.0009 13.8317 14.0009 13.8345 14.0009 13.8373C14.0009 13.8401 14.0009 13.8429 14.0009 13.8457C14.0009 13.8485 14.0009 13.8513 14.0009 13.8541C14.0009 13.8569 14.0009 13.8597 14.0009 13.8624C14.0009 13.8652 14.0009 13.868 14.0009 13.8708C14.0009 13.8736 14.0009 13.8764 14.0009 13.8792C14.0009 13.882 14.0009 13.8848 14.0009 13.8875C14.0009 13.8903 14.0009 13.8931 14.0009 13.8959C14.0009 13.8987 14.0009 13.9014 14.0009 13.9042C14.0009 13.907 14.0009 13.9098 14.0009 13.9125C14.0009 13.9153 14.0009 13.9181 14.0009 13.9208C14.0009 13.9236 14.0009 13.9264 14.0009 13.9291C14.0009 13.9319 14.0009 13.9347 14.0009 13.9374C14.0009 13.9402 14.0009 13.9429 14.0009 13.9457C14.0009 13.9485 14.0009 13.9512 14.0009 13.954C14.0009 13.9567 14.0009 13.9595 14.0009 13.9622C14.0009 13.965 14.0009 13.9677 14.0009 13.9705C14.0009 13.9732 14.0009 13.976 14.0009 13.9787C14.0009 13.9814 14.0009 13.9842 14.0009 13.9869C14.0009 13.9897 14.0009 13.9924 14.0009 13.9951C14.0009 13.9979 14.0009 14.0006 14.0009 14.0033C14.0009 14.0061 14.0009 14.0088 14.0009 14.0115C14.0009 14.0142 14.0009 14.017 14.0009 14.0197C14.0009 14.0224 14.0009 14.0251 14.0009 14.0278C14.0009 14.0306 14.0009 14.0333 14.0009 14.036C14.0009 14.0387 14.0009 14.0414 14.0009 14.0441C14.0009 14.0468 14.0009 14.0495 14.0009 14.0522C14.0009 14.0549 14.0009 14.0576 14.0009 14.0603C14.0009 14.063 14.0009 14.0657 14.0009 14.0684C14.0009 14.0711 14.0009 14.0738 14.0009 14.0765C14.0009 14.0792 14.0009 14.0819 14.0009 14.0846C14.0009 14.0873 14.0009 14.0899 14.0009 14.0926C14.0009 14.0953 14.0009 14.098 14.0009 14.1007C14.0009 14.1033 14.0009 14.106 14.0009 14.1087C14.0009 14.1114 14.0009 14.114 14.0009 14.1167C14.0009 14.1194 14.0009 14.122 14.0009 14.1247C14.0009 14.1274 14.0009 14.13 14.0009 14.1327C14.0009 14.1353 14.0009 14.138 14.0009 14.1406C14.0009 14.1433 14.0009 14.1459 14.0009 14.1486C14.0009 14.1512 14.0009 14.1539 14.0009 14.1565C14.0009 14.1592 14.0009 14.1618 14.0009 14.1645C14.0009 14.1671 14.0009 14.1697 14.0009 14.1724C14.0009 14.175 14.0009 14.1776 14.0009 14.1803C14.0009 14.1829 14.0009 14.1855 14.0009 14.1881C14.0009 14.1908 14.0009 14.1934 14.0009 14.196C14.0009 14.1986 14.0009 14.2012 14.0009 14.2038C14.0009 14.2064 14.0009 14.2091 14.0009 14.2117C14.0009 14.2143 14.0009 14.2169 14.0009 14.2195C14.0009 14.2221 14.0009 14.2247 14.0009 14.2273C14.0009 14.2299 14.0009 14.2325 14.0009 14.2351C14.0009 14.2376 14.0009 14.2402 14.0009 14.2428C14.0009 14.2454 14.0009 14.248 14.0009 14.2506C14.0009 14.2531 14.0009 14.2557 14.0009 14.2583C14.0009 14.2609 14.0009 14.2634 14.0009 14.266C14.0009 14.2686 14.0009 14.2711 14.0009 14.2737C14.0009 14.2763 14.0009 14.2788 14.0009 14.2814C14.0009 14.2839 14.0009 14.2865 14.0009 14.289C14.0009 14.2916 14.0009 14.2941 14.0009 14.2967C14.0009 14.2992 14.0009 14.3018 14.0009 14.3043C14.0009 14.3069 14.0009 14.3094 14.0009 14.3119C14.0009 14.3145 14.0009 14.317 14.0009 14.3195C14.0009 14.322 14.0009 14.3246 14.0009 14.3271C14.0009 14.3296 14.0009 14.3321 14.0009 14.3346C14.0009 14.3372 14.0009 14.3397 14.0009 14.3422C14.0009 14.3447 14.0009 14.3472 14.0009 14.3497C14.0009 14.3522 14.0009 14.3547 14.0009 14.3572C14.0009 14.3597 14.0009 14.3622 14.0009 14.3647C14.0009 14.3672 14.0009 14.3697 14.0009 14.3721C14.0009 14.3746 14.0009 14.3771 14.0009 14.3796C14.0009 14.3821 14.0009 14.3845 14.0009 14.387C14.0009 14.3895 14.0009 14.3919 14.0009 14.3944C14.0009 14.3969 14.0009 14.3993 14.0009 14.4018C14.0009 14.4042 14.0009 14.4067 14.0009 14.4092C14.0009 14.4116 14.0009 14.4141 14.0009 14.4165C14.0009 14.4189 14.0009 14.4214 14.0009 14.4238C14.0009 14.4263 14.0009 14.4287 14.0009 14.4311C14.0009 14.4336 14.0009 14.436 14.0009 14.4384C14.0009 14.4408 14.0009 14.4433 14.0009 14.4457C14.0009 14.4481 14.0009 14.4505 14.0009 14.4529C14.0009 14.4553 14.0009 14.4577 14.0009 14.4601C14.0009 14.4625 14.0009 14.4649 14.0009 14.4673C14.0009 14.4697 14.0009 14.4721 14.0009 14.4745C14.0009 14.4769 14.0009 14.4793 14.0009 14.4817C14.0009 14.4841 14.0009 14.4864 14.0009 14.4888C14.0009 14.4912 14.0009 14.4936 14.0009 14.4959C14.0009 14.4983 14.0009 14.5007 14.0009 14.503C14.0009 14.5054 14.0009 14.5078 14.0009 14.5101C14.0009 14.5125 14.0009 14.5148 14.0009 14.5172C14.0009 14.5195 14.0009 14.5219 14.0009 14.5242C14.0009 14.5265 14.0009 14.5289 14.0009 14.5312C14.0009 14.5335 14.0009 14.5359 14.0009 14.5382C14.0009 14.5405 14.0009 14.5428 14.0009 14.5452C14.0009 14.5475 14.0009 14.5498 14.0009 14.5521C14.0009 14.5544 14.0009 14.5567 14.0009 14.559C14.0009 14.5613 14.0009 14.5636 14.0009 14.5659C14.0009 14.5682 14.0009 14.5705 14.0009 14.5728C14.0009 14.5751 14.0009 14.5774 14.0009 14.5796C14.0009 14.5819 14.0009 14.5842 14.0009 14.5865C14.0009 14.5887 14.0009 14.591 14.0009 14.5933C14.0009 14.5955 14.0009 14.5978 14.0009 14.6H16.0009ZM15.4481 10.3606L14.0581 9.6656L13.1637 11.4545L14.5537 12.1495L15.4481 10.3606ZM10.8382 11.4544C11.5701 11.0885 12.4317 11.0885 13.1637 11.4545L14.0581 9.6656C12.7631 9.01808 11.2388 9.01808 9.94372 9.6656L10.8382 11.4544ZM12.0575 5.7998H2.40035V7.7998H12.0575V5.7998Z" fill="black"/>
</svg>
