<svg width="24" height="24" viewBox="0 0 24 24" fill="none" xmlns="http://www.w3.org/2000/svg">
<path d="M6.59999 8.7999V7.88562C6.59999 4.84671 9.00856 2.3999 12 2.3999C13.8634 2.3999 15.5007 3.34934 16.4705 4.7999M6.59999 8.7999C5.60999 8.7999 4.79999 9.62276 4.79999 10.6285V19.7713C4.79999 20.777 5.60999 21.5999 6.59999 21.5999H17.4C18.39 21.5999 19.2 20.777 19.2 19.7713V10.6285C19.2 9.62276 18.39 8.7999 17.4 8.7999H6.59999ZM12 13.3713C12.99 13.3713 13.8 14.1942 13.8 15.1999C13.8 16.2056 12.99 17.0285 12 17.0285C11.01 17.0285 10.2 16.2056 10.2 15.1999C10.2 14.1942 11.01 13.3713 12 13.3713Z" stroke="black" stroke-width="2" stroke-linecap="round"/>
</svg>
