<svg width="24" height="24" viewBox="0 0 24 24" fill="none" xmlns="http://www.w3.org/2000/svg">
<path d="M6.52888 9.30234H6.66891M12 9.30234H12.14M17.3295 9.30234H17.4695M11.4 14.7023H4.53333C3.35512 14.7023 2.39999 13.7472 2.39999 12.569V6.03568C2.39999 4.85747 3.35512 3.90234 4.53333 3.90234H19.4667C20.6449 3.90234 21.6 4.85747 21.6 6.03568V9.30234M15.4112 13.5974L16.8012 12.9024C17.8147 12.3957 19.0077 12.3957 20.0212 12.9024L21.4112 13.5974C21.4112 13.5974 21.4112 15.7874 21.4112 16.9424C21.4112 18.0974 20.3435 18.8771 18.4112 20.0974C16.4789 18.8771 15.4112 17.8474 15.4112 16.9424V13.5974Z" stroke="black" stroke-width="2" stroke-linecap="round" stroke-linejoin="round"/>
</svg>
