<svg width="24" height="24" viewBox="0 0 24 24" fill="none" xmlns="http://www.w3.org/2000/svg">
<path d="M4.8 5.78738L4.35279 4.89296C4.014 5.06235 3.8 5.40861 3.8 5.78738H4.8ZM12 21.3874L11.466 22.2329C11.7922 22.4389 12.2078 22.4389 12.534 22.2329L12 21.3874ZM19.2 5.78738H20.2C20.2 5.40861 19.986 5.06235 19.6472 4.89296L19.2 5.78738ZM10.39 2.99237L9.94282 2.09794L10.39 2.99237ZM13.61 2.99237L14.0572 2.09794L14.0572 2.09794L13.61 2.99237ZM14.7 11.8875C15.2523 11.8875 15.7 11.4398 15.7 10.8875C15.7 10.3352 15.2523 9.88752 14.7 9.88752V11.8875ZM9.3 9.88752C8.74772 9.88752 8.3 10.3352 8.3 10.8875C8.3 11.4398 8.74772 11.8875 9.3 11.8875V9.88752ZM11 13.5874C11 14.1397 11.4477 14.5874 12 14.5874C12.5523 14.5874 13 14.1397 13 13.5874H11ZM13 8.18738C13 7.6351 12.5523 7.18738 12 7.18738C11.4477 7.18738 11 7.6351 11 8.18738H13ZM9.94282 2.09794L4.35279 4.89296L5.24721 6.68181L10.8372 3.88679L9.94282 2.09794ZM3.8 5.78738V13.8154H5.8V5.78738H3.8ZM3.8 13.8154C3.8 15.2949 4.66307 16.697 5.94384 18.0146C7.24507 19.3532 9.1219 20.7525 11.466 22.2329L12.534 20.5419C10.2405 19.0935 8.51733 17.7927 7.37796 16.6206C6.21813 15.4274 5.8 14.5079 5.8 13.8154H3.8ZM12.534 22.2329C14.8389 20.7772 16.7279 19.5251 18.0344 18.2613C19.3682 16.9711 20.2 15.5677 20.2 13.8154H18.2C18.2 14.8351 17.7506 15.7532 16.6438 16.8238C15.5097 17.9209 13.7987 19.0687 11.466 20.5419L12.534 22.2329ZM20.2 13.8154C20.2 13.81 20.2 13.8045 20.2 13.7991C20.2 13.7937 20.2 13.7882 20.2 13.7828C20.2 13.7773 20.2 13.7719 20.2 13.7664C20.2 13.7609 20.2 13.7555 20.2 13.75C20.2 13.7445 20.2 13.739 20.2 13.7335C20.2 13.728 20.2 13.7224 20.2 13.7169C20.2 13.7114 20.2 13.7059 20.2 13.7003C20.2 13.6948 20.2 13.6892 20.2 13.6837C20.2 13.6781 20.2 13.6725 20.2 13.6669C20.2 13.6614 20.2 13.6558 20.2 13.6502C20.2 13.6446 20.2 13.639 20.2 13.6334C20.2 13.6277 20.2 13.6221 20.2 13.6165C20.2 13.6108 20.2 13.6052 20.2 13.5996C20.2 13.5939 20.2 13.5882 20.2 13.5826C20.2 13.5769 20.2 13.5712 20.2 13.5655C20.2 13.5599 20.2 13.5542 20.2 13.5485C20.2 13.5428 20.2 13.5371 20.2 13.5313C20.2 13.5256 20.2 13.5199 20.2 13.5141C20.2 13.5084 20.2 13.5027 20.2 13.4969C20.2 13.4912 20.2 13.4854 20.2 13.4796C20.2 13.4739 20.2 13.4681 20.2 13.4623C20.2 13.4565 20.2 13.4507 20.2 13.4449C20.2 13.4391 20.2 13.4333 20.2 13.4275C20.2 13.4217 20.2 13.4158 20.2 13.41C20.2 13.4042 20.2 13.3983 20.2 13.3925C20.2 13.3866 20.2 13.3808 20.2 13.3749C20.2 13.369 20.2 13.3631 20.2 13.3573C20.2 13.3514 20.2 13.3455 20.2 13.3396C20.2 13.3337 20.2 13.3278 20.2 13.3219C20.2 13.3159 20.2 13.31 20.2 13.3041C20.2 13.2982 20.2 13.2922 20.2 13.2863C20.2 13.2803 20.2 13.2744 20.2 13.2684C20.2 13.2625 20.2 13.2565 20.2 13.2505C20.2 13.2445 20.2 13.2385 20.2 13.2326C20.2 13.2266 20.2 13.2206 20.2 13.2146C20.2 13.2085 20.2 13.2025 20.2 13.1965C20.2 13.1905 20.2 13.1845 20.2 13.1784C20.2 13.1724 20.2 13.1663 20.2 13.1603C20.2 13.1542 20.2 13.1482 20.2 13.1421C20.2 13.1361 20.2 13.13 20.2 13.1239C20.2 13.1178 20.2 13.1117 20.2 13.1056C20.2 13.0995 20.2 13.0934 20.2 13.0873C20.2 13.0812 20.2 13.0751 20.2 13.069C20.2 13.0629 20.2 13.0567 20.2 13.0506C20.2 13.0445 20.2 13.0383 20.2 13.0322C20.2 13.026 20.2 13.0199 20.2 13.0137C20.2 13.0075 20.2 13.0014 20.2 12.9952C20.2 12.989 20.2 12.9828 20.2 12.9766C20.2 12.9704 20.2 12.9643 20.2 12.958C20.2 12.9518 20.2 12.9456 20.2 12.9394C20.2 12.9332 20.2 12.927 20.2 12.9207C20.2 12.9145 20.2 12.9083 20.2 12.902C20.2 12.8958 20.2 12.8895 20.2 12.8833C20.2 12.877 20.2 12.8708 20.2 12.8645C20.2 12.8582 20.2 12.8519 20.2 12.8457C20.2 12.8394 20.2 12.8331 20.2 12.8268C20.2 12.8205 20.2 12.8142 20.2 12.8079C20.2 12.8016 20.2 12.7953 20.2 12.789C20.2 12.7826 20.2 12.7763 20.2 12.77C20.2 12.7637 20.2 12.7573 20.2 12.751C20.2 12.7446 20.2 12.7383 20.2 12.7319C20.2 12.7256 20.2 12.7192 20.2 12.7128C20.2 12.7065 20.2 12.7001 20.2 12.6937C20.2 12.6873 20.2 12.681 20.2 12.6746C20.2 12.6682 20.2 12.6618 20.2 12.6554C20.2 12.649 20.2 12.6426 20.2 12.6361C20.2 12.6297 20.2 12.6233 20.2 12.6169C20.2 12.6105 20.2 12.604 20.2 12.5976C20.2 12.5912 20.2 12.5847 20.2 12.5783C20.2 12.5718 20.2 12.5654 20.2 12.5589C20.2 12.5525 20.2 12.546 20.2 12.5395C20.2 12.5331 20.2 12.5266 20.2 12.5201C20.2 12.5136 20.2 12.5071 20.2 12.5006C20.2 12.4942 20.2 12.4877 20.2 12.4812C20.2 12.4747 20.2 12.4682 20.2 12.4616C20.2 12.4551 20.2 12.4486 20.2 12.4421C20.2 12.4356 20.2 12.429 20.2 12.4225C20.2 12.416 20.2 12.4094 20.2 12.4029C20.2 12.3964 20.2 12.3898 20.2 12.3833C20.2 12.3767 20.2 12.3702 20.2 12.3636C20.2 12.357 20.2 12.3505 20.2 12.3439C20.2 12.3373 20.2 12.3308 20.2 12.3242C20.2 12.3176 20.2 12.311 20.2 12.3044C20.2 12.2978 20.2 12.2912 20.2 12.2846C20.2 12.278 20.2 12.2714 20.2 12.2648C20.2 12.2582 20.2 12.2516 20.2 12.245C20.2 12.2384 20.2 12.2317 20.2 12.2251C20.2 12.2185 20.2 12.2119 20.2 12.2052C20.2 12.1986 20.2 12.192 20.2 12.1853C20.2 12.1787 20.2 12.172 20.2 12.1654C20.2 12.1587 20.2 12.1521 20.2 12.1454C20.2 12.1387 20.2 12.1321 20.2 12.1254C20.2 12.1187 20.2 12.1121 20.2 12.1054C20.2 12.0987 20.2 12.092 20.2 12.0853C20.2 12.0786 20.2 12.072 20.2 12.0653C20.2 12.0586 20.2 12.0519 20.2 12.0452C20.2 12.0385 20.2 12.0318 20.2 12.0251C20.2 12.0183 20.2 12.0116 20.2 12.0049C20.2 11.9982 20.2 11.9915 20.2 11.9847C20.2 11.978 20.2 11.9713 20.2 11.9646C20.2 11.9578 20.2 11.9511 20.2 11.9444C20.2 11.9376 20.2 11.9309 20.2 11.9241C20.2 11.9174 20.2 11.9106 20.2 11.9039C20.2 11.8971 20.2 11.8904 20.2 11.8836C20.2 11.8768 20.2 11.8701 20.2 11.8633C20.2 11.8565 20.2 11.8498 20.2 11.843C20.2 11.8362 20.2 11.8294 20.2 11.8227C20.2 11.8159 20.2 11.8091 20.2 11.8023C20.2 11.7955 20.2 11.7887 20.2 11.7819C20.2 11.7751 20.2 11.7683 20.2 11.7615C20.2 11.7547 20.2 11.7479 20.2 11.7411C20.2 11.7343 20.2 11.7275 20.2 11.7207C20.2 11.7139 20.2 11.7071 20.2 11.7002C20.2 11.6934 20.2 11.6866 20.2 11.6798C20.2 11.6729 20.2 11.6661 20.2 11.6593C20.2 11.6525 20.2 11.6456 20.2 11.6388C20.2 11.632 20.2 11.6251 20.2 11.6183C20.2 11.6114 20.2 11.6046 20.2 11.5977C20.2 11.5909 20.2 11.584 20.2 11.5772C20.2 11.5703 20.2 11.5635 20.2 11.5566C20.2 11.5498 20.2 11.5429 20.2 11.536C20.2 11.5292 20.2 11.5223 20.2 11.5154C20.2 11.5086 20.2 11.5017 20.2 11.4948C20.2 11.488 20.2 11.4811 20.2 11.4742C20.2 11.4673 20.2 11.4604 20.2 11.4536C20.2 11.4467 20.2 11.4398 20.2 11.4329C20.2 11.426 20.2 11.4191 20.2 11.4122C20.2 11.4054 20.2 11.3985 20.2 11.3916C20.2 11.3847 20.2 11.3778 20.2 11.3709C20.2 11.364 20.2 11.3571 20.2 11.3502C20.2 11.3433 20.2 11.3364 20.2 11.3295C20.2 11.3226 20.2 11.3156 20.2 11.3087C20.2 11.3018 20.2 11.2949 20.2 11.288C20.2 11.2811 20.2 11.2742 20.2 11.2672C20.2 11.2603 20.2 11.2534 20.2 11.2465C20.2 11.2396 20.2 11.2326 20.2 11.2257C20.2 11.2188 20.2 11.2119 20.2 11.2049C20.2 11.198 20.2 11.1911 20.2 11.1841C20.2 11.1772 20.2 11.1703 20.2 11.1634C20.2 11.1564 20.2 11.1495 20.2 11.1425C20.2 11.1356 20.2 11.1287 20.2 11.1217C20.2 11.1148 20.2 11.1078 20.2 11.1009C20.2 11.094 20.2 11.087 20.2 11.0801C20.2 11.0731 20.2 11.0662 20.2 11.0592C20.2 11.0523 20.2 11.0453 20.2 11.0384C20.2 11.0314 20.2 11.0245 20.2 11.0175C20.2 11.0106 20.2 11.0036 20.2 10.9967C20.2 10.9897 20.2 10.9828 20.2 10.9758C20.2 10.9689 20.2 10.9619 20.2 10.9549C20.2 10.948 20.2 10.941 20.2 10.9341C20.2 10.9271 20.2 10.9202 20.2 10.9132C20.2 10.9062 20.2 10.8993 20.2 10.8923C20.2 10.8853 20.2 10.8784 20.2 10.8714C20.2 10.8645 20.2 10.8575 20.2 10.8505C20.2 10.8436 20.2 10.8366 20.2 10.8296C20.2 10.8227 20.2 10.8157 20.2 10.8087C20.2 10.8018 20.2 10.7948 20.2 10.7878C20.2 10.7809 20.2 10.7739 20.2 10.7669C20.2 10.76 20.2 10.753 20.2 10.746C20.2 10.739 20.2 10.7321 20.2 10.7251C20.2 10.7181 20.2 10.7112 20.2 10.7042C20.2 10.6972 20.2 10.6903 20.2 10.6833C20.2 10.6763 20.2 10.6693 20.2 10.6624C20.2 10.6554 20.2 10.6484 20.2 10.6415C20.2 10.6345 20.2 10.6275 20.2 10.6205C20.2 10.6136 20.2 10.6066 20.2 10.5996C20.2 10.5927 20.2 10.5857 20.2 10.5787C20.2 10.5717 20.2 10.5648 20.2 10.5578C20.2 10.5508 20.2 10.5439 20.2 10.5369C20.2 10.5299 20.2 10.523 20.2 10.516C20.2 10.509 20.2 10.502 20.2 10.4951C20.2 10.4881 20.2 10.4811 20.2 10.4742C20.2 10.4672 20.2 10.4602 20.2 10.4533C20.2 10.4463 20.2 10.4393 20.2 10.4324C20.2 10.4254 20.2 10.4184 20.2 10.4115C20.2 10.4045 20.2 10.3976 20.2 10.3906C20.2 10.3836 20.2 10.3767 20.2 10.3697C20.2 10.3627 20.2 10.3558 20.2 10.3488C20.2 10.3419 20.2 10.3349 20.2 10.3279C20.2 10.321 20.2 10.314 20.2 10.3071C20.2 10.3001 20.2 10.2932 20.2 10.2862C20.2 10.2792 20.2 10.2723 20.2 10.2653C20.2 10.2584 20.2 10.2514 20.2 10.2445C20.2 10.2375 20.2 10.2306 20.2 10.2236C20.2 10.2167 20.2 10.2097 20.2 10.2028C20.2 10.1958 20.2 10.1889 20.2 10.182C20.2 10.175 20.2 10.1681 20.2 10.1611C20.2 10.1542 20.2 10.1472 20.2 10.1403C20.2 10.1334 20.2 10.1264 20.2 10.1195C20.2 10.1126 20.2 10.1056 20.2 10.0987C20.2 10.0918 20.2 10.0848 20.2 10.0779C20.2 10.071 20.2 10.064 20.2 10.0571C20.2 10.0502 20.2 10.0433 20.2 10.0363C20.2 10.0294 20.2 10.0225 20.2 10.0156C20.2 10.0086 20.2 10.0017 20.2 9.99481C20.2 9.9879 20.2 9.98098 20.2 9.97407C20.2 9.96715 20.2 9.96024 20.2 9.95333C20.2 9.94642 20.2 9.93952 20.2 9.93261C20.2 9.92571 20.2 9.9188 20.2 9.9119C20.2 9.905 20.2 9.8981 20.2 9.8912C20.2 9.8843 20.2 9.87741 20.2 9.87051C20.2 9.86362 20.2 9.85673 20.2 9.84984C20.2 9.84295 20.2 9.83606 20.2 9.82918C20.2 9.82229 20.2 9.81541 20.2 9.80853C20.2 9.80165 20.2 9.79477 20.2 9.7879C20.2 9.78102 20.2 9.77415 20.2 9.76728C20.2 9.76041 20.2 9.75354 20.2 9.74667C20.2 9.73981 20.2 9.73294 20.2 9.72608C20.2 9.71922 20.2 9.71236 20.2 9.70551C20.2 9.69865 20.2 9.6918 20.2 9.68495C20.2 9.6781 20.2 9.67125 20.2 9.6644C20.2 9.65756 20.2 9.65071 20.2 9.64387C20.2 9.63703 20.2 9.6302 20.2 9.62336C20.2 9.61653 20.2 9.6097 20.2 9.60287C20.2 9.59604 20.2 9.58921 20.2 9.58239C20.2 9.57557 20.2 9.56875 20.2 9.56193C20.2 9.55511 20.2 9.5483 20.2 9.54149C20.2 9.53468 20.2 9.52787 20.2 9.52106C20.2 9.51426 20.2 9.50746 20.2 9.50066C20.2 9.49386 20.2 9.48706 20.2 9.48027C20.2 9.47348 20.2 9.46669 20.2 9.45991C20.2 9.45312 20.2 9.44634 20.2 9.43956C20.2 9.43278 20.2 9.426 20.2 9.41923C20.2 9.41246 20.2 9.40569 20.2 9.39892C20.2 9.39216 20.2 9.3854 20.2 9.37864C20.2 9.37188 20.2 9.36512 20.2 9.35837C20.2 9.35162 20.2 9.34487 20.2 9.33813C20.2 9.33138 20.2 9.32464 20.2 9.3179C20.2 9.31117 20.2 9.30443 20.2 9.2977C20.2 9.29097 20.2 9.28425 20.2 9.27753C20.2 9.2708 20.2 9.26408 20.2 9.25737C20.2 9.25066 20.2 9.24394 20.2 9.23724C20.2 9.23053 20.2 9.22383 20.2 9.21713C20.2 9.21043 20.2 9.20373 20.2 9.19704C20.2 9.19035 20.2 9.18367 20.2 9.17698C20.2 9.1703 20.2 9.16362 20.2 9.15695C20.2 9.15027 20.2 9.1436 20.2 9.13693C20.2 9.13027 20.2 9.12361 20.2 9.11695C20.2 9.11029 20.2 9.10364 20.2 9.09699C20.2 9.09034 20.2 9.08369 20.2 9.07705C20.2 9.07041 20.2 9.06377 20.2 9.05714C20.2 9.05051 20.2 9.04388 20.2 9.03726C20.2 9.03064 20.2 9.02402 20.2 9.0174C20.2 9.01079 20.2 9.00418 20.2 8.99758C20.2 8.99097 20.2 8.98437 20.2 8.97777C20.2 8.97118 20.2 8.96459 20.2 8.958C20.2 8.95142 20.2 8.94483 20.2 8.93826C20.2 8.93168 20.2 8.92511 20.2 8.91854C20.2 8.91197 20.2 8.90541 20.2 8.89885C20.2 8.8923 20.2 8.88574 20.2 8.8792C20.2 8.87265 20.2 8.86611 20.2 8.85957C20.2 8.85303 20.2 8.8465 20.2 8.83997C20.2 8.83344 20.2 8.82692 20.2 8.8204C20.2 8.81388 20.2 8.80737 20.2 8.80086C20.2 8.79436 20.2 8.78785 20.2 8.78136C20.2 8.77486 20.2 8.76837 20.2 8.76188C20.2 8.7554 20.2 8.74892 20.2 8.74244C20.2 8.73596 20.2 8.72949 20.2 8.72303C20.2 8.71656 20.2 8.7101 20.2 8.70365C20.2 8.6972 20.2 8.69075 20.2 8.6843C20.2 8.67786 20.2 8.67142 20.2 8.66499C20.2 8.65856 20.2 8.65213 20.2 8.64571C20.2 8.63929 20.2 8.63288 20.2 8.62647C20.2 8.62006 20.2 8.61365 20.2 8.60726C20.2 8.60086 20.2 8.59447 20.2 8.58808C20.2 8.58169 20.2 8.57531 20.2 8.56894C20.2 8.56256 20.2 8.55619 20.2 8.54983C20.2 8.54347 20.2 8.53711 20.2 8.53076C20.2 8.52441 20.2 8.51806 20.2 8.51172C20.2 8.50538 20.2 8.49905 20.2 8.49272C20.2 8.4864 20.2 8.48008 20.2 8.47376C20.2 8.46745 20.2 8.46114 20.2 8.45484C20.2 8.44853 20.2 8.44224 20.2 8.43595C20.2 8.42966 20.2 8.42337 20.2 8.4171C20.2 8.41082 20.2 8.40455 20.2 8.39828C20.2 8.39202 20.2 8.38576 20.2 8.37951C20.2 8.37326 20.2 8.36701 20.2 8.36077C20.2 8.35453 20.2 8.3483 20.2 8.34208C20.2 8.33585 20.2 8.32963 20.2 8.32342C20.2 8.31721 20.2 8.311 20.2 8.3048C20.2 8.2986 20.2 8.29241 20.2 8.28622C20.2 8.28004 20.2 8.27386 20.2 8.26769C20.2 8.26151 20.2 8.25535 20.2 8.24919C20.2 8.24303 20.2 8.23688 20.2 8.23073C20.2 8.22459 20.2 8.21845 20.2 8.21232C20.2 8.20619 20.2 8.20006 20.2 8.19395C20.2 8.18783 20.2 8.18172 20.2 8.17562C20.2 8.16951 20.2 8.16342 20.2 8.15733C20.2 8.15124 20.2 8.14516 20.2 8.13908C20.2 8.13301 20.2 8.12694 20.2 8.12088C20.2 8.11482 20.2 8.10877 20.2 8.10272C20.2 8.09668 20.2 8.09064 20.2 8.08461C20.2 8.07858 20.2 8.07255 20.2 8.06654C20.2 8.06052 20.2 8.05451 20.2 8.04851C20.2 8.04251 20.2 8.03651 20.2 8.03053C20.2 8.02454 20.2 8.01856 20.2 8.01259C20.2 8.00662 20.2 8.00066 20.2 7.9947C20.2 7.98875 20.2 7.9828 20.2 7.97686C20.2 7.97092 20.2 7.96498 20.2 7.95906C20.2 7.95313 20.2 7.94722 20.2 7.94131C20.2 7.9354 20.2 7.9295 20.2 7.9236C20.2 7.91771 20.2 7.91182 20.2 7.90595C20.2 7.90007 20.2 7.8942 20.2 7.88834C20.2 7.88247 20.2 7.87662 20.2 7.87077C20.2 7.86493 20.2 7.85909 20.2 7.85326C20.2 7.84743 20.2 7.84161 20.2 7.8358C20.2 7.82998 20.2 7.82418 20.2 7.81838C20.2 7.81258 20.2 7.80679 20.2 7.80101C20.2 7.79523 20.2 7.78946 20.2 7.7837C20.2 7.77793 20.2 7.77218 20.2 7.76643C20.2 7.76068 20.2 7.75494 20.2 7.74921C20.2 7.74348 20.2 7.73776 20.2 7.73205C20.2 7.72634 20.2 7.72063 20.2 7.71493C20.2 7.70924 20.2 7.70355 20.2 7.69787C20.2 7.69219 20.2 7.68652 20.2 7.68086C20.2 7.6752 20.2 7.66955 20.2 7.6639C20.2 7.65826 20.2 7.65262 20.2 7.64699C20.2 7.64137 20.2 7.63575 20.2 7.63014C20.2 7.62453 20.2 7.61893 20.2 7.61334C20.2 7.60775 20.2 7.60217 20.2 7.59659C20.2 7.59102 20.2 7.58546 20.2 7.5799C20.2 7.57435 20.2 7.5688 20.2 7.56326C20.2 7.55772 20.2 7.5522 20.2 7.54668C20.2 7.54116 20.2 7.53565 20.2 7.53015C20.2 7.52465 20.2 7.51916 20.2 7.51367C20.2 7.50819 20.2 7.50272 20.2 7.49726C20.2 7.49179 20.2 7.48634 20.2 7.48089C20.2 7.47545 20.2 7.47001 20.2 7.46459C20.2 7.45916 20.2 7.45374 20.2 7.44834C20.2 7.44293 20.2 7.43753 20.2 7.43214C20.2 7.42676 20.2 7.42138 20.2 7.41601C20.2 7.41064 20.2 7.40528 20.2 7.39993C20.2 7.39458 20.2 7.38924 20.2 7.38391C20.2 7.37858 20.2 7.37326 20.2 7.36795C20.2 7.36264 20.2 7.35734 20.2 7.35205C20.2 7.34676 20.2 7.34147 20.2 7.3362C20.2 7.33093 20.2 7.32567 20.2 7.32042C20.2 7.31517 20.2 7.30993 20.2 7.30469C20.2 7.29946 20.2 7.29424 20.2 7.28903C20.2 7.28382 20.2 7.27862 20.2 7.27343C20.2 7.26824 20.2 7.26305 20.2 7.25788C20.2 7.25271 20.2 7.24755 20.2 7.2424C20.2 7.23725 20.2 7.23211 20.2 7.22698C20.2 7.22185 20.2 7.21673 20.2 7.21162C20.2 7.20651 20.2 7.20141 20.2 7.19633C20.2 7.19124 20.2 7.18616 20.2 7.18109C20.2 7.17602 20.2 7.17097 20.2 7.16592C20.2 7.16087 20.2 7.15584 20.2 7.15081C20.2 7.14579 20.2 7.14077 20.2 7.13577C20.2 7.13076 20.2 7.12577 20.2 7.12079C20.2 7.11581 20.2 7.11083 20.2 7.10587C20.2 7.10091 20.2 7.09596 20.2 7.09102C20.2 7.08608 20.2 7.08115 20.2 7.07623C20.2 7.07132 20.2 7.06641 20.2 7.06151C20.2 7.05662 20.2 7.05173 20.2 7.04686C20.2 7.04198 20.2 7.03712 20.2 7.03227C20.2 7.02741 20.2 7.02257 20.2 7.01774C20.2 7.01291 20.2 7.00809 20.2 7.00329C20.2 6.99848 20.2 6.99368 20.2 6.9889C20.2 6.98411 20.2 6.97934 20.2 6.97457C20.2 6.96981 20.2 6.96506 20.2 6.96032C20.2 6.95558 20.2 6.95085 20.2 6.94613C20.2 6.94142 20.2 6.93671 20.2 6.93202C20.2 6.92732 20.2 6.92264 20.2 6.91797C20.2 6.91329 20.2 6.90863 20.2 6.90399C20.2 6.89934 20.2 6.8947 20.2 6.89007C20.2 6.88545 20.2 6.88084 20.2 6.87623C20.2 6.87163 20.2 6.86704 20.2 6.86246C20.2 6.85788 20.2 6.85332 20.2 6.84876C20.2 6.84421 20.2 6.83966 20.2 6.83513C20.2 6.8306 20.2 6.82608 20.2 6.82157C20.2 6.81707 20.2 6.81257 20.2 6.80809C20.2 6.8036 20.2 6.79913 20.2 6.79467C20.2 6.79021 20.2 6.78576 20.2 6.78133C20.2 6.77689 20.2 6.77247 20.2 6.76806C20.2 6.76365 20.2 6.75925 20.2 6.75486C20.2 6.75047 20.2 6.7461 20.2 6.74174C20.2 6.73737 20.2 6.73302 20.2 6.72868C20.2 6.72435 20.2 6.72002 20.2 6.71571C20.2 6.71139 20.2 6.70709 20.2 6.70281C20.2 6.69852 20.2 6.69424 20.2 6.68998C20.2 6.68571 20.2 6.68146 20.2 6.67722C20.2 6.67299 20.2 6.66876 20.2 6.66455C20.2 6.66033 20.2 6.65613 20.2 6.65195C20.2 6.64776 20.2 6.64358 20.2 6.63942C20.2 6.63526 20.2 6.63111 20.2 6.62697C20.2 6.62283 20.2 6.61871 20.2 6.6146C20.2 6.61049 20.2 6.60639 20.2 6.6023C20.2 6.59822 20.2 6.59414 20.2 6.59008C20.2 6.58602 20.2 6.58198 20.2 6.57794C20.2 6.57391 20.2 6.56989 20.2 6.56588C20.2 6.56187 20.2 6.55788 20.2 6.5539C20.2 6.54991 20.2 6.54595 20.2 6.54199C20.2 6.53803 20.2 6.53409 20.2 6.53016C20.2 6.52623 20.2 6.52232 20.2 6.51842C20.2 6.51451 20.2 6.51063 20.2 6.50675C20.2 6.50287 20.2 6.49901 20.2 6.49516C20.2 6.49131 20.2 6.48748 20.2 6.48366C20.2 6.47984 20.2 6.47603 20.2 6.47223C20.2 6.46844 20.2 6.46466 20.2 6.46089C20.2 6.45712 20.2 6.45337 20.2 6.44962C20.2 6.44588 20.2 6.44216 20.2 6.43844C20.2 6.43473 20.2 6.43103 20.2 6.42735C20.2 6.42366 20.2 6.41999 20.2 6.41633C20.2 6.41267 20.2 6.40903 20.2 6.4054C20.2 6.40177 20.2 6.39815 20.2 6.39455C20.2 6.39094 20.2 6.38736 20.2 6.38378C20.2 6.38021 20.2 6.37665 20.2 6.3731C20.2 6.36955 20.2 6.36602 20.2 6.3625C20.2 6.35898 20.2 6.35548 20.2 6.35199C20.2 6.3485 20.2 6.34502 20.2 6.34156C20.2 6.3381 20.2 6.33465 20.2 6.33122C20.2 6.32778 20.2 6.32436 20.2 6.32096C20.2 6.31755 20.2 6.31416 20.2 6.31079C20.2 6.30741 20.2 6.30405 20.2 6.3007C20.2 6.29736 20.2 6.29402 20.2 6.29071C20.2 6.28739 20.2 6.28408 20.2 6.2808C20.2 6.27751 20.2 6.27423 20.2 6.27097C20.2 6.26771 20.2 6.26447 20.2 6.26124C20.2 6.25801 20.2 6.25479 20.2 6.25159C20.2 6.24839 20.2 6.2452 20.2 6.24203C20.2 6.23886 20.2 6.2357 20.2 6.23256C20.2 6.22942 20.2 6.22629 20.2 6.22318C20.2 6.22007 20.2 6.21697 20.2 6.21389C20.2 6.2108 20.2 6.20774 20.2 6.20468C20.2 6.20163 20.2 6.1986 20.2 6.19557C20.2 6.19255 20.2 6.18954 20.2 6.18655C20.2 6.18356 20.2 6.18058 20.2 6.17762C20.2 6.17466 20.2 6.17171 20.2 6.16878C20.2 6.16585 20.2 6.16294 20.2 6.16004C20.2 6.15714 20.2 6.15425 20.2 6.15138C20.2 6.14851 20.2 6.14566 20.2 6.14282C20.2 6.13998 20.2 6.13716 20.2 6.13435C20.2 6.13154 20.2 6.12875 20.2 6.12597C20.2 6.12319 20.2 6.12043 20.2 6.11769C20.2 6.11494 20.2 6.11221 20.2 6.1095C20.2 6.10678 20.2 6.10408 20.2 6.1014C20.2 6.09872 20.2 6.09605 20.2 6.0934C20.2 6.09074 20.2 6.08811 20.2 6.08549C20.2 6.08287 20.2 6.08026 20.2 6.07768C20.2 6.07509 20.2 6.07252 20.2 6.06996C20.2 6.0674 20.2 6.06486 20.2 6.06234C20.2 6.05981 20.2 6.05731 20.2 6.05481C20.2 6.05232 20.2 6.04984 20.2 6.04738C20.2 6.04492 20.2 6.04248 20.2 6.04005C20.2 6.03762 20.2 6.03521 20.2 6.03282C20.2 6.03042 20.2 6.02804 20.2 6.02568C20.2 6.02332 20.2 6.02097 20.2 6.01864C20.2 6.01631 20.2 6.014 20.2 6.0117C20.2 6.0094 20.2 6.00712 20.2 6.00486C20.2 6.00259 20.2 6.00034 20.2 5.99811C20.2 5.99588 20.2 5.99367 20.2 5.99147C20.2 5.98927 20.2 5.98709 20.2 5.98492C20.2 5.98276 20.2 5.98061 20.2 5.97848C20.2 5.97634 20.2 5.97423 20.2 5.97213C20.2 5.97003 20.2 5.96795 20.2 5.96589C20.2 5.96382 20.2 5.96177 20.2 5.95974C20.2 5.95771 20.2 5.9557 20.2 5.9537C20.2 5.9517 20.2 5.94972 20.2 5.94776C20.2 5.9458 20.2 5.94385 20.2 5.94192C20.2 5.93999 20.2 5.93808 20.2 5.93618C20.2 5.93429 20.2 5.93241 20.2 5.93055C20.2 5.92869 20.2 5.92684 20.2 5.92502C20.2 5.92319 20.2 5.92138 20.2 5.91959C20.2 5.9178 20.2 5.91602 20.2 5.91427C20.2 5.91251 20.2 5.91077 20.2 5.90905C20.2 5.90732 20.2 5.90562 20.2 5.90393C20.2 5.90224 20.2 5.90057 20.2 5.89892C20.2 5.89727 20.2 5.89563 20.2 5.89402C20.2 5.8924 20.2 5.8908 20.2 5.88921C20.2 5.88763 20.2 5.88607 20.2 5.88452C20.2 5.88297 20.2 5.88144 20.2 5.87993C20.2 5.87842 20.2 5.87693 20.2 5.87545C20.2 5.87397 20.2 5.87252 20.2 5.87108C20.2 5.86963 20.2 5.86821 20.2 5.86681C20.2 5.8654 20.2 5.86402 20.2 5.86265C20.2 5.86128 20.2 5.85993 20.2 5.85859C20.2 5.85726 20.2 5.85595 20.2 5.85465C20.2 5.85335 20.2 5.85207 20.2 5.85081C20.2 5.84955 20.2 5.84831 20.2 5.84709C20.2 5.84586 20.2 5.84466 20.2 5.84347C20.2 5.84228 20.2 5.84111 20.2 5.83996C20.2 5.83881 20.2 5.83768 20.2 5.83656C20.2 5.83545 20.2 5.83435 20.2 5.83327C20.2 5.8322 20.2 5.83114 20.2 5.8301C20.2 5.82906 20.2 5.82803 20.2 5.82703C20.2 5.82603 20.2 5.82504 20.2 5.82408C20.2 5.82311 20.2 5.82216 20.2 5.82123C20.2 5.8203 20.2 5.81939 20.2 5.8185C20.2 5.81761 20.2 5.81674 20.2 5.81588C20.2 5.81503 20.2 5.81419 20.2 5.81337C20.2 5.81256 20.2 5.81176 20.2 5.81098C20.2 5.8102 20.2 5.80944 20.2 5.8087C20.2 5.80796 20.2 5.80724 20.2 5.80653C20.2 5.80583 20.2 5.80515 20.2 5.80448C20.2 5.80382 20.2 5.80317 20.2 5.80254C20.2 5.80192 20.2 5.80131 20.2 5.80072C20.2 5.80013 20.2 5.79956 20.2 5.79901C20.2 5.79846 20.2 5.79793 20.2 5.79742C20.2 5.79691 20.2 5.79642 20.2 5.79594C20.2 5.79547 20.2 5.79502 20.2 5.79458C20.2 5.79415 20.2 5.79374 20.2 5.79334C20.2 5.79294 20.2 5.79257 20.2 5.79221C20.2 5.79186 20.2 5.79152 20.2 5.7912C20.2 5.79089 20.2 5.79059 20.2 5.79031C20.2 5.79003 20.2 5.78977 20.2 5.78954C20.2 5.7893 20.2 5.78908 20.2 5.78888C20.2 5.78868 20.2 5.7885 20.2 5.78834C20.2 5.78818 20.2 5.78804 20.2 5.78792C20.2 5.7878 20.2 5.7877 20.2 5.78762C20.2 5.78754 20.2 5.78748 20.2 5.78744C20.2 5.7874 20.2 5.78738 19.2 5.78738C18.2 5.78738 18.2 5.7874 18.2 5.78744C18.2 5.78748 18.2 5.78754 18.2 5.78762C18.2 5.7877 18.2 5.7878 18.2 5.78792C18.2 5.78804 18.2 5.78818 18.2 5.78834C18.2 5.7885 18.2 5.78868 18.2 5.78888C18.2 5.78908 18.2 5.7893 18.2 5.78954C18.2 5.78977 18.2 5.79003 18.2 5.79031C18.2 5.79059 18.2 5.79089 18.2 5.7912C18.2 5.79152 18.2 5.79186 18.2 5.79221C18.2 5.79257 18.2 5.79294 18.2 5.79334C18.2 5.79374 18.2 5.79415 18.2 5.79458C18.2 5.79502 18.2 5.79547 18.2 5.79594C18.2 5.79642 18.2 5.79691 18.2 5.79742C18.2 5.79793 18.2 5.79846 18.2 5.79901C18.2 5.79956 18.2 5.80013 18.2 5.80072C18.2 5.80131 18.2 5.80192 18.2 5.80254C18.2 5.80317 18.2 5.80382 18.2 5.80448C18.2 5.80515 18.2 5.80583 18.2 5.80653C18.2 5.80724 18.2 5.80796 18.2 5.8087C18.2 5.80944 18.2 5.8102 18.2 5.81098C18.2 5.81176 18.2 5.81256 18.2 5.81337C18.2 5.81419 18.2 5.81503 18.2 5.81588C18.2 5.81674 18.2 5.81761 18.2 5.8185C18.2 5.81939 18.2 5.8203 18.2 5.82123C18.2 5.82216 18.2 5.82311 18.2 5.82408C18.2 5.82504 18.2 5.82603 18.2 5.82703C18.2 5.82803 18.2 5.82906 18.2 5.8301C18.2 5.83114 18.2 5.8322 18.2 5.83327C18.2 5.83435 18.2 5.83545 18.2 5.83656C18.2 5.83768 18.2 5.83881 18.2 5.83996C18.2 5.84111 18.2 5.84228 18.2 5.84347C18.2 5.84466 18.2 5.84586 18.2 5.84709C18.2 5.84831 18.2 5.84955 18.2 5.85081C18.2 5.85207 18.2 5.85335 18.2 5.85465C18.2 5.85595 18.2 5.85726 18.2 5.85859C18.2 5.85993 18.2 5.86128 18.2 5.86265C18.2 5.86402 18.2 5.8654 18.2 5.86681C18.2 5.86821 18.2 5.86963 18.2 5.87108C18.2 5.87252 18.2 5.87397 18.2 5.87545C18.2 5.87693 18.2 5.87842 18.2 5.87993C18.2 5.88144 18.2 5.88297 18.2 5.88452C18.2 5.88607 18.2 5.88763 18.2 5.88921C18.2 5.8908 18.2 5.8924 18.2 5.89402C18.2 5.89563 18.2 5.89727 18.2 5.89892C18.2 5.90057 18.2 5.90224 18.2 5.90393C18.2 5.90562 18.2 5.90732 18.2 5.90905C18.2 5.91077 18.2 5.91251 18.2 5.91427C18.2 5.91602 18.2 5.9178 18.2 5.91959C18.2 5.92138 18.2 5.92319 18.2 5.92502C18.2 5.92684 18.2 5.92869 18.2 5.93055C18.2 5.93241 18.2 5.93429 18.2 5.93618C18.2 5.93808 18.2 5.93999 18.2 5.94192C18.2 5.94385 18.2 5.9458 18.2 5.94776C18.2 5.94972 18.2 5.9517 18.2 5.9537C18.2 5.9557 18.2 5.95771 18.2 5.95974C18.2 5.96177 18.2 5.96382 18.2 5.96589C18.2 5.96795 18.2 5.97003 18.2 5.97213C18.2 5.97423 18.2 5.97634 18.2 5.97848C18.2 5.98061 18.2 5.98276 18.2 5.98492C18.2 5.98709 18.2 5.98927 18.2 5.99147C18.2 5.99367 18.2 5.99588 18.2 5.99811C18.2 6.00034 18.2 6.00259 18.2 6.00486C18.2 6.00712 18.2 6.0094 18.2 6.0117C18.2 6.014 18.2 6.01631 18.2 6.01864C18.2 6.02097 18.2 6.02332 18.2 6.02568C18.2 6.02804 18.2 6.03042 18.2 6.03282C18.2 6.03521 18.2 6.03762 18.2 6.04005C18.2 6.04248 18.2 6.04492 18.2 6.04738C18.2 6.04984 18.2 6.05232 18.2 6.05481C18.2 6.05731 18.2 6.05981 18.2 6.06234C18.2 6.06486 18.2 6.0674 18.2 6.06996C18.2 6.07252 18.2 6.07509 18.2 6.07768C18.2 6.08026 18.2 6.08287 18.2 6.08549C18.2 6.08811 18.2 6.09074 18.2 6.0934C18.2 6.09605 18.2 6.09872 18.2 6.1014C18.2 6.10408 18.2 6.10678 18.2 6.1095C18.2 6.11221 18.2 6.11494 18.2 6.11769C18.2 6.12043 18.2 6.12319 18.2 6.12597C18.2 6.12875 18.2 6.13154 18.2 6.13435C18.2 6.13716 18.2 6.13998 18.2 6.14282C18.2 6.14566 18.2 6.14851 18.2 6.15138C18.2 6.15425 18.2 6.15714 18.2 6.16004C18.2 6.16294 18.2 6.16585 18.2 6.16878C18.2 6.17171 18.2 6.17466 18.2 6.17762C18.2 6.18058 18.2 6.18356 18.2 6.18655C18.2 6.18954 18.2 6.19255 18.2 6.19557C18.2 6.1986 18.2 6.20163 18.2 6.20468C18.2 6.20774 18.2 6.2108 18.2 6.21389C18.2 6.21697 18.2 6.22007 18.2 6.22318C18.2 6.22629 18.2 6.22942 18.2 6.23256C18.2 6.2357 18.2 6.23886 18.2 6.24203C18.2 6.2452 18.2 6.24839 18.2 6.25159C18.2 6.25479 18.2 6.25801 18.2 6.26124C18.2 6.26447 18.2 6.26771 18.2 6.27097C18.2 6.27423 18.2 6.27751 18.2 6.2808C18.2 6.28408 18.2 6.28739 18.2 6.29071C18.2 6.29402 18.2 6.29736 18.2 6.3007C18.2 6.30405 18.2 6.30741 18.2 6.31079C18.2 6.31416 18.2 6.31755 18.2 6.32096C18.2 6.32436 18.2 6.32778 18.2 6.33122C18.2 6.33465 18.2 6.3381 18.2 6.34156C18.2 6.34502 18.2 6.3485 18.2 6.35199C18.2 6.35548 18.2 6.35898 18.2 6.3625C18.2 6.36602 18.2 6.36955 18.2 6.3731C18.2 6.37665 18.2 6.38021 18.2 6.38378C18.2 6.38736 18.2 6.39094 18.2 6.39455C18.2 6.39815 18.2 6.40177 18.2 6.4054C18.2 6.40903 18.2 6.41267 18.2 6.41633C18.2 6.41999 18.2 6.42366 18.2 6.42735C18.2 6.43103 18.2 6.43473 18.2 6.43844C18.2 6.44216 18.2 6.44588 18.2 6.44962C18.2 6.45337 18.2 6.45712 18.2 6.46089C18.2 6.46466 18.2 6.46844 18.2 6.47223C18.2 6.47603 18.2 6.47984 18.2 6.48366C18.2 6.48748 18.2 6.49131 18.2 6.49516C18.2 6.49901 18.2 6.50287 18.2 6.50675C18.2 6.51063 18.2 6.51451 18.2 6.51842C18.2 6.52232 18.2 6.52623 18.2 6.53016C18.2 6.53409 18.2 6.53803 18.2 6.54199C18.2 6.54595 18.2 6.54991 18.2 6.5539C18.2 6.55788 18.2 6.56187 18.2 6.56588C18.2 6.56989 18.2 6.57391 18.2 6.57794C18.2 6.58198 18.2 6.58602 18.2 6.59008C18.2 6.59414 18.2 6.59822 18.2 6.6023C18.2 6.60639 18.2 6.61049 18.2 6.6146C18.2 6.61871 18.2 6.62283 18.2 6.62697C18.2 6.63111 18.2 6.63526 18.2 6.63942C18.2 6.64358 18.2 6.64776 18.2 6.65195C18.2 6.65613 18.2 6.66033 18.2 6.66455C18.2 6.66876 18.2 6.67299 18.2 6.67722C18.2 6.68146 18.2 6.68571 18.2 6.68998C18.2 6.69424 18.2 6.69852 18.2 6.70281C18.2 6.70709 18.2 6.71139 18.2 6.71571C18.2 6.72002 18.2 6.72435 18.2 6.72868C18.2 6.73302 18.2 6.73737 18.2 6.74174C18.2 6.7461 18.2 6.75047 18.2 6.75486C18.2 6.75925 18.2 6.76365 18.2 6.76806C18.2 6.77247 18.2 6.77689 18.2 6.78133C18.2 6.78576 18.2 6.79021 18.2 6.79467C18.2 6.79913 18.2 6.8036 18.2 6.80809C18.2 6.81257 18.2 6.81707 18.2 6.82157C18.2 6.82608 18.2 6.8306 18.2 6.83513C18.2 6.83966 18.2 6.84421 18.2 6.84876C18.2 6.85332 18.2 6.85788 18.2 6.86246C18.2 6.86704 18.2 6.87163 18.2 6.87623C18.2 6.88084 18.2 6.88545 18.2 6.89007C18.2 6.8947 18.2 6.89934 18.2 6.90399C18.2 6.90863 18.2 6.91329 18.2 6.91797C18.2 6.92264 18.2 6.92732 18.2 6.93202C18.2 6.93671 18.2 6.94142 18.2 6.94613C18.2 6.95085 18.2 6.95558 18.2 6.96032C18.2 6.96506 18.2 6.96981 18.2 6.97457C18.2 6.97934 18.2 6.98411 18.2 6.9889C18.2 6.99368 18.2 6.99848 18.2 7.00329C18.2 7.00809 18.2 7.01291 18.2 7.01774C18.2 7.02257 18.2 7.02741 18.2 7.03227C18.2 7.03712 18.2 7.04198 18.2 7.04686C18.2 7.05173 18.2 7.05662 18.2 7.06151C18.2 7.06641 18.2 7.07132 18.2 7.07623C18.2 7.08115 18.2 7.08608 18.2 7.09102C18.2 7.09596 18.2 7.10091 18.2 7.10587C18.2 7.11083 18.2 7.11581 18.2 7.12079C18.2 7.12577 18.2 7.13076 18.2 7.13577C18.2 7.14077 18.2 7.14579 18.2 7.15081C18.2 7.15584 18.2 7.16087 18.2 7.16592C18.2 7.17097 18.2 7.17602 18.2 7.18109C18.2 7.18616 18.2 7.19124 18.2 7.19633C18.2 7.20141 18.2 7.20651 18.2 7.21162C18.2 7.21673 18.2 7.22185 18.2 7.22698C18.2 7.23211 18.2 7.23725 18.2 7.2424C18.2 7.24755 18.2 7.25271 18.2 7.25788C18.2 7.26305 18.2 7.26824 18.2 7.27343C18.2 7.27862 18.2 7.28382 18.2 7.28903C18.2 7.29424 18.2 7.29946 18.2 7.30469C18.2 7.30993 18.2 7.31517 18.2 7.32042C18.2 7.32567 18.2 7.33093 18.2 7.3362C18.2 7.34147 18.2 7.34676 18.2 7.35205C18.2 7.35734 18.2 7.36264 18.2 7.36795C18.2 7.37326 18.2 7.37858 18.2 7.38391C18.2 7.38924 18.2 7.39458 18.2 7.39993C18.2 7.40528 18.2 7.41064 18.2 7.41601C18.2 7.42138 18.2 7.42676 18.2 7.43214C18.2 7.43753 18.2 7.44293 18.2 7.44834C18.2 7.45374 18.2 7.45916 18.2 7.46459C18.2 7.47001 18.2 7.47545 18.2 7.48089C18.2 7.48634 18.2 7.49179 18.2 7.49726C18.2 7.50272 18.2 7.50819 18.2 7.51367C18.2 7.51916 18.2 7.52465 18.2 7.53015C18.2 7.53565 18.2 7.54116 18.2 7.54668C18.2 7.5522 18.2 7.55772 18.2 7.56326C18.2 7.5688 18.2 7.57435 18.2 7.5799C18.2 7.58546 18.2 7.59102 18.2 7.59659C18.2 7.60217 18.2 7.60775 18.2 7.61334C18.2 7.61893 18.2 7.62453 18.2 7.63014C18.2 7.63575 18.2 7.64137 18.2 7.64699C18.2 7.65262 18.2 7.65826 18.2 7.6639C18.2 7.66955 18.2 7.6752 18.2 7.68086C18.2 7.68652 18.2 7.69219 18.2 7.69787C18.2 7.70355 18.2 7.70924 18.2 7.71493C18.2 7.72063 18.2 7.72634 18.2 7.73205C18.2 7.73776 18.2 7.74348 18.2 7.74921C18.2 7.75494 18.2 7.76068 18.2 7.76643C18.2 7.77218 18.2 7.77793 18.2 7.7837C18.2 7.78946 18.2 7.79523 18.2 7.80101C18.2 7.80679 18.2 7.81258 18.2 7.81838C18.2 7.82418 18.2 7.82998 18.2 7.8358C18.2 7.84161 18.2 7.84743 18.2 7.85326C18.2 7.85909 18.2 7.86493 18.2 7.87077C18.2 7.87662 18.2 7.88247 18.2 7.88834C18.2 7.8942 18.2 7.90007 18.2 7.90595C18.2 7.91182 18.2 7.91771 18.2 7.9236C18.2 7.9295 18.2 7.9354 18.2 7.94131C18.2 7.94722 18.2 7.95313 18.2 7.95906C18.2 7.96498 18.2 7.97092 18.2 7.97686C18.2 7.9828 18.2 7.98875 18.2 7.9947C18.2 8.00066 18.2 8.00662 18.2 8.01259C18.2 8.01856 18.2 8.02454 18.2 8.03053C18.2 8.03651 18.2 8.04251 18.2 8.04851C18.2 8.05451 18.2 8.06052 18.2 8.06654C18.2 8.07255 18.2 8.07858 18.2 8.08461C18.2 8.09064 18.2 8.09668 18.2 8.10272C18.2 8.10877 18.2 8.11482 18.2 8.12088C18.2 8.12694 18.2 8.13301 18.2 8.13908C18.2 8.14516 18.2 8.15124 18.2 8.15733C18.2 8.16342 18.2 8.16951 18.2 8.17562C18.2 8.18172 18.2 8.18783 18.2 8.19395C18.2 8.20006 18.2 8.20619 18.2 8.21232C18.2 8.21845 18.2 8.22459 18.2 8.23073C18.2 8.23688 18.2 8.24303 18.2 8.24919C18.2 8.25535 18.2 8.26151 18.2 8.26769C18.2 8.27386 18.2 8.28004 18.2 8.28622C18.2 8.29241 18.2 8.2986 18.2 8.3048C18.2 8.311 18.2 8.31721 18.2 8.32342C18.2 8.32963 18.2 8.33585 18.2 8.34208C18.2 8.3483 18.2 8.35453 18.2 8.36077C18.2 8.36701 18.2 8.37326 18.2 8.37951C18.2 8.38576 18.2 8.39202 18.2 8.39828C18.2 8.40455 18.2 8.41082 18.2 8.4171C18.2 8.42337 18.2 8.42966 18.2 8.43595C18.2 8.44224 18.2 8.44853 18.2 8.45484C18.2 8.46114 18.2 8.46745 18.2 8.47376C18.2 8.48008 18.2 8.4864 18.2 8.49272C18.2 8.49905 18.2 8.50538 18.2 8.51172C18.2 8.51806 18.2 8.52441 18.2 8.53076C18.2 8.53711 18.2 8.54347 18.2 8.54983C18.2 8.55619 18.2 8.56256 18.2 8.56894C18.2 8.57531 18.2 8.58169 18.2 8.58808C18.2 8.59447 18.2 8.60086 18.2 8.60726C18.2 8.61365 18.2 8.62006 18.2 8.62647C18.2 8.63288 18.2 8.63929 18.2 8.64571C18.2 8.65213 18.2 8.65856 18.2 8.66499C18.2 8.67142 18.2 8.67786 18.2 8.6843C18.2 8.69075 18.2 8.6972 18.2 8.70365C18.2 8.7101 18.2 8.71656 18.2 8.72303C18.2 8.72949 18.2 8.73596 18.2 8.74244C18.2 8.74892 18.2 8.7554 18.2 8.76188C18.2 8.76837 18.2 8.77486 18.2 8.78136C18.2 8.78785 18.2 8.79436 18.2 8.80086C18.2 8.80737 18.2 8.81388 18.2 8.8204C18.2 8.82692 18.2 8.83344 18.2 8.83997C18.2 8.8465 18.2 8.85303 18.2 8.85957C18.2 8.86611 18.2 8.87265 18.2 8.8792C18.2 8.88574 18.2 8.8923 18.2 8.89885C18.2 8.90541 18.2 8.91197 18.2 8.91854C18.2 8.92511 18.2 8.93168 18.2 8.93826C18.2 8.94483 18.2 8.95142 18.2 8.958C18.2 8.96459 18.2 8.97118 18.2 8.97777C18.2 8.98437 18.2 8.99097 18.2 8.99758C18.2 9.00418 18.2 9.01079 18.2 9.0174C18.2 9.02402 18.2 9.03064 18.2 9.03726C18.2 9.04388 18.2 9.05051 18.2 9.05714C18.2 9.06377 18.2 9.07041 18.2 9.07705C18.2 9.08369 18.2 9.09034 18.2 9.09699C18.2 9.10364 18.2 9.11029 18.2 9.11695C18.2 9.12361 18.2 9.13027 18.2 9.13693C18.2 9.1436 18.2 9.15027 18.2 9.15695C18.2 9.16362 18.2 9.1703 18.2 9.17698C18.2 9.18367 18.2 9.19035 18.2 9.19704C18.2 9.20373 18.2 9.21043 18.2 9.21713C18.2 9.22383 18.2 9.23053 18.2 9.23724C18.2 9.24394 18.2 9.25066 18.2 9.25737C18.2 9.26408 18.2 9.2708 18.2 9.27753C18.2 9.28425 18.2 9.29097 18.2 9.2977C18.2 9.30443 18.2 9.31117 18.2 9.3179C18.2 9.32464 18.2 9.33138 18.2 9.33813C18.2 9.34487 18.2 9.35162 18.2 9.35837C18.2 9.36512 18.2 9.37188 18.2 9.37864C18.2 9.3854 18.2 9.39216 18.2 9.39892C18.2 9.40569 18.2 9.41246 18.2 9.41923C18.2 9.426 18.2 9.43278 18.2 9.43956C18.2 9.44634 18.2 9.45312 18.2 9.45991C18.2 9.46669 18.2 9.47348 18.2 9.48027C18.2 9.48706 18.2 9.49386 18.2 9.50066C18.2 9.50746 18.2 9.51426 18.2 9.52106C18.2 9.52787 18.2 9.53468 18.2 9.54149C18.2 9.5483 18.2 9.55511 18.2 9.56193C18.2 9.56875 18.2 9.57557 18.2 9.58239C18.2 9.58921 18.2 9.59604 18.2 9.60287C18.2 9.6097 18.2 9.61653 18.2 9.62336C18.2 9.6302 18.2 9.63703 18.2 9.64387C18.2 9.65071 18.2 9.65756 18.2 9.6644C18.2 9.67125 18.2 9.6781 18.2 9.68495C18.2 9.6918 18.2 9.69865 18.2 9.70551C18.2 9.71236 18.2 9.71922 18.2 9.72608C18.2 9.73294 18.2 9.73981 18.2 9.74667C18.2 9.75354 18.2 9.76041 18.2 9.76728C18.2 9.77415 18.2 9.78102 18.2 9.7879C18.2 9.79477 18.2 9.80165 18.2 9.80853C18.2 9.81541 18.2 9.82229 18.2 9.82918C18.2 9.83606 18.2 9.84295 18.2 9.84984C18.2 9.85673 18.2 9.86362 18.2 9.87051C18.2 9.87741 18.2 9.8843 18.2 9.8912C18.2 9.8981 18.2 9.905 18.2 9.9119C18.2 9.9188 18.2 9.92571 18.2 9.93261C18.2 9.93952 18.2 9.94642 18.2 9.95333C18.2 9.96024 18.2 9.96715 18.2 9.97407C18.2 9.98098 18.2 9.9879 18.2 9.99481C18.2 10.0017 18.2 10.0086 18.2 10.0156C18.2 10.0225 18.2 10.0294 18.2 10.0363C18.2 10.0433 18.2 10.0502 18.2 10.0571C18.2 10.064 18.2 10.071 18.2 10.0779C18.2 10.0848 18.2 10.0918 18.2 10.0987C18.2 10.1056 18.2 10.1126 18.2 10.1195C18.2 10.1264 18.2 10.1334 18.2 10.1403C18.2 10.1472 18.2 10.1542 18.2 10.1611C18.2 10.1681 18.2 10.175 18.2 10.182C18.2 10.1889 18.2 10.1958 18.2 10.2028C18.2 10.2097 18.2 10.2167 18.2 10.2236C18.2 10.2306 18.2 10.2375 18.2 10.2445C18.2 10.2514 18.2 10.2584 18.2 10.2653C18.2 10.2723 18.2 10.2792 18.2 10.2862C18.2 10.2932 18.2 10.3001 18.2 10.3071C18.2 10.314 18.2 10.321 18.2 10.3279C18.2 10.3349 18.2 10.3419 18.2 10.3488C18.2 10.3558 18.2 10.3627 18.2 10.3697C18.2 10.3767 18.2 10.3836 18.2 10.3906C18.2 10.3976 18.2 10.4045 18.2 10.4115C18.2 10.4184 18.2 10.4254 18.2 10.4324C18.2 10.4393 18.2 10.4463 18.2 10.4533C18.2 10.4602 18.2 10.4672 18.2 10.4742C18.2 10.4811 18.2 10.4881 18.2 10.4951C18.2 10.502 18.2 10.509 18.2 10.516C18.2 10.523 18.2 10.5299 18.2 10.5369C18.2 10.5439 18.2 10.5508 18.2 10.5578C18.2 10.5648 18.2 10.5717 18.2 10.5787C18.2 10.5857 18.2 10.5927 18.2 10.5996C18.2 10.6066 18.2 10.6136 18.2 10.6205C18.2 10.6275 18.2 10.6345 18.2 10.6415C18.2 10.6484 18.2 10.6554 18.2 10.6624C18.2 10.6693 18.2 10.6763 18.2 10.6833C18.2 10.6903 18.2 10.6972 18.2 10.7042C18.2 10.7112 18.2 10.7181 18.2 10.7251C18.2 10.7321 18.2 10.739 18.2 10.746C18.2 10.753 18.2 10.76 18.2 10.7669C18.2 10.7739 18.2 10.7809 18.2 10.7878C18.2 10.7948 18.2 10.8018 18.2 10.8087C18.2 10.8157 18.2 10.8227 18.2 10.8296C18.2 10.8366 18.2 10.8436 18.2 10.8505C18.2 10.8575 18.2 10.8645 18.2 10.8714C18.2 10.8784 18.2 10.8853 18.2 10.8923C18.2 10.8993 18.2 10.9062 18.2 10.9132C18.2 10.9202 18.2 10.9271 18.2 10.9341C18.2 10.941 18.2 10.948 18.2 10.9549C18.2 10.9619 18.2 10.9689 18.2 10.9758C18.2 10.9828 18.2 10.9897 18.2 10.9967C18.2 11.0036 18.2 11.0106 18.2 11.0175C18.2 11.0245 18.2 11.0314 18.2 11.0384C18.2 11.0453 18.2 11.0523 18.2 11.0592C18.2 11.0662 18.2 11.0731 18.2 11.0801C18.2 11.087 18.2 11.094 18.2 11.1009C18.2 11.1078 18.2 11.1148 18.2 11.1217C18.2 11.1287 18.2 11.1356 18.2 11.1425C18.2 11.1495 18.2 11.1564 18.2 11.1634C18.2 11.1703 18.2 11.1772 18.2 11.1841C18.2 11.1911 18.2 11.198 18.2 11.2049C18.2 11.2119 18.2 11.2188 18.2 11.2257C18.2 11.2326 18.2 11.2396 18.2 11.2465C18.2 11.2534 18.2 11.2603 18.2 11.2672C18.2 11.2742 18.2 11.2811 18.2 11.288C18.2 11.2949 18.2 11.3018 18.2 11.3087C18.2 11.3156 18.2 11.3226 18.2 11.3295C18.2 11.3364 18.2 11.3433 18.2 11.3502C18.2 11.3571 18.2 11.364 18.2 11.3709C18.2 11.3778 18.2 11.3847 18.2 11.3916C18.2 11.3985 18.2 11.4054 18.2 11.4122C18.2 11.4191 18.2 11.426 18.2 11.4329C18.2 11.4398 18.2 11.4467 18.2 11.4536C18.2 11.4604 18.2 11.4673 18.2 11.4742C18.2 11.4811 18.2 11.488 18.2 11.4948C18.2 11.5017 18.2 11.5086 18.2 11.5154C18.2 11.5223 18.2 11.5292 18.2 11.536C18.2 11.5429 18.2 11.5498 18.2 11.5566C18.2 11.5635 18.2 11.5703 18.2 11.5772C18.2 11.584 18.2 11.5909 18.2 11.5977C18.2 11.6046 18.2 11.6114 18.2 11.6183C18.2 11.6251 18.2 11.632 18.2 11.6388C18.2 11.6456 18.2 11.6525 18.2 11.6593C18.2 11.6661 18.2 11.6729 18.2 11.6798C18.2 11.6866 18.2 11.6934 18.2 11.7002C18.2 11.7071 18.2 11.7139 18.2 11.7207C18.2 11.7275 18.2 11.7343 18.2 11.7411C18.2 11.7479 18.2 11.7547 18.2 11.7615C18.2 11.7683 18.2 11.7751 18.2 11.7819C18.2 11.7887 18.2 11.7955 18.2 11.8023C18.2 11.8091 18.2 11.8159 18.2 11.8227C18.2 11.8294 18.2 11.8362 18.2 11.843C18.2 11.8498 18.2 11.8565 18.2 11.8633C18.2 11.8701 18.2 11.8768 18.2 11.8836C18.2 11.8904 18.2 11.8971 18.2 11.9039C18.2 11.9106 18.2 11.9174 18.2 11.9241C18.2 11.9309 18.2 11.9376 18.2 11.9444C18.2 11.9511 18.2 11.9578 18.2 11.9646C18.2 11.9713 18.2 11.978 18.2 11.9847C18.2 11.9915 18.2 11.9982 18.2 12.0049C18.2 12.0116 18.2 12.0183 18.2 12.0251C18.2 12.0318 18.2 12.0385 18.2 12.0452C18.2 12.0519 18.2 12.0586 18.2 12.0653C18.2 12.072 18.2 12.0786 18.2 12.0853C18.2 12.092 18.2 12.0987 18.2 12.1054C18.2 12.1121 18.2 12.1187 18.2 12.1254C18.2 12.1321 18.2 12.1387 18.2 12.1454C18.2 12.1521 18.2 12.1587 18.2 12.1654C18.2 12.172 18.2 12.1787 18.2 12.1853C18.2 12.192 18.2 12.1986 18.2 12.2052C18.2 12.2119 18.2 12.2185 18.2 12.2251C18.2 12.2317 18.2 12.2384 18.2 12.245C18.2 12.2516 18.2 12.2582 18.2 12.2648C18.2 12.2714 18.2 12.278 18.2 12.2846C18.2 12.2912 18.2 12.2978 18.2 12.3044C18.2 12.311 18.2 12.3176 18.2 12.3242C18.2 12.3308 18.2 12.3373 18.2 12.3439C18.2 12.3505 18.2 12.357 18.2 12.3636C18.2 12.3702 18.2 12.3767 18.2 12.3833C18.2 12.3898 18.2 12.3964 18.2 12.4029C18.2 12.4094 18.2 12.416 18.2 12.4225C18.2 12.429 18.2 12.4356 18.2 12.4421C18.2 12.4486 18.2 12.4551 18.2 12.4616C18.2 12.4682 18.2 12.4747 18.2 12.4812C18.2 12.4877 18.2 12.4942 18.2 12.5006C18.2 12.5071 18.2 12.5136 18.2 12.5201C18.2 12.5266 18.2 12.5331 18.2 12.5395C18.2 12.546 18.2 12.5525 18.2 12.5589C18.2 12.5654 18.2 12.5718 18.2 12.5783C18.2 12.5847 18.2 12.5912 18.2 12.5976C18.2 12.604 18.2 12.6105 18.2 12.6169C18.2 12.6233 18.2 12.6297 18.2 12.6361C18.2 12.6426 18.2 12.649 18.2 12.6554C18.2 12.6618 18.2 12.6682 18.2 12.6746C18.2 12.681 18.2 12.6873 18.2 12.6937C18.2 12.7001 18.2 12.7065 18.2 12.7128C18.2 12.7192 18.2 12.7256 18.2 12.7319C18.2 12.7383 18.2 12.7446 18.2 12.751C18.2 12.7573 18.2 12.7637 18.2 12.77C18.2 12.7763 18.2 12.7826 18.2 12.789C18.2 12.7953 18.2 12.8016 18.2 12.8079C18.2 12.8142 18.2 12.8205 18.2 12.8268C18.2 12.8331 18.2 12.8394 18.2 12.8457C18.2 12.8519 18.2 12.8582 18.2 12.8645C18.2 12.8708 18.2 12.877 18.2 12.8833C18.2 12.8895 18.2 12.8958 18.2 12.902C18.2 12.9083 18.2 12.9145 18.2 12.9207C18.2 12.927 18.2 12.9332 18.2 12.9394C18.2 12.9456 18.2 12.9518 18.2 12.958C18.2 12.9643 18.2 12.9704 18.2 12.9766C18.2 12.9828 18.2 12.989 18.2 12.9952C18.2 13.0014 18.2 13.0075 18.2 13.0137C18.2 13.0199 18.2 13.026 18.2 13.0322C18.2 13.0383 18.2 13.0445 18.2 13.0506C18.2 13.0567 18.2 13.0629 18.2 13.069C18.2 13.0751 18.2 13.0812 18.2 13.0873C18.2 13.0934 18.2 13.0995 18.2 13.1056C18.2 13.1117 18.2 13.1178 18.2 13.1239C18.2 13.13 18.2 13.1361 18.2 13.1421C18.2 13.1482 18.2 13.1542 18.2 13.1603C18.2 13.1663 18.2 13.1724 18.2 13.1784C18.2 13.1845 18.2 13.1905 18.2 13.1965C18.2 13.2025 18.2 13.2085 18.2 13.2146C18.2 13.2206 18.2 13.2266 18.2 13.2326C18.2 13.2385 18.2 13.2445 18.2 13.2505C18.2 13.2565 18.2 13.2625 18.2 13.2684C18.2 13.2744 18.2 13.2803 18.2 13.2863C18.2 13.2922 18.2 13.2982 18.2 13.3041C18.2 13.31 18.2 13.3159 18.2 13.3219C18.2 13.3278 18.2 13.3337 18.2 13.3396C18.2 13.3455 18.2 13.3514 18.2 13.3573C18.2 13.3631 18.2 13.369 18.2 13.3749C18.2 13.3808 18.2 13.3866 18.2 13.3925C18.2 13.3983 18.2 13.4042 18.2 13.41C18.2 13.4158 18.2 13.4217 18.2 13.4275C18.2 13.4333 18.2 13.4391 18.2 13.4449C18.2 13.4507 18.2 13.4565 18.2 13.4623C18.2 13.4681 18.2 13.4739 18.2 13.4796C18.2 13.4854 18.2 13.4912 18.2 13.4969C18.2 13.5027 18.2 13.5084 18.2 13.5141C18.2 13.5199 18.2 13.5256 18.2 13.5313C18.2 13.5371 18.2 13.5428 18.2 13.5485C18.2 13.5542 18.2 13.5599 18.2 13.5655C18.2 13.5712 18.2 13.5769 18.2 13.5826C18.2 13.5882 18.2 13.5939 18.2 13.5996C18.2 13.6052 18.2 13.6108 18.2 13.6165C18.2 13.6221 18.2 13.6277 18.2 13.6334C18.2 13.639 18.2 13.6446 18.2 13.6502C18.2 13.6558 18.2 13.6614 18.2 13.6669C18.2 13.6725 18.2 13.6781 18.2 13.6837C18.2 13.6892 18.2 13.6948 18.2 13.7003C18.2 13.7059 18.2 13.7114 18.2 13.7169C18.2 13.7224 18.2 13.728 18.2 13.7335C18.2 13.739 18.2 13.7445 18.2 13.75C18.2 13.7555 18.2 13.7609 18.2 13.7664C18.2 13.7719 18.2 13.7773 18.2 13.7828C18.2 13.7882 18.2 13.7937 18.2 13.7991C18.2 13.8045 18.2 13.81 18.2 13.8154H20.2ZM19.6472 4.89296L14.0572 2.09794L13.1628 3.88679L18.7528 6.68181L19.6472 4.89296ZM10.8372 3.88679C11.5692 3.52081 12.4308 3.52081 13.1628 3.88679L14.0572 2.09794C12.7622 1.45043 11.2378 1.45043 9.94282 2.09794L10.8372 3.88679ZM14.7 9.88752H12V11.8875H14.7V9.88752ZM12 9.88752H9.3V11.8875H12V9.88752ZM13 13.5874V10.8875H11V13.5874H13ZM13 10.8875V8.18738H11V10.8875H13Z" fill="black"/>
</svg>
